{
.appVersion = "939";
DisplayStrings = (
"AbAcAdAeAfAgAh\012AiAjAkAlAmAnAo\012ApAqArAsAtAuAv\012AwAxAyAzAa\012\012BaBbBcBdBeBfBgBhBiBjBkBlBmBnBoBpBqBrBsBtBuBvBwBxByBz\012CaCbCcCdCeCfCgChCiCjCkClCmCnCgClCmCnCoCpCqCr\012CsCtCuCvCwCxCy\012Czars\012Quick  clckci\012",

glyphs = (
{
glyphname = A;
lastChange = "2018-08-22 08:20:32 +0000";
layers = (
{
layerId = "33C692B7-ECA1-4228-A9DA-44701B454552";
paths = (
{
closed = 1;
nodes = (
"59 0 LINE",
"90 0 LINE",
"335 700 LINE",
"309 700 LINE"
);
},
{
closed = 1;
nodes = (
"162 246 LINE",
"514 246 LINE",
"514 265 LINE",
"170 265 LINE"
);
},
{
closed = 1;
nodes = (
"68 22 LINE",
"-15 6 LINE",
"-15 0 LINE",
"60 0 LINE"
);
},
{
closed = 1;
nodes = (
"525 18 LINE",
"448 6 LINE",
"448 0 LINE",
"545 0 LINE"
);
},
{
closed = 1;
nodes = (
"700 0 LINE",
"700 6 LINE",
"624 18 LINE",
"600 0 LINE"
);
},
{
closed = 1;
nodes = (
"337 700 LINE",
"302 700 LINE",
"319 653 LINE",
"321 643 LINE",
"520 0 LINE",
"629 0 LINE",
"404 705 LINE"
);
},
{
closed = 1;
nodes = (
"227 700 LINE",
"227 694 LINE",
"304 680 LINE",
"317 700 LINE"
);
},
{
closed = 1;
nodes = (
"185 0 LINE",
"185 6 LINE",
"94 22 LINE",
"90 0 LINE"
);
}
);
width = 660;
},
{
layerId = "E6F0BB9C-0782-48C1-8D27-B7622AB80911";
paths = (
{
closed = 1;
nodes = (
"-9 0 LINE",
"22 0 LINE",
"390 700 LINE",
"364 700 LINE"
);
},
{
closed = 1;
nodes = (
"137 246 LINE",
"489 246 LINE",
"493 265 LINE",
"149 265 LINE"
);
},
{
closed = 1;
nodes = (
"430 16 LINE",
"361 6 LINE",
"360 0 LINE",
"447 0 LINE"
);
},
{
closed = 1;
nodes = (
"592 0 LINE",
"593 6 LINE",
"529 16 LINE",
"502 0 LINE"
);
},
{
closed = 1;
nodes = (
"392 700 LINE",
"357 700 LINE",
"363 653 LINE",
"366 643 LINE",
"422 0 LINE",
"531 0 LINE",
"450 705 LINE"
);
},
{
closed = 1;
nodes = (
"282 700 LINE",
"281 694 LINE",
"356 680 LINE",
"372 700 LINE"
);
},
{
closed = 1;
nodes = (
"5 19 LINE",
"-80 6 LINE",
"-80 0 LINE",
"-3 0 LINE"
);
},
{
closed = 1;
nodes = (
"114 0 LINE",
"114 6 LINE",
"29 19 LINE",
"17 0 LINE"
);
}
);
width = 601;
},
{
layerId = "4AEC2A2F-21E0-4005-B5C4-61417F12BD89";
paths = (
{
closed = 1;
nodes = (
"110 0 LINE",
"110 6 LINE",
"34 18 LINE",
"213 234 LINE",
"440 229 LINE",
"385 31 LINE",
"400 8 OFFCURVE",
"404 -3 OFFCURVE",
"432 -19 CURVE",
"470 -3 LINE",
"573 38 LINE",
"569 46 LINE",
"482 21 LINE",
"656 689 LINE",
"646 702 LINE",
"533 721 LINE",
"531 718 LINE",
"547 712 OFFCURVE",
"556 702 OFFCURVE",
"561 693 CURVE",
"456 547 OFFCURVE",
"322 404 OFFCURVE",
"197 260 CURVE",
"159 273 OFFCURVE",
"137 297 OFFCURVE",
"137 300 CURVE",
"130 303 LINE",
"51 264 LINE",
"51 262 OFFCURVE",
"74 235 OFFCURVE",
"173 235 CURVE SMOOTH",
"175 235 LINE",
"113 163 OFFCURVE",
"53 91 OFFCURVE",
"0 17 CURVE",
"-74 6 LINE",
"-74 0 LINE"
);
},
{
closed = 1;
nodes = (
"557 650 LINE",
"444 245 LINE",
"249 251 LINE SMOOTH",
"242 251 OFFCURVE",
"235 252 OFFCURVE",
"228 252 CURVE"
);
}
);
width = 637;
},
{
associatedMasterId = "33C692B7-ECA1-4228-A9DA-44701B454552";
layerId = "EB34AA33-F50C-4FD8-9B71-242498702479";
width = 600;
},
{
associatedMasterId = "33C692B7-ECA1-4228-A9DA-44701B454552";
layerId = "260799CA-1354-4986-AE02-6BB02FE3B1C6";
width = 600;
},
{
associatedMasterId = "33C692B7-ECA1-4228-A9DA-44701B454552";
layerId = "D8374064-0A1B-4C7C-ABB6-28D8469F3434";
width = 600;
},
{
associatedMasterId = "33C692B7-ECA1-4228-A9DA-44701B454552";
layerId = "63A61D1F-9C45-4792-A0E0-9E10E92945A7";
width = 600;
},
{
layerId = "6E858C87-3851-4F0D-A4B8-5C62800DDA3D";
width = 600;
}
);
unicode = 0041;
},
{
glyphname = Aacute;
lastChange = "2018-08-22 08:20:32 +0000";
layers = (
{
layerId = "33C692B7-ECA1-4228-A9DA-44701B454552";
paths = (
{
closed = 1;
nodes = (
"68 0 LINE",
"99 0 LINE",
"344 700 LINE",
"318 700 LINE"
);
},
{
closed = 1;
nodes = (
"171 246 LINE",
"523 246 LINE",
"523 265 LINE",
"179 265 LINE"
);
},
{
closed = 1;
nodes = (
"77 22 LINE",
"-6 6 LINE",
"-6 0 LINE",
"69 0 LINE"
);
},
{
closed = 1;
nodes = (
"534 18 LINE",
"457 6 LINE",
"457 0 LINE",
"554 0 LINE"
);
},
{
closed = 1;
nodes = (
"709 0 LINE",
"709 6 LINE",
"633 18 LINE",
"609 0 LINE"
);
},
{
closed = 1;
nodes = (
"346 700 LINE",
"311 700 LINE",
"328 653 LINE",
"330 643 LINE",
"529 0 LINE",
"638 0 LINE",
"413 705 LINE"
);
},
{
closed = 1;
nodes = (
"236 700 LINE",
"236 694 LINE",
"313 680 LINE",
"326 700 LINE"
);
},
{
closed = 1;
nodes = (
"194 0 LINE",
"194 6 LINE",
"103 22 LINE",
"99 0 LINE"
);
},
{
closed = 1;
nodes = (
"407 866 LINE",
"483 877 LINE",
"510 865 LINE",
"354 737 LINE",
"322 737 LINE"
);
}
);
width = 600;
},
{
layerId = "E6F0BB9C-0782-48C1-8D27-B7622AB80911";
paths = (
{
closed = 1;
nodes = (
"-9 0 LINE",
"22 0 LINE",
"390 700 LINE",
"364 700 LINE"
);
},
{
closed = 1;
nodes = (
"137 246 LINE",
"489 246 LINE",
"493 265 LINE",
"149 265 LINE"
);
},
{
closed = 1;
nodes = (
"430 16 LINE",
"361 6 LINE",
"360 0 LINE",
"447 0 LINE"
);
},
{
closed = 1;
nodes = (
"592 0 LINE",
"593 6 LINE",
"529 16 LINE",
"502 0 LINE"
);
},
{
closed = 1;
nodes = (
"392 700 LINE",
"357 700 LINE",
"363 653 LINE",
"366 643 LINE",
"422 0 LINE",
"531 0 LINE",
"450 705 LINE"
);
},
{
closed = 1;
nodes = (
"282 700 LINE",
"281 694 LINE",
"356 680 LINE",
"372 700 LINE"
);
},
{
closed = 1;
nodes = (
"5 19 LINE",
"-80 6 LINE",
"-80 0 LINE",
"-3 0 LINE"
);
},
{
closed = 1;
nodes = (
"114 0 LINE",
"114 6 LINE",
"29 19 LINE",
"17 0 LINE"
);
},
{
closed = 1;
nodes = (
"351 767 OFFCURVE",
"447 866 OFFCURVE",
"447 871 CURVE",
"516 881 LINE",
"515 881 OFFCURVE",
"541 871 OFFCURVE",
"542 871 CURVE",
"542 870 LINE",
"347 734 LINE",
"327 736 LINE"
);
}
);
width = 600;
},
{
layerId = "4AEC2A2F-21E0-4005-B5C4-61417F12BD89";
paths = (
{
closed = 1;
nodes = (
"411 479 OFFCURVE",
"155 240 OFFCURVE",
"-13 0 CURVE",
"18 0 LINE",
"587 688 LINE",
"579 719 LINE"
);
},
{
closed = 1;
nodes = (
"147 258 OFFCURVE",
"68 285 OFFCURVE",
"68 309 CURVE",
"64 309 LINE",
"61 250 LINE",
"61 223 OFFCURVE",
"168 240 OFFCURVE",
"202 240 CURVE",
"460 250 LINE",
"465 260 LINE",
"326 260 OFFCURVE",
"218 258 OFFCURVE",
"178 258 CURVE SMOOTH"
);
},
{
closed = 1;
nodes = (
"645 702 LINE",
"532 721 LINE",
"530 718 LINE",
"553 710 OFFCURVE",
"561 693 OFFCURVE",
"565 684 CURVE",
"384 31 LINE",
"399 8 OFFCURVE",
"403 -3 OFFCURVE",
"431 -19 CURVE",
"476 0 LINE",
"655 689 LINE"
);
},
{
closed = 1;
nodes = (
"572 38 LINE",
"568 46 LINE",
"469 17 LINE",
"469 -3 LINE"
);
},
{
closed = 1;
nodes = (
"10 19 LINE",
"-75 6 LINE",
"-75 0 LINE",
"2 0 LINE"
);
},
{
closed = 1;
nodes = (
"109 0 LINE",
"109 6 LINE",
"24 19 LINE",
"12 0 LINE"
);
},
{
closed = 1;
nodes = (
"747 874 LINE",
"816 884 LINE",
"815 884 OFFCURVE",
"841 874 OFFCURVE",
"842 874 CURVE",
"842 873 LINE",
"620 739 LINE",
"608 749 LINE"
);
}
);
width = 600;
},
{
associatedMasterId = "33C692B7-ECA1-4228-A9DA-44701B454552";
layerId = "D8374064-0A1B-4C7C-ABB6-28D8469F3434";
width = 600;
},
{
associatedMasterId = "33C692B7-ECA1-4228-A9DA-44701B454552";
layerId = "63A61D1F-9C45-4792-A0E0-9E10E92945A7";
width = 600;
},
{
layerId = "6E858C87-3851-4F0D-A4B8-5C62800DDA3D";
width = 600;
}
);
unicode = 00C1;
},
{
glyphname = Adieresis;
lastChange = "2018-08-22 08:04:48 +0000";
layers = (
{
anchors = (
{
name = _top;
position = "{332, 581}";
},
{
name = top;
position = "{332, 836}";
}
);
layerId = "33C692B7-ECA1-4228-A9DA-44701B454552";
paths = (
{
closed = 1;
nodes = (
"59 0 LINE",
"90 0 LINE",
"335 700 LINE",
"309 700 LINE"
);
},
{
closed = 1;
nodes = (
"162 246 LINE",
"514 246 LINE",
"514 265 LINE",
"170 265 LINE"
);
},
{
closed = 1;
nodes = (
"68 22 LINE",
"-15 6 LINE",
"-15 0 LINE",
"60 0 LINE"
);
},
{
closed = 1;
nodes = (
"525 18 LINE",
"448 6 LINE",
"448 0 LINE",
"545 0 LINE"
);
},
{
closed = 1;
nodes = (
"700 0 LINE",
"700 6 LINE",
"624 18 LINE",
"600 0 LINE"
);
},
{
closed = 1;
nodes = (
"337 700 LINE",
"302 700 LINE",
"319 653 LINE",
"321 643 LINE",
"520 0 LINE",
"629 0 LINE",
"404 705 LINE"
);
},
{
closed = 1;
nodes = (
"227 700 LINE",
"227 694 LINE",
"304 680 LINE",
"317 700 LINE"
);
},
{
closed = 1;
nodes = (
"185 0 LINE",
"185 6 LINE",
"94 22 LINE",
"90 0 LINE"
);
},
{
closed = 1;
nodes = (
"287 740 OFFCURVE",
"308 762 OFFCURVE",
"308 788 CURVE SMOOTH",
"308 814 OFFCURVE",
"287 836 OFFCURVE",
"261 836 CURVE SMOOTH",
"234 836 OFFCURVE",
"212 814 OFFCURVE",
"212 788 CURVE SMOOTH",
"212 762 OFFCURVE",
"234 740 OFFCURVE",
"261 740 CURVE SMOOTH"
);
},
{
closed = 1;
nodes = (
"430 740 OFFCURVE",
"452 762 OFFCURVE",
"452 788 CURVE SMOOTH",
"452 814 OFFCURVE",
"430 836 OFFCURVE",
"404 836 CURVE SMOOTH",
"378 836 OFFCURVE",
"356 814 OFFCURVE",
"356 788 CURVE SMOOTH",
"356 762 OFFCURVE",
"378 740 OFFCURVE",
"404 740 CURVE SMOOTH"
);
}
);
width = 660;
},
{
components = (
{
name = A;
},
{
name = dieresiscomb.case;
transform = "{1, 0, 0, 1, 170, 0}";
}
);
layerId = "E6F0BB9C-0782-48C1-8D27-B7622AB80911";
width = 601;
},
{
components = (
{
name = A;
},
{
name = dieresiscomb.case;
transform = "{1, 0, 0, 1, 311, 0}";
}
);
layerId = "4AEC2A2F-21E0-4005-B5C4-61417F12BD89";
width = 637;
},
{
associatedMasterId = "33C692B7-ECA1-4228-A9DA-44701B454552";
layerId = "D8374064-0A1B-4C7C-ABB6-28D8469F3434";
width = 600;
},
{
associatedMasterId = "33C692B7-ECA1-4228-A9DA-44701B454552";
layerId = "63A61D1F-9C45-4792-A0E0-9E10E92945A7";
width = 600;
},
{
layerId = "6E858C87-3851-4F0D-A4B8-5C62800DDA3D";
width = 600;
}
);
unicode = 00C4;
},
{
glyphname = Agrave;
lastChange = "2018-08-22 08:20:32 +0000";
layers = (
{
layerId = "33C692B7-ECA1-4228-A9DA-44701B454552";
paths = (
{
closed = 1;
nodes = (
"68 0 LINE",
"99 0 LINE",
"344 700 LINE",
"318 700 LINE"
);
},
{
closed = 1;
nodes = (
"171 246 LINE",
"523 246 LINE",
"523 265 LINE",
"179 265 LINE"
);
},
{
closed = 1;
nodes = (
"77 22 LINE",
"-6 6 LINE",
"-6 0 LINE",
"69 0 LINE"
);
},
{
closed = 1;
nodes = (
"534 18 LINE",
"457 6 LINE",
"457 0 LINE",
"554 0 LINE"
);
},
{
closed = 1;
nodes = (
"709 0 LINE",
"709 6 LINE",
"633 18 LINE",
"609 0 LINE"
);
},
{
closed = 1;
nodes = (
"346 700 LINE",
"311 700 LINE",
"328 653 LINE",
"330 643 LINE",
"529 0 LINE",
"638 0 LINE",
"413 705 LINE"
);
},
{
closed = 1;
nodes = (
"236 700 LINE",
"236 694 LINE",
"313 680 LINE",
"326 700 LINE"
);
},
{
closed = 1;
nodes = (
"194 0 LINE",
"194 6 LINE",
"103 22 LINE",
"99 0 LINE"
);
},
{
closed = 1;
nodes = (
"347 747 LINE",
"191 865 LINE",
"191 876 OFFCURVE",
"199 877 OFFCURVE",
"223 877 CURVE SMOOTH",
"294 876 LINE",
"369 747 LINE"
);
}
);
width = 600;
},
{
layerId = "E6F0BB9C-0782-48C1-8D27-B7622AB80911";
paths = (
{
closed = 1;
nodes = (
"-9 0 LINE",
"22 0 LINE",
"390 700 LINE",
"364 700 LINE"
);
},
{
closed = 1;
nodes = (
"137 246 LINE",
"489 246 LINE",
"493 265 LINE",
"149 265 LINE"
);
},
{
closed = 1;
nodes = (
"430 16 LINE",
"361 6 LINE",
"360 0 LINE",
"447 0 LINE"
);
},
{
closed = 1;
nodes = (
"592 0 LINE",
"593 6 LINE",
"529 16 LINE",
"502 0 LINE"
);
},
{
closed = 1;
nodes = (
"392 700 LINE",
"357 700 LINE",
"363 653 LINE",
"366 643 LINE",
"422 0 LINE",
"531 0 LINE",
"450 705 LINE"
);
},
{
closed = 1;
nodes = (
"282 700 LINE",
"281 694 LINE",
"356 680 LINE",
"372 700 LINE"
);
},
{
closed = 1;
nodes = (
"5 19 LINE",
"-80 6 LINE",
"-80 0 LINE",
"-3 0 LINE"
);
},
{
closed = 1;
nodes = (
"114 0 LINE",
"114 6 LINE",
"29 19 LINE",
"17 0 LINE"
);
},
{
closed = 1;
nodes = (
"409 721 LINE",
"437 723 LINE"
);
},
{
closed = 1;
nodes = (
"402 734 LINE",
"207 870 LINE",
"207 871 LINE",
"208 871 OFFCURVE",
"234 881 OFFCURVE",
"233 881 CURVE",
"302 871 LINE",
"302 866 OFFCURVE",
"398 767 OFFCURVE",
"422 736 CURVE"
);
}
);
width = 600;
},
{
layerId = "4AEC2A2F-21E0-4005-B5C4-61417F12BD89";
paths = (
{
closed = 1;
nodes = (
"405 470 OFFCURVE",
"156 240 OFFCURVE",
"-12 0 CURVE",
"19 0 LINE",
"588 688 LINE",
"573 710 LINE"
);
},
{
closed = 1;
nodes = (
"179 251 OFFCURVE",
"137 296 OFFCURVE",
"137 300 CURVE",
"136 300 LINE",
"51 264 LINE",
"51 262 OFFCURVE",
"74 235 OFFCURVE",
"173 235 CURVE SMOOTH",
"461 228 LINE",
"486 244 LINE",
"249 251 LINE SMOOTH"
);
},
{
closed = 1;
nodes = (
"646 702 LINE",
"533 721 LINE",
"531 718 LINE",
"554 710 OFFCURVE",
"562 693 OFFCURVE",
"566 684 CURVE",
"385 31 LINE",
"400 8 OFFCURVE",
"404 -3 OFFCURVE",
"432 -19 CURVE",
"477 0 LINE",
"656 689 LINE"
);
},
{
closed = 1;
nodes = (
"573 38 LINE",
"569 46 LINE",
"470 17 LINE",
"470 -3 LINE"
);
},
{
closed = 1;
nodes = (
"11 19 LINE",
"-74 6 LINE",
"-74 0 LINE",
"3 0 LINE"
);
},
{
closed = 1;
nodes = (
"110 0 LINE",
"110 6 LINE",
"25 19 LINE",
"13 0 LINE"
);
},
{
closed = 1;
nodes = (
"605 737 LINE",
"410 865 LINE",
"433 877 LINE",
"513 866 LINE",
"637 737 LINE"
);
}
);
width = 600;
},
{
associatedMasterId = "33C692B7-ECA1-4228-A9DA-44701B454552";
layerId = "D8374064-0A1B-4C7C-ABB6-28D8469F3434";
width = 600;
},
{
associatedMasterId = "33C692B7-ECA1-4228-A9DA-44701B454552";
layerId = "63A61D1F-9C45-4792-A0E0-9E10E92945A7";
width = 600;
},
{
layerId = "6E858C87-3851-4F0D-A4B8-5C62800DDA3D";
width = 600;
}
);
unicode = 00C0;
},
{
glyphname = AE;
lastChange = "2018-08-22 08:20:32 +0000";
layers = (
{
layerId = "33C692B7-ECA1-4228-A9DA-44701B454552";
paths = (
{
closed = 1;
nodes = (
"59 0 LINE",
"90 0 LINE",
"558 700 LINE",
"529 700 LINE"
);
},
{
closed = 1;
nodes = (
"232 246 LINE",
"644 246 LINE",
"644 265 LINE",
"240 265 LINE"
);
},
{
closed = 1;
nodes = (
"74 22 LINE",
"-15 6 LINE",
"-15 0 LINE",
"60 0 LINE"
);
},
{
closed = 1;
nodes = (
"185 0 LINE",
"185 6 LINE",
"94 22 LINE",
"90 0 LINE"
);
},
{
closed = 1;
nodes = (
"552 0 LINE",
"652 0 LINE",
"652 700 LINE",
"552 700 LINE"
);
},
{
closed = 1;
nodes = (
"395 700 LINE",
"395 694 LINE",
"539 675 LINE",
"549 672 OFFCURVE",
"552 651 OFFCURVE",
"552 643 CURVE",
"572 700 LINE"
);
},
{
closed = 1;
nodes = (
"552 26 LINE",
"475 6 LINE",
"475 0 LINE",
"572 0 LINE"
);
},
{
closed = 1;
nodes = (
"719 0 LINE",
"719 6 LINE",
"652 16 LINE",
"632 0 LINE"
);
},
{
closed = 1;
nodes = (
"631 681 LINE",
"992 681 LINE",
"992 700 LINE",
"639 700 LINE"
);
},
{
closed = 1;
nodes = (
"631 354 LINE",
"902 354 LINE",
"902 373 LINE",
"639 373 LINE"
);
},
{
closed = 1;
nodes = (
"631 0 LINE",
"1010 0 LINE",
"1008 19 LINE",
"639 19 LINE"
);
},
{
closed = 1;
nodes = (
"902 470 LINE",
"896 470 LINE",
"853 373 LINE",
"902 364 LINE"
);
},
{
closed = 1;
nodes = (
"1032 185 LINE",
"1024 187 LINE",
"1006 150 OFFCURVE",
"925 14 OFFCURVE",
"895 15 CURVE",
"1010 0 LINE"
);
},
{
closed = 1;
nodes = (
"895 689 LINE",
"925 690 OFFCURVE",
"1002 553 OFFCURVE",
"1020 516 CURVE",
"1026 516 LINE",
"1010 703 LINE"
);
},
{
closed = 1;
nodes = (
"853 355 LINE",
"896 258 LINE",
"902 258 LINE",
"902 364 LINE"
);
}
);
width = 1067;
},
{
layerId = "E6F0BB9C-0782-48C1-8D27-B7622AB80911";
paths = (
{
closed = 1;
nodes = (
"-9 0 LINE",
"22 0 LINE",
"620 700 LINE",
"594 700 LINE"
);
},
{
closed = 1;
nodes = (
"227 246 LINE",
"539 246 LINE",
"543 265 LINE",
"239 265 LINE"
);
},
{
closed = 1;
nodes = (
"476 16 LINE",
"407 6 LINE",
"406 0 LINE",
"493 0 LINE"
);
},
{
closed = 1;
nodes = (
"622 700 LINE",
"587 700 LINE",
"593 653 LINE",
"596 643 LINE",
"468 0 LINE",
"587 0 LINE",
"702 699 LINE"
);
},
{
closed = 1;
nodes = (
"502 700 LINE",
"501 694 LINE",
"586 680 LINE",
"602 700 LINE"
);
},
{
closed = 1;
nodes = (
"5 19 LINE",
"-80 6 LINE",
"-80 0 LINE",
"-3 0 LINE"
);
},
{
closed = 1;
nodes = (
"114 0 LINE",
"114 6 LINE",
"29 19 LINE",
"17 0 LINE"
);
},
{
closed = 1;
nodes = (
"469 0 LINE",
"579 -1 LINE",
"703 700 LINE",
"603 700 LINE"
);
},
{
closed = 1;
nodes = (
"820 353 LINE",
"825 277 LINE",
"831 282 LINE",
"844 353 LINE"
);
},
{
closed = 1;
nodes = (
"646 0 LINE",
"647 6 LINE",
"582 16 LINE",
"549 0 LINE"
);
},
{
closed = 1;
nodes = (
"678 681 LINE",
"972 681 LINE",
"976 700 LINE",
"690 700 LINE"
);
},
{
closed = 1;
nodes = (
"621 349 LINE",
"844 353 LINE",
"847 372 LINE",
"632 368 LINE"
);
},
{
closed = 1;
nodes = (
"548 -1 LINE",
"868 -1 LINE",
"871 18 LINE",
"569 18 LINE"
);
},
{
closed = 1;
nodes = (
"918 684 LINE",
"929 671 OFFCURVE",
"989 584 OFFCURVE",
"991 568 CURVE",
"1000 570 LINE",
"977 700 LINE"
);
},
{
closed = 1;
nodes = (
"859 445 LINE",
"854 449 LINE",
"823 371 LINE",
"847 372 LINE"
);
},
{
closed = 1;
nodes = (
"932 130 LINE",
"924 132 LINE",
"916 116 OFFCURVE",
"831 28 OFFCURVE",
"815 15 CURVE",
"868 -1 LINE"
);
}
);
width = 951;
},
{
background = {
paths = (
{
closed = 1;
nodes = (
"275 272 OFFCURVE",
"243 337 OFFCURVE",
"243 341 CURVE",
"147 284 LINE",
"147 282 OFFCURVE",
"170 255 OFFCURVE",
"269 255 CURVE",
"667 248 LINE",
"692 271 LINE",
"345 272 LINE"
);
},
{
closed = 1;
nodes = (
"815 346 OFFCURVE",
"650 323 OFFCURVE",
"637 174 CURVE",
"651 70 OFFCURVE",
"749 -9 OFFCURVE",
"856 -8 CURVE",
"1128 132 LINE",
"1120 146 LINE",
"1098 135 OFFCURVE",
"924 38 OFFCURVE",
"896 38 CURVE SMOOTH",
"829 38 OFFCURVE",
"748 118 OFFCURVE",
"756 218 CURVE",
"767 339 OFFCURVE",
"822 336 OFFCURVE",
"946 375 CURVE",
"940 385 LINE"
);
},
{
closed = 1;
nodes = (
"-74 -78 OFFCURVE",
"-34 -96 OFFCURVE",
"10 -101 CURVE",
"373 -101 OFFCURVE",
"471 406 OFFCURVE",
"766 604 CURVE",
"758 589 OFFCURVE",
"751 547 OFFCURVE",
"749 530 CURVE",
"749 421 OFFCURVE",
"926 363 OFFCURVE",
"1016 333 CURVE",
"1017 343 LINE",
"951 376 OFFCURVE",
"845 472 OFFCURVE",
"845 589 CURVE SMOOTH",
"845 625 OFFCURVE",
"867 652 OFFCURVE",
"892 669 CURVE",
"903 676 LINE",
"925 689 OFFCURVE",
"948 695 OFFCURVE",
"959 695 CURVE",
"1045 667 OFFCURVE",
"1099 580 OFFCURVE",
"1123 550 CURVE",
"1134 580 LINE",
"1081 709 LINE",
"1042 711 LINE",
"538 711 OFFCURVE",
"365 -45 OFFCURVE",
"96 -45 CURVE",
"47 -45 OFFCURVE",
"20 -21 OFFCURVE",
"18 32 CURVE",
"9 33 LINE",
"-93 -56 LINE"
);
}
);
};
layerId = "4AEC2A2F-21E0-4005-B5C4-61417F12BD89";
paths = (
{
closed = 1;
nodes = (
"275 272 OFFCURVE",
"243 337 OFFCURVE",
"243 341 CURVE",
"147 284 LINE",
"147 282 OFFCURVE",
"170 255 OFFCURVE",
"269 255 CURVE SMOOTH",
"667 248 LINE",
"692 271 LINE",
"345 272 LINE SMOOTH"
);
},
{
closed = 1;
nodes = (
"815 346 OFFCURVE",
"650 323 OFFCURVE",
"637 174 CURVE",
"651 70 OFFCURVE",
"749 -9 OFFCURVE",
"856 -8 CURVE",
"1128 132 LINE",
"1120 146 LINE",
"1098 135 OFFCURVE",
"924 38 OFFCURVE",
"896 38 CURVE SMOOTH",
"829 38 OFFCURVE",
"748 118 OFFCURVE",
"756 218 CURVE SMOOTH",
"767 339 OFFCURVE",
"822 336 OFFCURVE",
"946 375 CURVE",
"940 385 LINE"
);
},
{
closed = 1;
nodes = (
"-74 -78 OFFCURVE",
"-34 -96 OFFCURVE",
"10 -101 CURVE",
"373 -101 OFFCURVE",
"471 406 OFFCURVE",
"766 604 CURVE",
"758 589 OFFCURVE",
"751 547 OFFCURVE",
"749 530 CURVE",
"749 421 OFFCURVE",
"926 363 OFFCURVE",
"1016 333 CURVE",
"1017 343 LINE",
"951 376 OFFCURVE",
"845 472 OFFCURVE",
"845 589 CURVE SMOOTH",
"845 625 OFFCURVE",
"867 652 OFFCURVE",
"892 669 CURVE SMOOTH",
"903 676 LINE SMOOTH",
"925 689 OFFCURVE",
"948 695 OFFCURVE",
"959 695 CURVE",
"1045 667 OFFCURVE",
"1099 580 OFFCURVE",
"1123 550 CURVE",
"1134 580 LINE",
"1081 709 LINE",
"1042 711 LINE",
"538 711 OFFCURVE",
"365 -45 OFFCURVE",
"96 -45 CURVE SMOOTH",
"47 -45 OFFCURVE",
"20 -21 OFFCURVE",
"18 32 CURVE",
"9 33 LINE",
"-93 -56 LINE"
);
}
);
width = 1109;
},
{
associatedMasterId = "33C692B7-ECA1-4228-A9DA-44701B454552";
layerId = "D8374064-0A1B-4C7C-ABB6-28D8469F3434";
width = 600;
},
{
associatedMasterId = "33C692B7-ECA1-4228-A9DA-44701B454552";
layerId = "63A61D1F-9C45-4792-A0E0-9E10E92945A7";
width = 600;
},
{
layerId = "6E858C87-3851-4F0D-A4B8-5C62800DDA3D";
width = 600;
}
);
leftMetricsKey = A;
rightMetricsKey = E;
unicode = 00C6;
},
{
glyphname = B;
lastChange = "2018-08-22 08:20:32 +0000";
layers = (
{
background = {
paths = (
{
closed = 1;
nodes = (
"225 0 LINE",
"381 -1 LINE",
"447 2 OFFCURVE",
"743 127 OFFCURVE",
"743 383 CURVE",
"743 599 OFFCURVE",
"603 709 OFFCURVE",
"387 701 CURVE",
"38 700 LINE",
"38 694 LINE",
"125 674 LINE",
"125 26 LINE",
"28 6 LINE",
"28 0 LINE"
);
},
{
closed = 1;
nodes = (
"225 672 LINE",
"245 681 OFFCURVE",
"291 685 OFFCURVE",
"306 685 CURVE",
"520 685 OFFCURVE",
"630 597 OFFCURVE",
"630 372 CURVE",
"630 161 OFFCURVE",
"568 41 OFFCURVE",
"420 41 CURVE",
"369 41 OFFCURVE",
"256 41 OFFCURVE",
"225 70 CURVE"
);
}
);
};
layerId = "33C692B7-ECA1-4228-A9DA-44701B454552";
paths = (
{
closed = 1;
nodes = (
"195 674 LINE",
"204 682 OFFCURVE",
"241 684 OFFCURVE",
"268 685 CURVE",
"384 684 OFFCURVE",
"441 620 OFFCURVE",
"441 549 CURVE SMOOTH",
"441 430 OFFCURVE",
"362 381 OFFCURVE",
"278 381 CURVE SMOOTH",
"248 381 OFFCURVE",
"225 382 OFFCURVE",
"195 384 CURVE"
);
},
{
closed = 1;
nodes = (
"321 362 LINE",
"404 375 OFFCURVE",
"530 409 OFFCURVE",
"529 560 CURVE",
"529 670 OFFCURVE",
"435 702 OFFCURVE",
"293 701 CURVE SMOOTH",
"18 700 LINE",
"18 694 LINE",
"95 674 LINE",
"95 26 LINE",
"10 6 LINE",
"10 0 LINE",
"195 0 LINE",
"195 372 LINE"
);
},
{
closed = 1;
nodes = (
"185 354 LINE",
"197 360 OFFCURVE",
"240 361 OFFCURVE",
"278 361 CURVE SMOOTH",
"394 360 OFFCURVE",
"476 268 OFFCURVE",
"476 187 CURVE SMOOTH",
"476 68 OFFCURVE",
"422 21 OFFCURVE",
"323 21 CURVE SMOOTH",
"293 21 OFFCURVE",
"185 40 OFFCURVE",
"185 91 CURVE",
"185 0 LINE",
"304 0 LINE SMOOTH",
"369 0 OFFCURVE",
"570 -9 OFFCURVE",
"569 194 CURVE",
"569 308 OFFCURVE",
"445 383 OFFCURVE",
"303 380 CURVE",
"185 384 LINE"
);
}
);
width = 589;
},
{
layerId = "4AEC2A2F-21E0-4005-B5C4-61417F12BD89";
paths = (
{
closed = 1;
nodes = (
"337 674 LINE",
"349 682 OFFCURVE",
"375 684 OFFCURVE",
"402 685 CURVE",
"464 684 OFFCURVE",
"509 634 OFFCURVE",
"509 578 CURVE SMOOTH",
"509 478 OFFCURVE",
"460 380 OFFCURVE",
"353 380 CURVE SMOOTH",
"323 380 OFFCURVE",
"280 382 OFFCURVE",
"250 384 CURVE"
);
},
{
closed = 1;
nodes = (
"369 362 LINE",
"508 383 OFFCURVE",
"602 455 OFFCURVE",
"602 584 CURVE SMOOTH",
"602 658 OFFCURVE",
"528 702 OFFCURVE",
"432 701 CURVE SMOOTH",
"158 700 LINE",
"156 694 LINE",
"237 674 LINE",
"43 26 LINE",
"-60 6 LINE",
"-62 0 LINE",
"135 0 LINE",
"247 372 LINE"
);
},
{
closed = 1;
nodes = (
"231 354 LINE",
"245 360 OFFCURVE",
"288 361 OFFCURVE",
"326 361 CURVE SMOOTH",
"418 360 OFFCURVE",
"448 302 OFFCURVE",
"448 238 CURVE SMOOTH",
"448 132 OFFCURVE",
"378 21 OFFCURVE",
"270 21 CURVE SMOOTH",
"242 21 OFFCURVE",
"151 38 OFFCURVE",
"151 81 CURVE SMOOTH",
"151 84 OFFCURVE",
"151 88 OFFCURVE",
"152 91 CURVE",
"125 0 LINE",
"244 0 LINE SMOOTH",
"416 0 OFFCURVE",
"544 80 OFFCURVE",
"544 243 CURVE SMOOTH",
"544 329 OFFCURVE",
"479 383 OFFCURVE",
"357 380 CURVE SMOOTH",
"240 380 LINE"
);
}
);
width = 574;
},
{
layerId = "E6F0BB9C-0782-48C1-8D27-B7622AB80911";
paths = (
{
closed = 1;
nodes = (
"285 674 LINE",
"296 682 OFFCURVE",
"332 684 OFFCURVE",
"359 685 CURVE",
"437 684 OFFCURVE",
"489 632 OFFCURVE",
"489 570 CURVE SMOOTH",
"489 471 OFFCURVE",
"422 381 OFFCURVE",
"317 381 CURVE",
"287 381 OFFCURVE",
"264 382 OFFCURVE",
"234 384 CURVE"
);
},
{
closed = 1;
nodes = (
"356 362 LINE",
"487 382 OFFCURVE",
"580 456 OFFCURVE",
"580 587 CURVE SMOOTH",
"580 675 OFFCURVE",
"489 702 OFFCURVE",
"387 701 CURVE",
"116 700 LINE",
"115 694 LINE",
"185 678 LINE",
"71 24 LINE",
"-10 6 LINE",
"-11 0 LINE",
"166 0 LINE",
"232 372 LINE"
);
},
{
closed = 1;
nodes = (
"219 354 LINE",
"232 360 OFFCURVE",
"275 361 OFFCURVE",
"313 361 CURVE",
"414 360 OFFCURVE",
"461 290 OFFCURVE",
"461 218 CURVE SMOOTH",
"461 117 OFFCURVE",
"403 21 OFFCURVE",
"298 21 CURVE",
"268 21 OFFCURVE",
"163 40 OFFCURVE",
"172 91 CURVE",
"156 0 LINE",
"275 0 LINE",
"425 0 OFFCURVE",
"556 54 OFFCURVE",
"556 225 CURVE SMOOTH",
"556 321 OFFCURVE",
"471 383 OFFCURVE",
"341 380 CURVE",
"224 384 LINE"
);
}
);
width = 577;
},
{
associatedMasterId = "33C692B7-ECA1-4228-A9DA-44701B454552";
layerId = "EB34AA33-F50C-4FD8-9B71-242498702479";
width = 600;
},
{
associatedMasterId = "33C692B7-ECA1-4228-A9DA-44701B454552";
layerId = "260799CA-1354-4986-AE02-6BB02FE3B1C6";
width = 600;
},
{
layerId = "6E858C87-3851-4F0D-A4B8-5C62800DDA3D";
width = 600;
},
{
associatedMasterId = "33C692B7-ECA1-4228-A9DA-44701B454552";
layerId = "D8374064-0A1B-4C7C-ABB6-28D8469F3434";
width = 600;
},
{
associatedMasterId = "33C692B7-ECA1-4228-A9DA-44701B454552";
layerId = "63A61D1F-9C45-4792-A0E0-9E10E92945A7";
width = 600;
}
);
leftMetricsKey = N;
unicode = 0042;
},
{
glyphname = C;
lastChange = "2018-08-22 08:20:32 +0000";
layers = (
{
layerId = "33C692B7-ECA1-4228-A9DA-44701B454552";
paths = (
{
closed = 1;
nodes = (
"20 113 OFFCURVE",
"163 -12 OFFCURVE",
"362 -13 CURVE",
"438 24 OFFCURVE",
"592 124 OFFCURVE",
"615 160 CURVE",
"603 178 LINE",
"579 143 OFFCURVE",
"472 59 OFFCURVE",
"403 59 CURVE SMOOTH",
"210 59 OFFCURVE",
"113 178 OFFCURVE",
"113 387 CURVE SMOOTH",
"113 527 OFFCURVE",
"228 688 OFFCURVE",
"348 688 CURVE SMOOTH",
"453 688 OFFCURVE",
"542 586 OFFCURVE",
"580 495 CURVE",
"593 498 LINE",
"562 688 LINE",
"514 705 OFFCURVE",
"442 712 OFFCURVE",
"376 712 CURVE",
"186 682 OFFCURVE",
"20 515 OFFCURVE",
"20 325 CURVE SMOOTH"
);
}
);
width = 635;
},
{
layerId = "4AEC2A2F-21E0-4005-B5C4-61417F12BD89";
paths = (
{
closed = 1;
nodes = (
"23 441 OFFCURVE",
"23 214 CURVE SMOOTH",
"23 70 OFFCURVE",
"112 -12 OFFCURVE",
"201 -13 CURVE",
"267 15 OFFCURVE",
"390 143 OFFCURVE",
"441 191 CURVE",
"430 199 LINE",
"386 154 OFFCURVE",
"286 59 OFFCURVE",
"267 59 CURVE SMOOTH",
"215 59 OFFCURVE",
"138 136 OFFCURVE",
"132 238 CURVE SMOOTH",
"122 419 OFFCURVE",
"256 688 OFFCURVE",
"417 688 CURVE",
"461 623 OFFCURVE",
"479 599 OFFCURVE",
"518 525 CURVE",
"555 527 OFFCURVE",
"576 551 OFFCURVE",
"576 603 CURVE SMOOTH",
"576 669 OFFCURVE",
"552 712 OFFCURVE",
"452 712 CURVE",
"220 677 OFFCURVE"
);
}
);
width = 480;
},
{
layerId = "E6F0BB9C-0782-48C1-8D27-B7622AB80911";
paths = (
{
closed = 1;
nodes = (
"21 473 OFFCURVE",
"21 256 CURVE",
"21 86 OFFCURVE",
"142 -12 OFFCURVE",
"239 -13 CURVE",
"309 15 OFFCURVE",
"455 113 OFFCURVE",
"485 161 CURVE",
"473 169 LINE",
"443 134 OFFCURVE",
"359 56 OFFCURVE",
"303 59 CURVE",
"186 59 OFFCURVE",
"128 158 OFFCURVE",
"128 281 CURVE",
"128 463 OFFCURVE",
"217 688 OFFCURVE",
"366 688 CURVE",
"451 688 OFFCURVE",
"509 586 OFFCURVE",
"531 495 CURVE",
"544 498 LINE",
"547 688 LINE",
"502 705 OFFCURVE",
"444 712 OFFCURVE",
"398 712 CURVE",
"183 679 OFFCURVE"
);
}
);
width = 508;
},
{
associatedMasterId = "33C692B7-ECA1-4228-A9DA-44701B454552";
layerId = "EB34AA33-F50C-4FD8-9B71-242498702479";
width = 600;
},
{
associatedMasterId = "33C692B7-ECA1-4228-A9DA-44701B454552";
layerId = "260799CA-1354-4986-AE02-6BB02FE3B1C6";
width = 600;
},
{
associatedMasterId = "33C692B7-ECA1-4228-A9DA-44701B454552";
layerId = "D8374064-0A1B-4C7C-ABB6-28D8469F3434";
width = 600;
},
{
associatedMasterId = "33C692B7-ECA1-4228-A9DA-44701B454552";
layerId = "63A61D1F-9C45-4792-A0E0-9E10E92945A7";
width = 600;
},
{
layerId = "6E858C87-3851-4F0D-A4B8-5C62800DDA3D";
width = 600;
}
);
leftMetricsKey = O;
rightMetricsKey = O;
unicode = 0043;
},
{
glyphname = Ccedilla;
lastChange = "2018-08-22 08:20:32 +0000";
layers = (
{
anchors = (
{
name = bottom;
position = "{236, -252}";
}
);
components = (
{
name = cedillacomb.case;
}
);
layerId = "33C692B7-ECA1-4228-A9DA-44701B454552";
paths = (
{
closed = 1;
nodes = (
"15 113 OFFCURVE",
"158 -12 OFFCURVE",
"357 -13 CURVE",
"433 24 OFFCURVE",
"587 124 OFFCURVE",
"610 160 CURVE",
"598 178 LINE",
"574 143 OFFCURVE",
"467 59 OFFCURVE",
"398 59 CURVE SMOOTH",
"205 59 OFFCURVE",
"108 178 OFFCURVE",
"108 387 CURVE SMOOTH",
"108 527 OFFCURVE",
"223 688 OFFCURVE",
"343 688 CURVE SMOOTH",
"448 688 OFFCURVE",
"537 586 OFFCURVE",
"575 495 CURVE",
"588 498 LINE",
"557 688 LINE",
"509 705 OFFCURVE",
"437 712 OFFCURVE",
"371 712 CURVE",
"181 682 OFFCURVE",
"15 515 OFFCURVE",
"15 325 CURVE SMOOTH"
);
}
);
width = 625;
},
{
layerId = "E6F0BB9C-0782-48C1-8D27-B7622AB80911";
paths = (
{
closed = 1;
nodes = (
"50 473 OFFCURVE",
"50 256 CURVE",
"50 86 OFFCURVE",
"171 -12 OFFCURVE",
"268 -13 CURVE",
"338 15 OFFCURVE",
"484 113 OFFCURVE",
"514 161 CURVE",
"502 169 LINE",
"472 134 OFFCURVE",
"388 56 OFFCURVE",
"332 59 CURVE",
"215 59 OFFCURVE",
"156 158 OFFCURVE",
"156 281 CURVE",
"156 463 OFFCURVE",
"246 688 OFFCURVE",
"395 688 CURVE",
"480 688 OFFCURVE",
"538 586 OFFCURVE",
"560 495 CURVE",
"573 498 LINE",
"576 688 LINE",
"531 705 OFFCURVE",
"473 712 OFFCURVE",
"427 712 CURVE",
"212 679 OFFCURVE"
);
},
{
closed = 1;
nodes = (
"120 -89 LINE",
"122 -93 LINE",
"132 -93 OFFCURVE",
"160 -88 OFFCURVE",
"188 -88 CURVE SMOOTH",
"224 -88 OFFCURVE",
"261 -96 OFFCURVE",
"261 -135 CURVE SMOOTH",
"261 -183 OFFCURVE",
"222 -243 OFFCURVE",
"175 -243 CURVE",
"155 -243 OFFCURVE",
"118 -207 OFFCURVE",
"124 -172 CURVE",
"107 -176 OFFCURVE",
"93 -182 OFFCURVE",
"77 -193 CURVE",
"72 -225 OFFCURVE",
"142 -252 OFFCURVE",
"170 -252 CURVE",
"224 -252 OFFCURVE",
"312 -182 OFFCURVE",
"312 -116 CURVE SMOOTH",
"312 -77 OFFCURVE",
"277 -61 OFFCURVE",
"236 -61 CURVE SMOOTH",
"207 -61 OFFCURVE",
"175 -69 OFFCURVE",
"153 -82 CURVE",
"307 6 LINE",
"312 38 LINE"
);
}
);
width = 542;
},
{
layerId = "4AEC2A2F-21E0-4005-B5C4-61417F12BD89";
paths = (
{
closed = 1;
nodes = (
"56 441 OFFCURVE",
"56 214 CURVE SMOOTH",
"56 70 OFFCURVE",
"145 -12 OFFCURVE",
"234 -13 CURVE",
"300 15 OFFCURVE",
"423 143 OFFCURVE",
"474 191 CURVE",
"463 199 LINE",
"419 154 OFFCURVE",
"319 59 OFFCURVE",
"300 59 CURVE SMOOTH",
"248 59 OFFCURVE",
"171 136 OFFCURVE",
"165 238 CURVE SMOOTH",
"155 419 OFFCURVE",
"289 688 OFFCURVE",
"450 688 CURVE",
"494 623 OFFCURVE",
"512 599 OFFCURVE",
"551 525 CURVE",
"588 527 OFFCURVE",
"609 551 OFFCURVE",
"609 603 CURVE SMOOTH",
"609 669 OFFCURVE",
"585 712 OFFCURVE",
"485 712 CURVE",
"253 677 OFFCURVE"
);
},
{
closed = 1;
nodes = (
"98 -89 LINE",
"100 -93 LINE",
"110 -93 OFFCURVE",
"138 -88 OFFCURVE",
"166 -88 CURVE SMOOTH",
"202 -88 OFFCURVE",
"233 -96 OFFCURVE",
"233 -135 CURVE SMOOTH",
"233 -183 OFFCURVE",
"181 -243 OFFCURVE",
"134 -243 CURVE SMOOTH",
"117 -243 OFFCURVE",
"90 -216 OFFCURVE",
"90 -186 CURVE SMOOTH",
"90 -181 OFFCURVE",
"91 -177 OFFCURVE",
"92 -172 CURVE",
"74 -176 OFFCURVE",
"60 -182 OFFCURVE",
"42 -193 CURVE",
"33 -225 OFFCURVE",
"100 -252 OFFCURVE",
"128 -252 CURVE SMOOTH",
"184 -252 OFFCURVE",
"287 -177 OFFCURVE",
"287 -110 CURVE SMOOTH",
"287 -75 OFFCURVE",
"256 -61 OFFCURVE",
"217 -61 CURVE SMOOTH",
"188 -61 OFFCURVE",
"155 -69 OFFCURVE",
"132 -82 CURVE",
"261 2 LINE",
"284 38 LINE"
);
}
);
width = 554;
},
{
associatedMasterId = "33C692B7-ECA1-4228-A9DA-44701B454552";
layerId = "D8374064-0A1B-4C7C-ABB6-28D8469F3434";
width = 600;
},
{
associatedMasterId = "33C692B7-ECA1-4228-A9DA-44701B454552";
layerId = "63A61D1F-9C45-4792-A0E0-9E10E92945A7";
width = 600;
},
{
layerId = "6E858C87-3851-4F0D-A4B8-5C62800DDA3D";
width = 600;
}
);
unicode = 00C7;
},
{
glyphname = D;
lastChange = "2018-08-22 08:20:32 +0000";
layers = (
{
background = {
paths = (
{
closed = 1;
nodes = (
"275 16 LINE",
"275 684 LINE",
"380 690 LINE",
"551 690 OFFCURVE",
"620 553 OFFCURVE",
"620 359 CURVE",
"620 149 OFFCURVE",
"528 10 OFFCURVE",
"391 10 CURVE"
);
},
{
closed = 1;
nodes = (
"399 0 LINE SMOOTH",
"625 7 OFFCURVE",
"738 158 OFFCURVE",
"738 363 CURVE SMOOTH",
"738 577 OFFCURVE",
"608 700 OFFCURVE",
"399 700 CURVE SMOOTH",
"81 700 LINE",
"81 690 LINE",
"167 684 LINE",
"167 16 LINE",
"81 10 LINE",
"81 0 LINE"
);
}
);
};
layerId = "33C692B7-ECA1-4228-A9DA-44701B454552";
paths = (
{
closed = 1;
nodes = (
"383 -1 LINE",
"449 2 OFFCURVE",
"745 127 OFFCURVE",
"745 383 CURVE SMOOTH",
"745 599 OFFCURVE",
"605 709 OFFCURVE",
"389 701 CURVE SMOOTH",
"40 700 LINE",
"40 694 LINE",
"127 674 LINE",
"127 26 LINE",
"30 6 LINE",
"30 0 LINE"
);
},
{
closed = 1;
nodes = (
"227 679 LINE",
"249 684 OFFCURVE",
"293 685 OFFCURVE",
"308 685 CURVE SMOOTH",
"522 685 OFFCURVE",
"632 597 OFFCURVE",
"632 372 CURVE SMOOTH",
"632 161 OFFCURVE",
"570 41 OFFCURVE",
"422 41 CURVE SMOOTH",
"371 41 OFFCURVE",
"258 41 OFFCURVE",
"227 70 CURVE"
);
}
);
width = 765;
},
{
layerId = "4AEC2A2F-21E0-4005-B5C4-61417F12BD89";
paths = (
{
closed = 1;
nodes = (
"145 0 LINE",
"236 -1 LINE",
"303 2 OFFCURVE",
"611 127 OFFCURVE",
"688 383 CURVE SMOOTH",
"752 599 OFFCURVE",
"660 709 OFFCURVE",
"442 701 CURVE SMOOTH",
"168 700 LINE",
"166 694 LINE",
"247 674 LINE",
"53 26 LINE",
"-50 6 LINE",
"-52 0 LINE"
);
},
{
closed = 1;
nodes = (
"346 672 LINE",
"368 681 OFFCURVE",
"391 685 OFFCURVE",
"406 685 CURVE SMOOTH",
"570 685 OFFCURVE",
"638 597 OFFCURVE",
"572 372 CURVE SMOOTH",
"509 161 OFFCURVE",
"405 41 OFFCURVE",
"287 41 CURVE SMOOTH",
"236 41 OFFCURVE",
"188 41 OFFCURVE",
"166 70 CURVE"
);
}
);
width = 653;
},
{
layerId = "E6F0BB9C-0782-48C1-8D27-B7622AB80911";
paths = (
{
closed = 1;
nodes = (
"186 0 LINE",
"277 -1 LINE",
"324 2 OFFCURVE",
"637 157 OFFCURVE",
"682 413 CURVE",
"720 629 OFFCURVE",
"614 719 OFFCURVE",
"397 701 CURVE",
"123 700 LINE",
"122 694 LINE",
"205 674 LINE",
"91 26 LINE",
"-10 6 LINE",
"-11 0 LINE"
);
},
{
closed = 1;
nodes = (
"305 662 LINE",
"313 684 OFFCURVE",
"349 686 OFFCURVE",
"364 686 CURVE",
"508 686 OFFCURVE",
"606 627 OFFCURVE",
"567 402 CURVE",
"530 191 OFFCURVE",
"412 41 OFFCURVE",
"320 41 CURVE",
"269 41 OFFCURVE",
"214 41 OFFCURVE",
"199 70 CURVE"
);
}
);
width = 661;
},
{
associatedMasterId = "33C692B7-ECA1-4228-A9DA-44701B454552";
layerId = "EB34AA33-F50C-4FD8-9B71-242498702479";
width = 600;
},
{
associatedMasterId = "33C692B7-ECA1-4228-A9DA-44701B454552";
layerId = "260799CA-1354-4986-AE02-6BB02FE3B1C6";
width = 600;
},
{
associatedMasterId = "33C692B7-ECA1-4228-A9DA-44701B454552";
layerId = "D8374064-0A1B-4C7C-ABB6-28D8469F3434";
width = 600;
},
{
associatedMasterId = "33C692B7-ECA1-4228-A9DA-44701B454552";
layerId = "63A61D1F-9C45-4792-A0E0-9E10E92945A7";
width = 600;
},
{
layerId = "6E858C87-3851-4F0D-A4B8-5C62800DDA3D";
width = 600;
}
);
leftMetricsKey = H;
rightMetricsKey = O;
unicode = 0044;
},
{
glyphname = Eth;
lastChange = "2018-08-22 08:20:32 +0000";
layers = (
{
components = (
{
name = D;
}
);
layerId = "33C692B7-ECA1-4228-A9DA-44701B454552";
paths = (
{
closed = 1;
nodes = (
"62 377 LINE",
"129 377 LINE",
"223 388 LINE",
"129 395 LINE",
"62 391 LINE"
);
},
{
closed = 1;
nodes = (
"226 395 LINE",
"132 388 LINE",
"226 377 LINE",
"293 377 LINE",
"293 391 LINE"
);
}
);
width = 765;
},
{
components = (
{
name = D;
}
);
layerId = "E6F0BB9C-0782-48C1-8D27-B7622AB80911";
paths = (
{
closed = 1;
nodes = (
"100 377 LINE",
"167 377 LINE",
"261 388 LINE",
"167 395 LINE",
"100 391 LINE"
);
},
{
closed = 1;
nodes = (
"254 395 LINE",
"160 388 LINE",
"254 377 LINE",
"321 377 LINE",
"321 391 LINE"
);
}
);
width = 656;
},
{
components = (
{
name = D;
}
);
layerId = "4AEC2A2F-21E0-4005-B5C4-61417F12BD89";
paths = (
{
closed = 1;
nodes = (
"92 377 LINE",
"159 377 LINE",
"253 388 LINE",
"159 395 LINE",
"92 391 LINE"
);
},
{
closed = 1;
nodes = (
"256 395 LINE",
"162 388 LINE",
"256 377 LINE",
"323 377 LINE",
"323 391 LINE"
);
}
);
width = 689;
},
{
associatedMasterId = "33C692B7-ECA1-4228-A9DA-44701B454552";
layerId = "D8374064-0A1B-4C7C-ABB6-28D8469F3434";
width = 600;
},
{
associatedMasterId = "33C692B7-ECA1-4228-A9DA-44701B454552";
layerId = "63A61D1F-9C45-4792-A0E0-9E10E92945A7";
width = 600;
},
{
layerId = "6E858C87-3851-4F0D-A4B8-5C62800DDA3D";
width = 600;
}
);
unicode = 00D0;
},
{
glyphname = E;
lastChange = "2018-08-22 08:20:32 +0000";
layers = (
{
layerId = "33C692B7-ECA1-4228-A9DA-44701B454552";
paths = (
{
closed = 1;
nodes = (
"87 0 LINE",
"187 0 LINE",
"187 700 LINE",
"87 700 LINE"
);
},
{
closed = 1;
nodes = (
"87 26 LINE",
"10 6 LINE",
"10 0 LINE",
"107 0 LINE"
);
},
{
closed = 1;
nodes = (
"254 0 LINE",
"254 6 LINE",
"187 16 LINE",
"167 0 LINE"
);
},
{
closed = 1;
nodes = (
"166 681 LINE",
"527 681 LINE",
"527 700 LINE",
"174 700 LINE"
);
},
{
closed = 1;
nodes = (
"166 354 LINE",
"437 354 LINE",
"437 373 LINE",
"174 373 LINE"
);
},
{
closed = 1;
nodes = (
"166 0 LINE",
"545 0 LINE",
"543 19 LINE",
"174 19 LINE"
);
},
{
closed = 1;
nodes = (
"437 470 LINE",
"431 470 LINE",
"388 373 LINE",
"437 364 LINE"
);
},
{
closed = 1;
nodes = (
"567 185 LINE",
"559 187 LINE",
"541 150 OFFCURVE",
"460 14 OFFCURVE",
"430 15 CURVE",
"545 0 LINE"
);
},
{
closed = 1;
nodes = (
"430 689 LINE",
"460 690 OFFCURVE",
"537 553 OFFCURVE",
"555 516 CURVE",
"561 516 LINE",
"545 703 LINE"
);
},
{
closed = 1;
nodes = (
"388 355 LINE",
"431 258 LINE",
"437 258 LINE",
"437 364 LINE"
);
},
{
closed = 1;
nodes = (
"27 700 LINE",
"27 687 LINE",
"119 673 LINE",
"132 700 LINE"
);
}
);
width = 602;
},
{
layerId = "4AEC2A2F-21E0-4005-B5C4-61417F12BD89";
paths = (
{
closed = 1;
nodes = (
"174 376 OFFCURVE",
"9 323 OFFCURVE",
"-4 174 CURVE",
"10 70 OFFCURVE",
"108 -9 OFFCURVE",
"215 -8 CURVE",
"487 132 LINE",
"479 146 LINE",
"457 135 OFFCURVE",
"283 38 OFFCURVE",
"255 38 CURVE SMOOTH",
"188 38 OFFCURVE",
"107 118 OFFCURVE",
"115 218 CURVE SMOOTH",
"126 339 OFFCURVE",
"181 366 OFFCURVE",
"305 405 CURVE",
"299 415 LINE"
);
},
{
closed = 1;
nodes = (
"113 441 OFFCURVE",
"285 393 OFFCURVE",
"375 363 CURVE",
"376 373 LINE",
"310 406 OFFCURVE",
"204 472 OFFCURVE",
"204 589 CURVE SMOOTH",
"204 662 OFFCURVE",
"292 695 OFFCURVE",
"318 695 CURVE",
"404 667 OFFCURVE",
"458 580 OFFCURVE",
"482 550 CURVE",
"493 580 LINE",
"440 709 LINE",
"401 711 LINE",
"261 711 OFFCURVE",
"127 647 OFFCURVE",
"118 550 CURVE"
);
}
);
width = 468;
},
{
layerId = "E6F0BB9C-0782-48C1-8D27-B7622AB80911";
paths = (
{
closed = 1;
nodes = (
"56 0 LINE",
"156 -1 LINE",
"280 700 LINE",
"180 700 LINE"
);
},
{
closed = 1;
nodes = (
"113 700 LINE",
"112 694 LINE",
"177 684 LINE",
"200 700 LINE"
);
},
{
closed = 1;
nodes = (
"397 353 LINE",
"402 277 LINE",
"408 282 LINE",
"421 353 LINE"
);
},
{
closed = 1;
nodes = (
"59 16 LINE",
"-10 6 LINE",
"-11 0 LINE",
"76 0 LINE"
);
},
{
closed = 1;
nodes = (
"223 0 LINE",
"224 6 LINE",
"159 16 LINE",
"136 0 LINE"
);
},
{
closed = 1;
nodes = (
"255 681 LINE",
"549 681 LINE",
"553 700 LINE",
"267 700 LINE"
);
},
{
closed = 1;
nodes = (
"198 349 LINE",
"421 353 LINE",
"424 372 LINE",
"209 368 LINE"
);
},
{
closed = 1;
nodes = (
"135 -1 LINE",
"445 -1 LINE",
"448 18 LINE",
"146 18 LINE"
);
},
{
closed = 1;
nodes = (
"495 684 LINE",
"506 671 OFFCURVE",
"566 584 OFFCURVE",
"568 568 CURVE",
"577 570 LINE",
"554 700 LINE"
);
},
{
closed = 1;
nodes = (
"436 445 LINE",
"431 449 LINE",
"400 371 LINE",
"424 372 LINE"
);
},
{
closed = 1;
nodes = (
"509 130 LINE",
"501 132 LINE",
"493 116 OFFCURVE",
"408 28 OFFCURVE",
"392 15 CURVE",
"445 -1 LINE"
);
}
);
width = 528;
},
{
associatedMasterId = "33C692B7-ECA1-4228-A9DA-44701B454552";
layerId = "EB34AA33-F50C-4FD8-9B71-242498702479";
width = 600;
},
{
associatedMasterId = "33C692B7-ECA1-4228-A9DA-44701B454552";
layerId = "260799CA-1354-4986-AE02-6BB02FE3B1C6";
width = 600;
},
{
associatedMasterId = "33C692B7-ECA1-4228-A9DA-44701B454552";
layerId = "D8374064-0A1B-4C7C-ABB6-28D8469F3434";
width = 600;
},
{
associatedMasterId = "33C692B7-ECA1-4228-A9DA-44701B454552";
layerId = "63A61D1F-9C45-4792-A0E0-9E10E92945A7";
width = 600;
},
{
layerId = "6E858C87-3851-4F0D-A4B8-5C62800DDA3D";
width = 600;
}
);
leftMetricsKey = N;
unicode = 0045;
},
{
glyphname = Eacute;
lastChange = "2018-08-22 08:20:32 +0000";
layers = (
{
components = (
{
name = acutecomb.case;
}
);
layerId = "33C692B7-ECA1-4228-A9DA-44701B454552";
paths = (
{
closed = 1;
nodes = (
"117 0 LINE",
"217 0 LINE",
"217 700 LINE",
"117 700 LINE"
);
},
{
closed = 1;
nodes = (
"30 700 LINE",
"30 694 LINE",
"117 674 LINE",
"137 700 LINE"
);
},
{
closed = 1;
nodes = (
"117 26 LINE",
"40 6 LINE",
"40 0 LINE",
"137 0 LINE"
);
},
{
closed = 1;
nodes = (
"284 0 LINE",
"284 6 LINE",
"217 16 LINE",
"197 0 LINE"
);
},
{
closed = 1;
nodes = (
"196 681 LINE",
"557 681 LINE",
"557 700 LINE",
"204 700 LINE"
);
},
{
closed = 1;
nodes = (
"196 354 LINE",
"467 354 LINE",
"467 373 LINE",
"204 373 LINE"
);
},
{
closed = 1;
nodes = (
"196 0 LINE",
"575 0 LINE",
"573 19 LINE",
"204 19 LINE"
);
},
{
closed = 1;
nodes = (
"467 470 LINE",
"461 470 LINE",
"418 373 LINE",
"467 364 LINE"
);
},
{
closed = 1;
nodes = (
"597 185 LINE",
"589 187 LINE",
"571 150 OFFCURVE",
"490 14 OFFCURVE",
"460 15 CURVE",
"575 0 LINE"
);
},
{
closed = 1;
nodes = (
"460 689 LINE",
"490 690 OFFCURVE",
"567 553 OFFCURVE",
"585 516 CURVE",
"591 516 LINE",
"575 703 LINE"
);
},
{
closed = 1;
nodes = (
"418 355 LINE",
"461 258 LINE",
"467 258 LINE",
"467 364 LINE"
);
}
);
width = 600;
},
{
layerId = "E6F0BB9C-0782-48C1-8D27-B7622AB80911";
paths = (
{
closed = 1;
nodes = (
"56 0 LINE",
"156 -1 LINE",
"280 700 LINE",
"180 700 LINE"
);
},
{
closed = 1;
nodes = (
"113 700 LINE",
"112 694 LINE",
"177 684 LINE",
"200 700 LINE"
);
},
{
closed = 1;
nodes = (
"397 353 LINE",
"402 277 LINE",
"408 282 LINE",
"421 353 LINE"
);
},
{
closed = 1;
nodes = (
"59 16 LINE",
"-10 6 LINE",
"-11 0 LINE",
"76 0 LINE"
);
},
{
closed = 1;
nodes = (
"223 0 LINE",
"224 6 LINE",
"159 16 LINE",
"136 0 LINE"
);
},
{
closed = 1;
nodes = (
"255 681 LINE",
"549 681 LINE",
"553 700 LINE",
"267 700 LINE"
);
},
{
closed = 1;
nodes = (
"198 349 LINE",
"421 353 LINE",
"424 372 LINE",
"209 368 LINE"
);
},
{
closed = 1;
nodes = (
"135 -1 LINE",
"445 -1 LINE",
"448 18 LINE",
"146 18 LINE"
);
},
{
closed = 1;
nodes = (
"495 684 LINE",
"506 671 OFFCURVE",
"566 584 OFFCURVE",
"568 568 CURVE",
"577 570 LINE",
"554 700 LINE"
);
},
{
closed = 1;
nodes = (
"436 445 LINE",
"431 449 LINE",
"400 371 LINE",
"424 372 LINE"
);
},
{
closed = 1;
nodes = (
"509 130 LINE",
"501 132 LINE",
"493 116 OFFCURVE",
"408 28 OFFCURVE",
"392 15 CURVE",
"445 -1 LINE"
);
},
{
closed = 1;
nodes = (
"311 767 OFFCURVE",
"407 866 OFFCURVE",
"407 871 CURVE",
"476 881 LINE",
"475 881 OFFCURVE",
"501 871 OFFCURVE",
"502 871 CURVE",
"502 870 LINE",
"307 734 LINE",
"287 736 LINE"
);
}
);
width = 600;
},
{
layerId = "4AEC2A2F-21E0-4005-B5C4-61417F12BD89";
paths = (
{
closed = 1;
nodes = (
"202 376 OFFCURVE",
"37 323 OFFCURVE",
"24 174 CURVE",
"38 70 OFFCURVE",
"136 -9 OFFCURVE",
"243 -8 CURVE",
"516 136 LINE",
"507 144 LINE",
"485 133 OFFCURVE",
"311 38 OFFCURVE",
"283 38 CURVE SMOOTH",
"216 38 OFFCURVE",
"135 118 OFFCURVE",
"143 218 CURVE SMOOTH",
"154 339 OFFCURVE",
"209 366 OFFCURVE",
"333 405 CURVE",
"327 415 LINE"
);
},
{
closed = 1;
nodes = (
"141 441 OFFCURVE",
"313 393 OFFCURVE",
"403 363 CURVE",
"404 373 LINE",
"338 406 OFFCURVE",
"232 472 OFFCURVE",
"232 589 CURVE SMOOTH",
"232 662 OFFCURVE",
"320 695 OFFCURVE",
"346 695 CURVE",
"432 667 OFFCURVE",
"486 580 OFFCURVE",
"510 550 CURVE",
"521 580 LINE",
"468 709 LINE",
"429 711 LINE",
"289 711 OFFCURVE",
"155 647 OFFCURVE",
"146 550 CURVE"
);
},
{
closed = 1;
nodes = (
"477 874 LINE",
"546 884 LINE",
"545 884 OFFCURVE",
"571 874 OFFCURVE",
"572 874 CURVE",
"572 873 LINE",
"350 739 LINE",
"338 749 LINE"
);
}
);
width = 600;
},
{
associatedMasterId = "33C692B7-ECA1-4228-A9DA-44701B454552";
layerId = "D8374064-0A1B-4C7C-ABB6-28D8469F3434";
width = 600;
},
{
associatedMasterId = "33C692B7-ECA1-4228-A9DA-44701B454552";
layerId = "63A61D1F-9C45-4792-A0E0-9E10E92945A7";
width = 600;
},
{
layerId = "6E858C87-3851-4F0D-A4B8-5C62800DDA3D";
width = 600;
}
);
unicode = 00C9;
},
{
glyphname = Egrave;
lastChange = "2018-08-22 08:04:48 +0000";
layers = (
{
components = (
{
name = gravecomb.case;
transform = "{1, 0, 0, 1, 50, 0}";
}
);
layerId = "33C692B7-ECA1-4228-A9DA-44701B454552";
paths = (
{
closed = 1;
nodes = (
"117 0 LINE",
"217 0 LINE",
"217 700 LINE",
"117 700 LINE"
);
},
{
closed = 1;
nodes = (
"30 700 LINE",
"30 694 LINE",
"117 674 LINE",
"137 700 LINE"
);
},
{
closed = 1;
nodes = (
"117 26 LINE",
"40 6 LINE",
"40 0 LINE",
"137 0 LINE"
);
},
{
closed = 1;
nodes = (
"284 0 LINE",
"284 6 LINE",
"217 16 LINE",
"197 0 LINE"
);
},
{
closed = 1;
nodes = (
"196 681 LINE",
"557 681 LINE",
"557 700 LINE",
"204 700 LINE"
);
},
{
closed = 1;
nodes = (
"196 354 LINE",
"467 354 LINE",
"467 373 LINE",
"204 373 LINE"
);
},
{
closed = 1;
nodes = (
"196 0 LINE",
"575 0 LINE",
"573 19 LINE",
"204 19 LINE"
);
},
{
closed = 1;
nodes = (
"467 470 LINE",
"461 470 LINE",
"418 373 LINE",
"467 364 LINE"
);
},
{
closed = 1;
nodes = (
"597 185 LINE",
"589 187 LINE",
"571 150 OFFCURVE",
"490 14 OFFCURVE",
"460 15 CURVE",
"575 0 LINE"
);
},
{
closed = 1;
nodes = (
"460 689 LINE",
"490 690 OFFCURVE",
"567 553 OFFCURVE",
"585 516 CURVE",
"591 516 LINE",
"575 703 LINE"
);
},
{
closed = 1;
nodes = (
"418 355 LINE",
"461 258 LINE",
"467 258 LINE",
"467 364 LINE"
);
}
);
width = 600;
},
{
layerId = "E6F0BB9C-0782-48C1-8D27-B7622AB80911";
paths = (
{
closed = 1;
nodes = (
"56 0 LINE",
"156 -1 LINE",
"280 700 LINE",
"180 700 LINE"
);
},
{
closed = 1;
nodes = (
"113 700 LINE",
"112 694 LINE",
"177 684 LINE",
"200 700 LINE"
);
},
{
closed = 1;
nodes = (
"397 353 LINE",
"402 277 LINE",
"408 282 LINE",
"421 353 LINE"
);
},
{
closed = 1;
nodes = (
"59 16 LINE",
"-10 6 LINE",
"-11 0 LINE",
"76 0 LINE"
);
},
{
closed = 1;
nodes = (
"223 0 LINE",
"224 6 LINE",
"159 16 LINE",
"136 0 LINE"
);
},
{
closed = 1;
nodes = (
"255 681 LINE",
"549 681 LINE",
"553 700 LINE",
"267 700 LINE"
);
},
{
closed = 1;
nodes = (
"198 349 LINE",
"421 353 LINE",
"424 372 LINE",
"209 368 LINE"
);
},
{
closed = 1;
nodes = (
"135 -1 LINE",
"445 -1 LINE",
"448 18 LINE",
"146 18 LINE"
);
},
{
closed = 1;
nodes = (
"495 684 LINE",
"506 671 OFFCURVE",
"566 584 OFFCURVE",
"568 568 CURVE",
"577 570 LINE",
"554 700 LINE"
);
},
{
closed = 1;
nodes = (
"436 445 LINE",
"431 449 LINE",
"400 371 LINE",
"424 372 LINE"
);
},
{
closed = 1;
nodes = (
"509 130 LINE",
"501 132 LINE",
"493 116 OFFCURVE",
"408 28 OFFCURVE",
"392 15 CURVE",
"445 -1 LINE"
);
},
{
closed = 1;
nodes = (
"402 734 LINE",
"207 870 LINE",
"207 871 LINE",
"208 871 OFFCURVE",
"234 881 OFFCURVE",
"233 881 CURVE",
"302 871 LINE",
"302 866 OFFCURVE",
"398 767 OFFCURVE",
"422 736 CURVE"
);
}
);
width = 600;
},
{
components = (
{
name = E;
},
{
name = gravecomb.case;
transform = "{1, 0, 0, 1, -120, 0}";
}
);
layerId = "4AEC2A2F-21E0-4005-B5C4-61417F12BD89";
width = 496;
},
{
associatedMasterId = "33C692B7-ECA1-4228-A9DA-44701B454552";
layerId = "D8374064-0A1B-4C7C-ABB6-28D8469F3434";
width = 600;
},
{
associatedMasterId = "33C692B7-ECA1-4228-A9DA-44701B454552";
layerId = "63A61D1F-9C45-4792-A0E0-9E10E92945A7";
width = 600;
},
{
layerId = "6E858C87-3851-4F0D-A4B8-5C62800DDA3D";
width = 600;
}
);
unicode = 00C8;
},
{
glyphname = F;
lastChange = "2018-08-22 08:20:32 +0000";
layers = (
{
layerId = "33C692B7-ECA1-4228-A9DA-44701B454552";
paths = (
{
closed = 1;
nodes = (
"107 0 LINE",
"207 0 LINE",
"207 700 LINE",
"107 700 LINE"
);
},
{
closed = 1;
nodes = (
"107 19 LINE",
"30 6 LINE",
"30 0 LINE",
"127 0 LINE"
);
},
{
closed = 1;
nodes = (
"324 0 LINE",
"324 6 LINE",
"207 19 LINE",
"187 0 LINE"
);
},
{
closed = 1;
nodes = (
"186 681 LINE",
"547 681 LINE",
"547 700 LINE",
"194 700 LINE"
);
},
{
closed = 1;
nodes = (
"186 322 LINE",
"457 322 LINE",
"457 341 LINE",
"194 341 LINE"
);
},
{
closed = 1;
nodes = (
"457 438 LINE",
"451 438 LINE",
"408 341 LINE",
"457 332 LINE"
);
},
{
closed = 1;
nodes = (
"450 689 LINE",
"480 690 OFFCURVE",
"557 553 OFFCURVE",
"575 516 CURVE",
"581 516 LINE",
"565 703 LINE"
);
},
{
closed = 1;
nodes = (
"408 323 LINE",
"451 226 LINE",
"457 226 LINE",
"457 332 LINE"
);
},
{
closed = 1;
nodes = (
"37 700 LINE",
"37 687 LINE",
"129 673 LINE",
"142 700 LINE"
);
}
);
width = 592;
},
{
layerId = "4AEC2A2F-21E0-4005-B5C4-61417F12BD89";
paths = (
{
closed = 1;
nodes = (
"63 0 LINE",
"163 0 LINE",
"372 700 LINE",
"272 700 LINE"
);
},
{
closed = 1;
nodes = (
"185 700 LINE",
"183 694 LINE",
"266 681 LINE",
"292 700 LINE"
);
},
{
closed = 1;
nodes = (
"68 19 LINE",
"-13 6 LINE",
"-14 0 LINE",
"83 0 LINE"
);
},
{
closed = 1;
nodes = (
"280 0 LINE",
"281 6 LINE",
"168 19 LINE",
"143 0 LINE"
);
},
{
closed = 1;
nodes = (
"345 681 LINE",
"641 681 LINE",
"647 700 LINE",
"359 700 LINE"
);
},
{
closed = 1;
nodes = (
"238 324 LINE",
"484 324 LINE",
"491 343 LINE",
"253 343 LINE"
);
},
{
closed = 1;
nodes = (
"520 440 LINE",
"514 440 LINE",
"442 343 LINE",
"488 334 LINE"
);
},
{
closed = 1;
nodes = (
"547 689 LINE",
"577 690 OFFCURVE",
"614 553 OFFCURVE",
"620 516 CURVE",
"626 516 LINE",
"666 703 LINE"
);
},
{
closed = 1;
nodes = (
"436 325 LINE",
"450 228 LINE",
"456 228 LINE",
"488 334 LINE"
);
}
);
width = 555;
},
{
layerId = "E6F0BB9C-0782-48C1-8D27-B7622AB80911";
paths = (
{
closed = 1;
nodes = (
"81 0 LINE",
"181 0 LINE",
"304 700 LINE",
"204 700 LINE"
);
},
{
closed = 1;
nodes = (
"117 700 LINE",
"116 694 LINE",
"201 681 LINE",
"224 700 LINE"
);
},
{
closed = 1;
nodes = (
"84 19 LINE",
"5 6 LINE",
"4 0 LINE",
"101 0 LINE"
);
},
{
closed = 1;
nodes = (
"298 0 LINE",
"299 6 LINE",
"184 19 LINE",
"161 0 LINE"
);
},
{
closed = 1;
nodes = (
"280 681 LINE",
"581 681 LINE",
"584 700 LINE",
"291 700 LINE"
);
},
{
closed = 1;
nodes = (
"217 324 LINE",
"468 324 LINE",
"472 343 LINE",
"229 343 LINE"
);
},
{
closed = 1;
nodes = (
"489 440 LINE",
"483 440 LINE",
"423 343 LINE",
"470 334 LINE"
);
},
{
closed = 1;
nodes = (
"486 689 LINE",
"516 690 OFFCURVE",
"569 553 OFFCURVE",
"580 516 CURVE",
"586 516 LINE",
"603 703 LINE"
);
},
{
closed = 1;
nodes = (
"419 325 LINE",
"445 228 LINE",
"451 228 LINE",
"470 334 LINE"
);
}
);
width = 551;
},
{
associatedMasterId = "33C692B7-ECA1-4228-A9DA-44701B454552";
layerId = "EB34AA33-F50C-4FD8-9B71-242498702479";
width = 600;
},
{
associatedMasterId = "33C692B7-ECA1-4228-A9DA-44701B454552";
layerId = "260799CA-1354-4986-AE02-6BB02FE3B1C6";
width = 600;
},
{
associatedMasterId = "33C692B7-ECA1-4228-A9DA-44701B454552";
layerId = "D8374064-0A1B-4C7C-ABB6-28D8469F3434";
width = 600;
},
{
associatedMasterId = "33C692B7-ECA1-4228-A9DA-44701B454552";
layerId = "63A61D1F-9C45-4792-A0E0-9E10E92945A7";
width = 600;
},
{
layerId = "6E858C87-3851-4F0D-A4B8-5C62800DDA3D";
width = 600;
}
);
unicode = 0046;
},
{
glyphname = G;
lastChange = "2018-08-22 08:20:32 +0000";
layers = (
{
layerId = "33C692B7-ECA1-4228-A9DA-44701B454552";
paths = (
{
closed = 1;
nodes = (
"20 136 OFFCURVE",
"165 -12 OFFCURVE",
"364 -13 CURVE",
"440 24 OFFCURVE",
"594 70 OFFCURVE",
"617 106 CURVE",
"604 114 LINE",
"580 79 OFFCURVE",
"474 42 OFFCURVE",
"405 42 CURVE SMOOTH",
"242 42 OFFCURVE",
"117 196 OFFCURVE",
"117 405 CURVE SMOOTH",
"117 545 OFFCURVE",
"230 688 OFFCURVE",
"350 688 CURVE SMOOTH",
"466 688 OFFCURVE",
"568 608 OFFCURVE",
"614 497 CURVE",
"621 498 LINE",
"599 678 LINE",
"551 700 OFFCURVE",
"444 712 OFFCURVE",
"378 712 CURVE",
"188 682 OFFCURVE",
"20 538 OFFCURVE",
"20 348 CURVE SMOOTH"
);
},
{
closed = 1;
nodes = (
"524 57 LINE",
"617 106 LINE",
"615 310 LINE",
"524 310 LINE"
);
},
{
closed = 1;
nodes = (
"426 310 LINE",
"426 304 LINE",
"524 274 LINE",
"562 310 LINE"
);
},
{
closed = 1;
nodes = (
"615 277 LINE",
"688 304 LINE",
"688 310 LINE",
"562 310 LINE"
);
}
);
width = 703;
},
{
layerId = "4AEC2A2F-21E0-4005-B5C4-61417F12BD89";
paths = (
{
closed = 1;
nodes = (
"219 677 OFFCURVE",
"22 440 OFFCURVE",
"22 209 CURVE SMOOTH",
"22 68 OFFCURVE",
"102 -12 OFFCURVE",
"190 -13 CURVE SMOOTH",
"255 -13 OFFCURVE",
"434 146 OFFCURVE",
"470 194 CURVE",
"459 202 LINE",
"425 167 OFFCURVE",
"323 54 OFFCURVE",
"261 43 CURVE",
"164 43 OFFCURVE",
"130 122 OFFCURVE",
"130 220 CURVE SMOOTH",
"130 415 OFFCURVE",
"255 688 OFFCURVE",
"416 688 CURVE SMOOTH",
"460 688 OFFCURVE",
"512 641 OFFCURVE",
"512 566 CURVE SMOOTH",
"512 544 OFFCURVE",
"507 521 OFFCURVE",
"498 495 CURVE",
"507 495 LINE SMOOTH",
"518 495 OFFCURVE",
"594 629 OFFCURVE",
"597 688 CURVE",
"555 705 OFFCURVE",
"497 712 OFFCURVE",
"451 712 CURVE"
);
},
{
closed = 1;
nodes = (
"349 293 LINE",
"347 285 LINE",
"449 285 LINE",
"500 307 LINE"
);
},
{
closed = 1;
nodes = (
"459 303 LINE",
"408 124 LINE",
"397 76 OFFCURVE",
"315 -133 OFFCURVE",
"300 -168 CURVE",
"296 -171 OFFCURVE",
"306 -171 OFFCURVE",
"293 -171 CURVE SMOOTH",
"243 -171 OFFCURVE",
"215 -180 OFFCURVE",
"124 -230 CURVE",
"124 -231 LINE SMOOTH",
"124 -239 OFFCURVE",
"188 -259 OFFCURVE",
"210 -258 CURVE",
"247 -258 OFFCURVE",
"433 -46 OFFCURVE",
"452 -6 CURVE",
"469 55 OFFCURVE",
"506 164 OFFCURVE",
"550 313 CURVE"
);
}
);
width = 557;
},
{
layerId = "E6F0BB9C-0782-48C1-8D27-B7622AB80911";
paths = (
{
closed = 1;
nodes = (
"20 473 OFFCURVE",
"20 256 CURVE",
"20 86 OFFCURVE",
"131 -12 OFFCURVE",
"218 -13 CURVE",
"301 15 OFFCURVE",
"447 106 OFFCURVE",
"477 154 CURVE",
"465 162 LINE",
"435 127 OFFCURVE",
"342 54 OFFCURVE",
"282 43 CURVE",
"175 43 OFFCURVE",
"126 158 OFFCURVE",
"126 281 CURVE",
"126 463 OFFCURVE",
"219 688 OFFCURVE",
"358 688 CURVE",
"443 688 OFFCURVE",
"501 586 OFFCURVE",
"523 495 CURVE",
"536 498 LINE",
"539 688 LINE",
"494 705 OFFCURVE",
"436 712 OFFCURVE",
"390 712 CURVE",
"185 679 OFFCURVE"
);
},
{
closed = 1;
nodes = (
"371 -130 LINE",
"467 -81 LINE",
"537 303 LINE",
"446 303 LINE"
);
},
{
closed = 1;
nodes = (
"348 303 LINE",
"347 295 LINE",
"440 285 LINE",
"484 303 LINE"
);
},
{
closed = 1;
nodes = (
"517 285 LINE",
"609 297 LINE",
"610 303 LINE",
"484 303 LINE"
);
}
);
width = 598;
},
{
associatedMasterId = "33C692B7-ECA1-4228-A9DA-44701B454552";
layerId = "EB34AA33-F50C-4FD8-9B71-242498702479";
width = 600;
},
{
associatedMasterId = "33C692B7-ECA1-4228-A9DA-44701B454552";
layerId = "260799CA-1354-4986-AE02-6BB02FE3B1C6";
width = 600;
},
{
associatedMasterId = "33C692B7-ECA1-4228-A9DA-44701B454552";
layerId = "D8374064-0A1B-4C7C-ABB6-28D8469F3434";
width = 600;
},
{
associatedMasterId = "33C692B7-ECA1-4228-A9DA-44701B454552";
layerId = "63A61D1F-9C45-4792-A0E0-9E10E92945A7";
width = 600;
},
{
layerId = "6E858C87-3851-4F0D-A4B8-5C62800DDA3D";
width = 600;
}
);
leftMetricsKey = O;
unicode = 0047;
},
{
glyphname = H;
lastChange = "2018-08-22 08:20:32 +0000";
layers = (
{
background = {
paths = (
{
closed = 1;
nodes = (
"110 653 LINE",
"110 47 LINE",
"20 34 LINE",
"25 -1 LINE",
"163 2 LINE",
"295 -1 LINE",
"300 34 LINE",
"215 47 LINE",
"215 338 LINE",
"535 338 LINE",
"535 47 LINE",
"445 34 LINE",
"450 -1 LINE",
"588 2 LINE",
"720 -1 LINE",
"725 34 LINE",
"640 47 LINE",
"640 653 LINE",
"725 666 LINE",
"720 701 LINE",
"588 698 LINE",
"450 701 LINE",
"445 666 LINE",
"535 653 LINE",
"535 388 LINE",
"215 388 LINE",
"215 653 LINE",
"300 666 LINE",
"295 701 LINE",
"163 698 LINE",
"25 701 LINE",
"20 666 LINE"
);
}
);
};
layerId = "33C692B7-ECA1-4228-A9DA-44701B454552";
paths = (
{
closed = 1;
nodes = (
"97 0 LINE",
"197 0 LINE",
"197 700 LINE",
"97 700 LINE"
);
},
{
closed = 1;
nodes = (
"30 700 LINE",
"30 694 LINE",
"97 684 LINE",
"117 700 LINE"
);
},
{
closed = 1;
nodes = (
"197 684 LINE",
"256 694 LINE",
"256 700 LINE",
"169 700 LINE"
);
},
{
closed = 1;
nodes = (
"454 700 LINE",
"454 694 LINE",
"521 684 LINE",
"541 700 LINE"
);
},
{
closed = 1;
nodes = (
"611 684 LINE",
"678 694 LINE",
"678 700 LINE",
"591 700 LINE"
);
},
{
closed = 1;
nodes = (
"97 16 LINE",
"30 6 LINE",
"30 0 LINE",
"117 0 LINE"
);
},
{
closed = 1;
nodes = (
"264 0 LINE",
"264 6 LINE",
"197 16 LINE",
"177 0 LINE"
);
},
{
closed = 1;
nodes = (
"512 16 LINE",
"445 6 LINE",
"445 0 LINE",
"532 0 LINE"
);
},
{
closed = 1;
nodes = (
"677 0 LINE",
"677 6 LINE",
"610 16 LINE",
"590 0 LINE"
);
},
{
closed = 1;
nodes = (
"519 700 LINE",
"511 0 LINE",
"611 0 LINE",
"611 700 LINE"
);
},
{
closed = 1;
nodes = (
"176 351 LINE",
"528 351 LINE",
"528 370 LINE",
"184 370 LINE"
);
}
);
width = 708;
},
{
layerId = "4AEC2A2F-21E0-4005-B5C4-61417F12BD89";
paths = (
{
closed = 1;
nodes = (
"194 351 LINE",
"546 351 LINE",
"551 370 LINE",
"207 370 LINE"
);
},
{
closed = 1;
nodes = (
"44 2 LINE",
"98 -1 OFFCURVE",
"153 1 OFFCURVE",
"207 0 CURVE",
"209 6 LINE",
"135 16 LINE",
"334 684 LINE",
"406 694 LINE",
"408 700 LINE",
"162 700 LINE",
"160 694 LINE",
"234 684 LINE",
"35 15 LINE",
"-45 6 LINE",
"-47 0 LINE"
);
},
{
closed = 1;
nodes = (
"384 2 LINE",
"438 -1 OFFCURVE",
"493 1 OFFCURVE",
"547 0 CURVE",
"549 6 LINE",
"475 16 LINE",
"674 684 LINE",
"746 694 LINE",
"748 700 LINE",
"502 700 LINE",
"500 694 LINE",
"574 684 LINE",
"375 15 LINE",
"295 6 LINE",
"293 0 LINE"
);
}
);
width = 628;
},
{
layerId = "E6F0BB9C-0782-48C1-8D27-B7622AB80911";
paths = (
{
closed = 1;
nodes = (
"56 0 LINE",
"156 0 LINE",
"279 700 LINE",
"179 700 LINE"
);
},
{
closed = 1;
nodes = (
"112 700 LINE",
"111 694 LINE",
"177 684 LINE",
"199 700 LINE"
);
},
{
closed = 1;
nodes = (
"277 684 LINE",
"337 694 LINE",
"338 700 LINE",
"251 700 LINE"
);
},
{
closed = 1;
nodes = (
"465 700 LINE",
"464 694 LINE",
"530 684 LINE",
"552 700 LINE"
);
},
{
closed = 1;
nodes = (
"620 684 LINE",
"688 694 LINE",
"689 700 LINE",
"602 700 LINE"
);
},
{
closed = 1;
nodes = (
"59 16 LINE",
"-10 6 LINE",
"-11 0 LINE",
"76 0 LINE"
);
},
{
closed = 1;
nodes = (
"223 0 LINE",
"224 6 LINE",
"159 16 LINE",
"136 0 LINE"
);
},
{
closed = 1;
nodes = (
"403 16 LINE",
"334 6 LINE",
"333 0 LINE",
"420 0 LINE"
);
},
{
closed = 1;
nodes = (
"565 0 LINE",
"566 6 LINE",
"501 16 LINE",
"478 0 LINE"
);
},
{
closed = 1;
nodes = (
"530 700 LINE",
"399 0 LINE",
"499 0 LINE",
"622 700 LINE"
);
},
{
closed = 1;
nodes = (
"197 351 LINE",
"549 351 LINE",
"552 370 LINE",
"208 370 LINE"
);
}
);
width = 607;
},
{
associatedMasterId = "33C692B7-ECA1-4228-A9DA-44701B454552";
layerId = "EB34AA33-F50C-4FD8-9B71-242498702479";
paths = (
{
closed = 1;
nodes = (
"14 0 LINE",
"114 0 LINE",
"180 359 LINE",
"172 359 LINE",
"228 700 LINE",
"136 700 LINE"
);
},
{
closed = 1;
nodes = (
"143 346 LINE",
"485 346 LINE",
"487 359 LINE",
"145 359 LINE"
);
},
{
closed = 1;
nodes = (
"79 700 LINE",
"78 694 LINE",
"130 667 LINE",
"156 700 LINE"
);
},
{
closed = 1;
nodes = (
"222 667 LINE",
"284 694 LINE",
"285 700 LINE",
"208 700 LINE"
);
},
{
closed = 1;
nodes = (
"469 700 LINE",
"468 694 LINE",
"520 667 LINE",
"546 700 LINE"
);
},
{
closed = 1;
nodes = (
"610 667 LINE",
"672 694 LINE",
"673 700 LINE",
"596 700 LINE"
);
},
{
closed = 1;
nodes = (
"20 33 LINE",
"-42 6 LINE",
"-43 0 LINE",
"34 0 LINE"
);
},
{
closed = 1;
nodes = (
"171 0 LINE",
"172 6 LINE",
"120 33 LINE",
"94 0 LINE"
);
},
{
closed = 1;
nodes = (
"401 33 LINE",
"339 6 LINE",
"338 0 LINE",
"415 0 LINE"
);
},
{
closed = 1;
nodes = (
"550 0 LINE",
"551 6 LINE",
"499 33 LINE",
"473 0 LINE"
);
},
{
closed = 1;
nodes = (
"524 700 LINE",
"468 346 LINE",
"460 346 LINE",
"394 0 LINE",
"494 0 LINE",
"616 700 LINE"
);
}
);
width = 600;
},
{
associatedMasterId = "33C692B7-ECA1-4228-A9DA-44701B454552";
layerId = "260799CA-1354-4986-AE02-6BB02FE3B1C6";
paths = (
{
closed = 1;
nodes = (
"14 0 LINE",
"114 0 LINE",
"180 359 LINE",
"172 359 LINE",
"228 700 LINE",
"136 700 LINE"
);
},
{
closed = 1;
nodes = (
"143 346 LINE",
"485 346 LINE",
"487 359 LINE",
"145 359 LINE"
);
},
{
closed = 1;
nodes = (
"79 700 LINE",
"78 694 LINE",
"130 667 LINE",
"156 700 LINE"
);
},
{
closed = 1;
nodes = (
"222 667 LINE",
"284 694 LINE",
"285 700 LINE",
"208 700 LINE"
);
},
{
closed = 1;
nodes = (
"469 700 LINE",
"468 694 LINE",
"520 667 LINE",
"546 700 LINE"
);
},
{
closed = 1;
nodes = (
"610 667 LINE",
"672 694 LINE",
"673 700 LINE",
"596 700 LINE"
);
},
{
closed = 1;
nodes = (
"20 33 LINE",
"-42 6 LINE",
"-43 0 LINE",
"34 0 LINE"
);
},
{
closed = 1;
nodes = (
"171 0 LINE",
"172 6 LINE",
"120 33 LINE",
"94 0 LINE"
);
},
{
closed = 1;
nodes = (
"401 33 LINE",
"339 6 LINE",
"338 0 LINE",
"415 0 LINE"
);
},
{
closed = 1;
nodes = (
"550 0 LINE",
"551 6 LINE",
"499 33 LINE",
"473 0 LINE"
);
},
{
closed = 1;
nodes = (
"524 700 LINE",
"468 346 LINE",
"460 346 LINE",
"394 0 LINE",
"494 0 LINE",
"616 700 LINE"
);
}
);
width = 600;
},
{
associatedMasterId = "33C692B7-ECA1-4228-A9DA-44701B454552";
layerId = "D8374064-0A1B-4C7C-ABB6-28D8469F3434";
width = 600;
},
{
associatedMasterId = "33C692B7-ECA1-4228-A9DA-44701B454552";
layerId = "63A61D1F-9C45-4792-A0E0-9E10E92945A7";
width = 600;
},
{
layerId = "6E858C87-3851-4F0D-A4B8-5C62800DDA3D";
width = 600;
}
);
unicode = 0048;
},
{
glyphname = I;
lastChange = "2018-08-22 08:20:32 +0000";
layers = (
{
layerId = "33C692B7-ECA1-4228-A9DA-44701B454552";
paths = (
{
closed = 1;
nodes = (
"97 0 LINE",
"197 0 LINE",
"197 700 LINE",
"97 700 LINE"
);
},
{
closed = 1;
nodes = (
"30 700 LINE",
"30 694 LINE",
"97 684 LINE",
"117 700 LINE"
);
},
{
closed = 1;
nodes = (
"197 684 LINE",
"256 694 LINE",
"256 700 LINE",
"169 700 LINE"
);
},
{
closed = 1;
nodes = (
"97 16 LINE",
"30 6 LINE",
"30 0 LINE",
"117 0 LINE"
);
},
{
closed = 1;
nodes = (
"264 0 LINE",
"264 6 LINE",
"197 16 LINE",
"177 0 LINE"
);
}
);
width = 294;
},
{
background = {
paths = (
{
closed = 1;
nodes = (
"30 0 LINE",
"130 0 LINE",
"339 700 LINE",
"282 700 LINE",
"239 700 LINE"
);
},
{
closed = 1;
nodes = (
"162 700 LINE",
"160 694 LINE",
"234 684 LINE",
"259 700 LINE"
);
},
{
closed = 1;
nodes = (
"334 684 LINE",
"406 694 LINE",
"408 700 LINE",
"311 700 LINE"
);
},
{
closed = 1;
nodes = (
"34 16 LINE",
"-45 6 LINE",
"-47 0 LINE",
"50 0 LINE"
);
},
{
closed = 1;
nodes = (
"207 0 LINE",
"209 6 LINE",
"134 16 LINE",
"110 0 LINE"
);
}
);
};
layerId = "4AEC2A2F-21E0-4005-B5C4-61417F12BD89";
paths = (
{
closed = 1;
nodes = (
"44 2 LINE",
"98 -1 OFFCURVE",
"153 1 OFFCURVE",
"207 0 CURVE",
"209 6 LINE",
"135 16 LINE",
"334 684 LINE",
"406 694 LINE",
"408 700 LINE",
"162 700 LINE",
"160 694 LINE",
"234 684 LINE",
"35 15 LINE",
"-45 6 LINE",
"-47 0 LINE"
);
}
);
width = 299;
},
{
layerId = "E6F0BB9C-0782-48C1-8D27-B7622AB80911";
paths = (
{
closed = 1;
nodes = (
"56 0 LINE",
"156 0 LINE",
"279 700 LINE",
"179 700 LINE"
);
},
{
closed = 1;
nodes = (
"112 700 LINE",
"111 694 LINE",
"176 684 LINE",
"199 700 LINE"
);
},
{
closed = 1;
nodes = (
"276 684 LINE",
"337 694 LINE",
"338 700 LINE",
"251 700 LINE"
);
},
{
closed = 1;
nodes = (
"58 16 LINE",
"-10 6 LINE",
"-11 0 LINE",
"76 0 LINE"
);
},
{
closed = 1;
nodes = (
"223 0 LINE",
"224 6 LINE",
"158 16 LINE",
"136 0 LINE"
);
}
);
width = 254;
},
{
associatedMasterId = "33C692B7-ECA1-4228-A9DA-44701B454552";
layerId = "EB34AA33-F50C-4FD8-9B71-242498702479";
width = 600;
},
{
associatedMasterId = "33C692B7-ECA1-4228-A9DA-44701B454552";
layerId = "260799CA-1354-4986-AE02-6BB02FE3B1C6";
width = 600;
},
{
associatedMasterId = "33C692B7-ECA1-4228-A9DA-44701B454552";
layerId = "D8374064-0A1B-4C7C-ABB6-28D8469F3434";
width = 600;
},
{
associatedMasterId = "33C692B7-ECA1-4228-A9DA-44701B454552";
layerId = "63A61D1F-9C45-4792-A0E0-9E10E92945A7";
width = 600;
},
{
layerId = "6E858C87-3851-4F0D-A4B8-5C62800DDA3D";
width = 600;
}
);
leftMetricsKey = H;
unicode = 0049;
},
{
glyphname = Iacute;
lastChange = "2018-08-22 08:20:32 +0000";
layers = (
{
components = (
{
name = acutecomb.case;
transform = "{1, 0, 0, 1, -178, 0}";
}
);
layerId = "33C692B7-ECA1-4228-A9DA-44701B454552";
paths = (
{
closed = 1;
nodes = (
"97 0 LINE",
"197 0 LINE",
"197 700 LINE",
"97 700 LINE"
);
},
{
closed = 1;
nodes = (
"30 700 LINE",
"30 694 LINE",
"97 684 LINE",
"117 700 LINE"
);
},
{
closed = 1;
nodes = (
"197 684 LINE",
"256 694 LINE",
"256 700 LINE",
"169 700 LINE"
);
},
{
closed = 1;
nodes = (
"97 16 LINE",
"30 6 LINE",
"30 0 LINE",
"117 0 LINE"
);
},
{
closed = 1;
nodes = (
"264 0 LINE",
"264 6 LINE",
"197 16 LINE",
"177 0 LINE"
);
}
);
width = 341;
},
{
components = (
{
name = acutecomb.case;
transform = "{1, 0, 0, 1, -100, 0}";
}
);
layerId = "E6F0BB9C-0782-48C1-8D27-B7622AB80911";
paths = (
{
closed = 1;
nodes = (
"56 0 LINE",
"156 0 LINE",
"279 700 LINE",
"179 700 LINE"
);
},
{
closed = 1;
nodes = (
"112 700 LINE",
"111 694 LINE",
"176 684 LINE",
"199 700 LINE"
);
},
{
closed = 1;
nodes = (
"276 684 LINE",
"337 694 LINE",
"338 700 LINE",
"251 700 LINE"
);
},
{
closed = 1;
nodes = (
"58 16 LINE",
"-10 6 LINE",
"-11 0 LINE",
"76 0 LINE"
);
},
{
closed = 1;
nodes = (
"223 0 LINE",
"224 6 LINE",
"158 16 LINE",
"136 0 LINE"
);
}
);
width = 291;
},
{
components = (
{
name = acutecomb.case;
transform = "{1, 0, 0, 1, -30, 0}";
}
);
layerId = "4AEC2A2F-21E0-4005-B5C4-61417F12BD89";
paths = (
{
closed = 1;
nodes = (
"44 2 LINE",
"98 -1 OFFCURVE",
"153 1 OFFCURVE",
"207 0 CURVE",
"209 6 LINE",
"135 16 LINE",
"334 684 LINE",
"406 694 LINE",
"408 700 LINE",
"162 700 LINE",
"160 694 LINE",
"234 684 LINE",
"35 15 LINE",
"-45 6 LINE",
"-47 0 LINE"
);
}
);
width = 325;
},
{
associatedMasterId = "33C692B7-ECA1-4228-A9DA-44701B454552";
layerId = "D8374064-0A1B-4C7C-ABB6-28D8469F3434";
width = 600;
},
{
associatedMasterId = "33C692B7-ECA1-4228-A9DA-44701B454552";
layerId = "63A61D1F-9C45-4792-A0E0-9E10E92945A7";
width = 600;
},
{
layerId = "6E858C87-3851-4F0D-A4B8-5C62800DDA3D";
width = 600;
}
);
leftMetricsKey = I;
rightMetricsKey = I;
unicode = 00CD;
},
{
glyphname = J;
lastChange = "2018-08-22 08:20:32 +0000";
layers = (
{
layerId = "33C692B7-ECA1-4228-A9DA-44701B454552";
paths = (
{
closed = 1;
nodes = (
"152 699 LINE",
"147 -176 LINE",
"144 -202 OFFCURVE",
"125 -216 OFFCURVE",
"92 -216 CURVE SMOOTH",
"67 -216 OFFCURVE",
"33 -197 OFFCURVE",
"1 -172 CURVE",
"-60 -233 LINE",
"-35 -254 OFFCURVE",
"10 -271 OFFCURVE",
"56 -274 CURVE",
"123 -271 OFFCURVE",
"252 -96 OFFCURVE",
"252 -12 CURVE SMOOTH",
"252 699 LINE"
);
},
{
closed = 1;
nodes = (
"233 669 LINE",
"358 691 LINE",
"358 700 LINE",
"210 699 LINE"
);
},
{
closed = 1;
nodes = (
"52 700 LINE",
"52 691 LINE",
"187 669 LINE",
"210 699 LINE"
);
}
);
width = 361;
},
{
background = {
paths = (
{
closed = 1;
nodes = (
"386 668 OFFCURVE",
"348 700 OFFCURVE",
"319 700 CURVE",
"230 407 OFFCURVE",
"141 115 OFFCURVE",
"52 -178 CURVE",
"41 -204 OFFCURVE",
"18 -216 OFFCURVE",
"-15 -216 CURVE",
"-40 -216 OFFCURVE",
"-68 -197 OFFCURVE",
"-93 -172 CURVE",
"-173 -233 LINE",
"-153 -254 OFFCURVE",
"-113 -271 OFFCURVE",
"-69 -274 CURVE",
"0 -271 OFFCURVE",
"181 -96 OFFCURVE",
"206 -12 CURVE",
"206 15 OFFCURVE",
"403 602 OFFCURVE",
"403 643 CURVE"
);
}
);
};
layerId = "4AEC2A2F-21E0-4005-B5C4-61417F12BD89";
paths = (
{
closed = 1;
nodes = (
"295 654 LINE",
"295 618 OFFCURVE",
"59 -154 OFFCURVE",
"52 -178 CURVE",
"41 -204 OFFCURVE",
"18 -216 OFFCURVE",
"-15 -216 CURVE SMOOTH",
"-40 -216 OFFCURVE",
"-68 -197 OFFCURVE",
"-93 -172 CURVE",
"-173 -233 LINE",
"-153 -254 OFFCURVE",
"-113 -271 OFFCURVE",
"-69 -274 CURVE",
"0 -271 OFFCURVE",
"180 -96 OFFCURVE",
"205 -12 CURVE SMOOTH",
"415 690 LINE",
"399 700 LINE"
);
},
{
closed = 1;
nodes = (
"140 586 LINE",
"146 574 LINE",
"409 686 LINE",
"399 700 LINE"
);
}
);
width = 311;
},
{
layerId = "E6F0BB9C-0782-48C1-8D27-B7622AB80911";
paths = (
{
closed = 1;
nodes = (
"224 699 LINE",
"65 -178 LINE",
"57 -204 OFFCURVE",
"35 -216 OFFCURVE",
"2 -216 CURVE",
"-23 -216 OFFCURVE",
"-53 -197 OFFCURVE",
"-81 -172 CURVE",
"-153 -233 LINE",
"-131 -254 OFFCURVE",
"-89 -271 OFFCURVE",
"-44 -274 CURVE",
"24 -271 OFFCURVE",
"179 -96 OFFCURVE",
"193 -12 CURVE",
"319 699 LINE"
);
},
{
closed = 1;
nodes = (
"124 700 LINE",
"122 691 LINE",
"254 669 LINE",
"282 699 LINE"
);
}
);
width = 307;
},
{
associatedMasterId = "33C692B7-ECA1-4228-A9DA-44701B454552";
layerId = "EB34AA33-F50C-4FD8-9B71-242498702479";
width = 600;
},
{
associatedMasterId = "33C692B7-ECA1-4228-A9DA-44701B454552";
layerId = "260799CA-1354-4986-AE02-6BB02FE3B1C6";
width = 600;
},
{
associatedMasterId = "33C692B7-ECA1-4228-A9DA-44701B454552";
layerId = "D8374064-0A1B-4C7C-ABB6-28D8469F3434";
width = 600;
},
{
associatedMasterId = "33C692B7-ECA1-4228-A9DA-44701B454552";
layerId = "63A61D1F-9C45-4792-A0E0-9E10E92945A7";
width = 600;
},
{
layerId = "6E858C87-3851-4F0D-A4B8-5C62800DDA3D";
width = 600;
}
);
unicode = 004A;
},
{
glyphname = K;
lastChange = "2018-08-22 08:20:32 +0000";
layers = (
{
layerId = "33C692B7-ECA1-4228-A9DA-44701B454552";
paths = (
{
closed = 1;
nodes = (
"92 16 LINE",
"30 5 LINE",
"30 0 LINE",
"252 0 LINE",
"252 5 LINE",
"190 16 LINE"
);
},
{
closed = 1;
nodes = (
"186 279 LINE",
"544 700 LINE",
"515 700 LINE",
"180 303 LINE"
);
},
{
closed = 1;
nodes = (
"479 16 LINE",
"591 14 LINE",
"322 452 LINE",
"249 382 LINE"
);
},
{
closed = 1;
nodes = (
"191 7 LINE",
"186 303 LINE",
"174 303 LINE",
"198 699 LINE",
"30 700 LINE",
"30 694 LINE",
"97 682 LINE",
"91 7 LINE"
);
},
{
closed = 1;
nodes = (
"479 16 LINE",
"486 0 LINE",
"658 0 LINE",
"658 5 LINE",
"592 16 LINE"
);
},
{
closed = 1;
nodes = (
"188 682 LINE",
"263 691 LINE",
"263 700 LINE",
"165 699 LINE"
);
},
{
closed = 1;
nodes = (
"521 674 LINE",
"602 694 LINE",
"602 700 LINE",
"503 700 LINE"
);
},
{
closed = 1;
nodes = (
"412 700 LINE",
"412 694 LINE",
"505 674 LINE",
"525 700 LINE"
);
}
);
width = 645;
},
{
layerId = "4AEC2A2F-21E0-4005-B5C4-61417F12BD89";
paths = (
{
closed = 1;
nodes = (
"103 0 LINE",
"113 23 LINE",
"97 23 LINE",
"372 742 LINE",
"369 747 OFFCURVE",
"365 754 OFFCURVE",
"359 758 CURVE",
"156 680 LINE",
"159 672 LINE",
"262 708 LINE",
"-9 -3 LINE"
);
},
{
closed = 1;
nodes = (
"110 16 LINE",
"285 400 OFFCURVE",
"523 687 OFFCURVE",
"546 687 CURVE",
"704 713 LINE",
"704 740 LINE SMOOTH",
"704 760 OFFCURVE",
"662 781 OFFCURVE",
"620 780 CURVE",
"574 771 OFFCURVE",
"264 440 OFFCURVE",
"100 16 CURVE"
);
},
{
closed = 1;
nodes = (
"285 260 OFFCURVE",
"382 -26 OFFCURVE",
"445 -26 CURVE",
"593 61 LINE",
"589 67 LINE",
"532 38 LINE",
"458 38 OFFCURVE",
"369 360 OFFCURVE",
"369 374 CURVE",
"353 368 OFFCURVE",
"312 361 OFFCURVE",
"292 361 CURVE",
"285 348 LINE"
);
}
);
width = 555;
},
{
layerId = "E6F0BB9C-0782-48C1-8D27-B7622AB80911";
paths = (
{
closed = 1;
nodes = (
"574 680 LINE",
"596 680 LINE",
"662 694 LINE",
"663 700 LINE",
"510 700 LINE",
"509 694 LINE"
);
},
{
closed = 1;
nodes = (
"201 257 LINE",
"281 311 LINE",
"602 686 LINE",
"578 686 LINE",
"270 330 LINE",
"198 272 LINE"
);
},
{
closed = 1;
nodes = (
"441 0 LINE",
"535 0 LINE",
"609 51 LINE",
"606 56 LINE",
"547 26 LINE",
"517 26 OFFCURVE",
"369 289 OFFCURVE",
"369 313 CURVE",
"275 330 LINE",
"260 300 LINE"
);
},
{
closed = 1;
nodes = (
"147 1 LINE",
"204 272 LINE",
"192 272 LINE",
"272 699 LINE",
"112 700 LINE",
"111 694 LINE",
"176 682 LINE",
"62 19 LINE",
"-9 7 LINE",
"-10 1 LINE"
);
},
{
closed = 1;
nodes = (
"259 682 LINE",
"336 691 LINE",
"337 700 LINE",
"239 699 LINE"
);
}
);
width = 601;
},
{
associatedMasterId = "33C692B7-ECA1-4228-A9DA-44701B454552";
layerId = "EB34AA33-F50C-4FD8-9B71-242498702479";
width = 600;
},
{
associatedMasterId = "33C692B7-ECA1-4228-A9DA-44701B454552";
layerId = "260799CA-1354-4986-AE02-6BB02FE3B1C6";
width = 600;
},
{
associatedMasterId = "33C692B7-ECA1-4228-A9DA-44701B454552";
layerId = "D8374064-0A1B-4C7C-ABB6-28D8469F3434";
width = 600;
},
{
associatedMasterId = "33C692B7-ECA1-4228-A9DA-44701B454552";
layerId = "63A61D1F-9C45-4792-A0E0-9E10E92945A7";
width = 600;
},
{
layerId = "6E858C87-3851-4F0D-A4B8-5C62800DDA3D";
width = 600;
}
);
leftMetricsKey = H;
unicode = 004B;
},
{
glyphname = L;
lastChange = "2018-08-22 08:20:32 +0000";
layers = (
{
background = {
paths = (
{
closed = 1;
nodes = (
"574 0 LINE",
"574 192 LINE",
"564 192 LINE",
"491 16 LINE",
"238 16 LINE",
"238 684 LINE",
"317 690 LINE",
"317 700 LINE",
"52 700 LINE",
"52 690 LINE",
"131 684 LINE",
"131 16 LINE",
"52 10 LINE",
"52 0 LINE"
);
}
);
};
layerId = "33C692B7-ECA1-4228-A9DA-44701B454552";
paths = (
{
closed = 1;
nodes = (
"230 0 LINE",
"237 699 LINE",
"49 700 LINE",
"49 694 LINE",
"136 679 LINE",
"130 0 LINE"
);
},
{
closed = 1;
nodes = (
"227 679 LINE",
"322 691 LINE",
"322 700 LINE",
"204 699 LINE"
);
},
{
closed = 1;
nodes = (
"51 0 LINE",
"562 0 LINE",
"562 13 LINE",
"231 15 LINE",
"131 20 LINE",
"51 8 LINE"
);
},
{
closed = 1;
nodes = (
"577 185 LINE",
"569 187 LINE",
"551 150 OFFCURVE",
"477 13 OFFCURVE",
"447 14 CURVE",
"562 0 LINE"
);
}
);
width = 584;
},
{
layerId = "4AEC2A2F-21E0-4005-B5C4-61417F12BD89";
paths = (
{
closed = 1;
nodes = (
"139 0 LINE",
"360 699 LINE",
"172 700 LINE",
"170 694 LINE",
"253 679 LINE",
"39 0 LINE"
);
},
{
closed = 1;
nodes = (
"344 679 LINE",
"442 691 LINE",
"445 700 LINE",
"327 699 LINE"
);
},
{
closed = 1;
nodes = (
"-40 0 LINE",
"441 0 LINE",
"445 13 LINE",
"145 15 LINE",
"46 20 LINE",
"-38 8 LINE"
);
},
{
closed = 1;
nodes = (
"513 185 LINE",
"505 187 LINE",
"476 150 OFFCURVE",
"360 13 OFFCURVE",
"330 14 CURVE",
"441 0 LINE"
);
}
);
width = 513;
},
{
layerId = "E6F0BB9C-0782-48C1-8D27-B7622AB80911";
paths = (
{
closed = 1;
nodes = (
"175 0 LINE",
"305 699 LINE",
"117 700 LINE",
"116 694 LINE",
"200 679 LINE",
"75 0 LINE"
);
},
{
closed = 1;
nodes = (
"291 679 LINE",
"388 691 LINE",
"390 700 LINE",
"272 699 LINE"
);
},
{
closed = 1;
nodes = (
"-4 0 LINE",
"487 0 LINE",
"489 13 LINE",
"178 15 LINE",
"79 20 LINE",
"-3 8 LINE"
);
},
{
closed = 1;
nodes = (
"534 185 LINE",
"527 187 LINE",
"502 150 OFFCURVE",
"404 13 OFFCURVE",
"374 14 CURVE",
"487 0 LINE"
);
}
);
width = 548;
},
{
associatedMasterId = "33C692B7-ECA1-4228-A9DA-44701B454552";
layerId = "EB34AA33-F50C-4FD8-9B71-242498702479";
width = 600;
},
{
associatedMasterId = "33C692B7-ECA1-4228-A9DA-44701B454552";
layerId = "260799CA-1354-4986-AE02-6BB02FE3B1C6";
width = 600;
},
{
layerId = "6E858C87-3851-4F0D-A4B8-5C62800DDA3D";
width = 600;
},
{
associatedMasterId = "33C692B7-ECA1-4228-A9DA-44701B454552";
layerId = "D8374064-0A1B-4C7C-ABB6-28D8469F3434";
width = 600;
},
{
associatedMasterId = "33C692B7-ECA1-4228-A9DA-44701B454552";
layerId = "63A61D1F-9C45-4792-A0E0-9E10E92945A7";
width = 600;
}
);
unicode = 004C;
},
{
glyphname = M;
lastChange = "2018-08-22 08:20:32 +0000";
layers = (
{
background = {
paths = (
{
closed = 1;
nodes = (
"645 16 LINE",
"575 10 LINE",
"575 0 LINE",
"832 0 LINE",
"832 10 LINE",
"752 16 LINE",
"752 684 LINE",
"832 690 LINE",
"832 700 LINE",
"642 700 LINE",
"422 107 LINE",
"185 700 LINE",
"-11 700 LINE",
"-11 690 LINE",
"68 684 LINE",
"68 16 LINE",
"-11 10 LINE",
"-11 0 LINE",
"158 0 LINE",
"158 10 LINE",
"83 16 LINE",
"83 672 LINE",
"345 -5 LINE",
"398 -5 LINE",
"645 663 LINE"
);
}
);
};
layerId = "33C692B7-ECA1-4228-A9DA-44701B454552";
paths = (
{
closed = 1;
nodes = (
"443 -2 LINE",
"482 120 LINE",
"478 153 LINE",
"245 703 LINE",
"151 700 LINE",
"132 700 LINE",
"426 -2 LINE"
);
},
{
closed = 1;
nodes = (
"117 0 LINE",
"148 0 LINE",
"147 700 LINE",
"121 700 LINE"
);
},
{
closed = 1;
nodes = (
"424 20 LINE",
"443 -2 LINE",
"735 700 LINE",
"709 700 LINE"
);
},
{
closed = 1;
nodes = (
"817 0 LINE",
"808 700 LINE",
"755 700 LINE",
"709 702 LINE",
"719 0 LINE"
);
},
{
closed = 1;
nodes = (
"33 700 LINE",
"33 687 LINE",
"125 673 LINE",
"138 700 LINE"
);
},
{
closed = 1;
nodes = (
"796 673 LINE",
"888 687 LINE",
"888 700 LINE",
"785 700 LINE"
);
},
{
closed = 1;
nodes = (
"720 18 LINE",
"641 6 LINE",
"641 0 LINE",
"740 0 LINE"
);
},
{
closed = 1;
nodes = (
"895 0 LINE",
"895 6 LINE",
"817 18 LINE",
"795 0 LINE"
);
},
{
closed = 1;
nodes = (
"25 0 LINE",
"249 0 LINE",
"249 6 LINE",
"148 24 LINE",
"118 23 LINE",
"25 6 LINE"
);
}
);
width = 920;
},
{
layerId = "4AEC2A2F-21E0-4005-B5C4-61417F12BD89";
paths = (
{
closed = 1;
nodes = (
"334 -2 LINE",
"411 120 LINE",
"417 174 LINE",
"387 704 LINE",
"292 700 LINE",
"273 700 LINE",
"317 -2 LINE"
);
},
{
closed = 1;
nodes = (
"42 0 LINE",
"73 0 LINE",
"286 700 LINE",
"260 700 LINE"
);
},
{
closed = 1;
nodes = (
"322 20 LINE",
"334 -2 LINE",
"811 700 LINE",
"785 700 LINE"
);
},
{
closed = 1;
nodes = (
"681 0 LINE",
"886 700 LINE",
"831 700 LINE",
"786 702 LINE",
"581 0 LINE"
);
},
{
closed = 1;
nodes = (
"172 700 LINE",
"168 687 LINE",
"256 673 LINE",
"277 700 LINE"
);
},
{
closed = 1;
nodes = (
"866 674 LINE",
"962 693 LINE",
"966 700 LINE",
"861 700 LINE"
);
},
{
closed = 1;
nodes = (
"590 18 LINE",
"507 6 LINE",
"505 0 LINE",
"604 0 LINE"
);
},
{
closed = 1;
nodes = (
"759 0 LINE",
"761 6 LINE",
"689 18 LINE",
"659 0 LINE"
);
},
{
closed = 1;
nodes = (
"-50 0 LINE",
"174 0 LINE",
"176 6 LINE",
"80 24 LINE",
"50 23 LINE",
"-48 6 LINE"
);
}
);
width = 851;
},
{
layerId = "E6F0BB9C-0782-48C1-8D27-B7622AB80911";
paths = (
{
closed = 1;
nodes = (
"376 -2 LINE",
"436 120 LINE",
"438 153 LINE",
"327 703 LINE",
"242 700 LINE",
"223 700 LINE",
"359 -2 LINE"
);
},
{
closed = 1;
nodes = (
"83 0 LINE",
"114 0 LINE",
"236 700 LINE",
"210 700 LINE"
);
},
{
closed = 1;
nodes = (
"361 20 LINE",
"376 -2 LINE",
"758 700 LINE",
"732 700 LINE"
);
},
{
closed = 1;
nodes = (
"719 0 LINE",
"833 700 LINE",
"778 700 LINE",
"733 702 LINE",
"619 0 LINE"
);
},
{
closed = 1;
nodes = (
"122 700 LINE",
"120 687 LINE",
"210 673 LINE",
"227 700 LINE"
);
},
{
closed = 1;
nodes = (
"817 673 LINE",
"911 687 LINE",
"913 700 LINE",
"808 700 LINE"
);
},
{
closed = 1;
nodes = (
"625 18 LINE",
"544 6 LINE",
"543 0 LINE",
"642 0 LINE"
);
},
{
closed = 1;
nodes = (
"797 0 LINE",
"798 6 LINE",
"724 18 LINE",
"697 0 LINE"
);
},
{
closed = 1;
nodes = (
"-19 0 LINE",
"215 0 LINE",
"216 6 LINE",
"118 24 LINE",
"88 23 LINE",
"-18 6 LINE"
);
}
);
width = 828;
},
{
associatedMasterId = "33C692B7-ECA1-4228-A9DA-44701B454552";
layerId = "EB34AA33-F50C-4FD8-9B71-242498702479";
width = 600;
},
{
associatedMasterId = "33C692B7-ECA1-4228-A9DA-44701B454552";
layerId = "260799CA-1354-4986-AE02-6BB02FE3B1C6";
width = 600;
},
{
associatedMasterId = "33C692B7-ECA1-4228-A9DA-44701B454552";
layerId = "D8374064-0A1B-4C7C-ABB6-28D8469F3434";
width = 600;
},
{
associatedMasterId = "33C692B7-ECA1-4228-A9DA-44701B454552";
layerId = "63A61D1F-9C45-4792-A0E0-9E10E92945A7";
width = 600;
},
{
layerId = "6E858C87-3851-4F0D-A4B8-5C62800DDA3D";
width = 600;
}
);
unicode = 004D;
},
{
glyphname = N;
lastChange = "2018-08-22 08:20:32 +0000";
layers = (
{
background = {
paths = (
{
closed = 1;
nodes = (
"64 0 LINE",
"95 0 LINE",
"340 700 LINE",
"314 700 LINE"
);
},
{
closed = 1;
nodes = (
"167 246 LINE",
"519 246 LINE",
"519 265 LINE",
"175 265 LINE"
);
},
{
closed = 1;
nodes = (
"73 22 LINE",
"-10 6 LINE",
"-10 0 LINE",
"65 0 LINE"
);
},
{
closed = 1;
nodes = (
"530 18 LINE",
"453 6 LINE",
"453 0 LINE",
"550 0 LINE"
);
},
{
closed = 1;
nodes = (
"705 0 LINE",
"705 6 LINE",
"629 18 LINE",
"605 0 LINE"
);
},
{
closed = 1;
nodes = (
"342 700 LINE",
"307 700 LINE",
"324 653 LINE",
"326 643 LINE",
"525 0 LINE",
"634 0 LINE",
"409 705 LINE"
);
},
{
closed = 1;
nodes = (
"232 700 LINE",
"232 694 LINE",
"309 680 LINE",
"322 700 LINE"
);
},
{
closed = 1;
nodes = (
"190 0 LINE",
"190 6 LINE",
"99 22 LINE",
"95 0 LINE"
);
}
);
};
layerId = "33C692B7-ECA1-4228-A9DA-44701B454552";
paths = (
{
closed = 1;
nodes = (
"576 0 LINE",
"572 166 LINE",
"232 703 LINE",
"138 700 LINE",
"119 700 LINE",
"132 661 LINE",
"548 0 LINE"
);
},
{
closed = 1;
nodes = (
"102 0 LINE",
"133 0 LINE",
"132 700 LINE",
"106 700 LINE"
);
},
{
closed = 1;
nodes = (
"38 700 LINE",
"38 687 LINE",
"130 673 LINE",
"143 700 LINE"
);
},
{
closed = 1;
nodes = (
"10 0 LINE",
"234 0 LINE",
"234 6 LINE",
"133 24 LINE",
"103 23 LINE",
"10 6 LINE"
);
},
{
closed = 1;
nodes = (
"598 0 LINE",
"599 700 LINE",
"568 700 LINE",
"572 0 LINE"
);
},
{
closed = 1;
nodes = (
"569 677 LINE",
"599 677 LINE",
"700 694 LINE",
"700 700 LINE",
"456 700 LINE",
"456 694 LINE"
);
}
);
width = 710;
},
{
layerId = "4AEC2A2F-21E0-4005-B5C4-61417F12BD89";
paths = (
{
closed = 1;
nodes = (
"435 0 LINE",
"473 170 LINE",
"353 704 LINE",
"324 701 OFFCURVE",
"305 699 OFFCURVE",
"276 700 CURVE SMOOTH",
"257 700 LINE",
"259 667 LINE",
"415 0 LINE"
);
},
{
closed = 1;
nodes = (
"31 0 LINE",
"62 0 LINE",
"270 700 LINE",
"244 700 LINE"
);
},
{
closed = 1;
nodes = (
"156 700 LINE",
"152 687 LINE",
"240 673 LINE",
"261 700 LINE"
);
},
{
closed = 1;
nodes = (
"-61 0 LINE",
"163 0 LINE",
"164 6 LINE",
"69 24 LINE",
"39 23 LINE",
"-60 6 LINE"
);
},
{
closed = 1;
nodes = (
"457 0 LINE",
"667 700 LINE",
"636 700 LINE",
"431 0 LINE"
);
},
{
closed = 1;
nodes = (
"630 673 LINE",
"660 672 LINE",
"766 690 LINE",
"768 700 LINE",
"524 700 LINE",
"522 690 LINE"
);
}
);
width = 577;
},
{
layerId = "E6F0BB9C-0782-48C1-8D27-B7622AB80911";
paths = (
{
closed = 1;
nodes = (
"542 0 LINE",
"567 157 LINE",
"321 703 LINE",
"240 700 LINE",
"221 700 LINE",
"228 661 LINE",
"514 0 LINE"
);
},
{
closed = 1;
nodes = (
"81 0 LINE",
"112 0 LINE",
"234 700 LINE",
"208 700 LINE"
);
},
{
closed = 1;
nodes = (
"120 700 LINE",
"118 687 LINE",
"208 673 LINE",
"225 700 LINE"
);
},
{
closed = 1;
nodes = (
"-11 0 LINE",
"213 0 LINE",
"214 6 LINE",
"116 24 LINE",
"86 23 LINE",
"-10 6 LINE"
);
},
{
closed = 1;
nodes = (
"564 0 LINE",
"688 700 LINE",
"657 700 LINE",
"538 0 LINE"
);
},
{
closed = 1;
nodes = (
"654 677 LINE",
"684 676 LINE",
"771 694 LINE",
"772 700 LINE",
"545 700 LINE",
"544 694 LINE"
);
}
);
width = 649;
},
{
associatedMasterId = "33C692B7-ECA1-4228-A9DA-44701B454552";
layerId = "EB34AA33-F50C-4FD8-9B71-242498702479";
width = 600;
},
{
associatedMasterId = "33C692B7-ECA1-4228-A9DA-44701B454552";
layerId = "260799CA-1354-4986-AE02-6BB02FE3B1C6";
width = 600;
},
{
associatedMasterId = "33C692B7-ECA1-4228-A9DA-44701B454552";
layerId = "D8374064-0A1B-4C7C-ABB6-28D8469F3434";
width = 600;
},
{
associatedMasterId = "33C692B7-ECA1-4228-A9DA-44701B454552";
layerId = "63A61D1F-9C45-4792-A0E0-9E10E92945A7";
width = 600;
},
{
layerId = "6E858C87-3851-4F0D-A4B8-5C62800DDA3D";
width = 600;
}
);
unicode = 004E;
},
{
glyphname = O;
lastChange = "2018-08-22 08:20:32 +0000";
layers = (
{
background = {
paths = (
{
closed = 1;
nodes = (
"340 -2 LINE",
"379 120 LINE",
"375 153 LINE",
"142 703 LINE",
"48 700 LINE",
"29 700 LINE",
"323 -2 LINE"
);
},
{
closed = 1;
nodes = (
"12 0 LINE",
"43 0 LINE",
"42 700 LINE",
"16 700 LINE"
);
},
{
closed = 1;
nodes = (
"321 20 LINE",
"340 -2 LINE",
"632 700 LINE",
"606 700 LINE"
);
},
{
closed = 1;
nodes = (
"716 0 LINE",
"707 700 LINE",
"652 700 LINE",
"606 702 LINE",
"616 0 LINE"
);
},
{
closed = 1;
nodes = (
"-72 700 LINE",
"-72 687 LINE",
"20 673 LINE",
"33 700 LINE"
);
},
{
closed = 1;
nodes = (
"695 673 LINE",
"787 687 LINE",
"787 700 LINE",
"682 700 LINE"
);
},
{
closed = 1;
nodes = (
"619 18 LINE",
"540 6 LINE",
"540 0 LINE",
"639 0 LINE"
);
},
{
closed = 1;
nodes = (
"794 0 LINE",
"794 6 LINE",
"718 18 LINE",
"694 0 LINE"
);
},
{
closed = 1;
nodes = (
"-80 0 LINE",
"144 0 LINE",
"144 6 LINE",
"43 24 LINE",
"13 23 LINE",
"-80 6 LINE"
);
}
);
};
layerId = "33C692B7-ECA1-4228-A9DA-44701B454552";
paths = (
{
closed = 1;
nodes = (
"273 29 OFFCURVE",
"119 154 OFFCURVE",
"119 380 CURVE SMOOTH",
"119 533 OFFCURVE",
"199 664 OFFCURVE",
"339 664 CURVE SMOOTH",
"487 664 OFFCURVE",
"592 549 OFFCURVE",
"592 307 CURVE SMOOTH",
"592 154 OFFCURVE",
"511 29 OFFCURVE",
"371 29 CURVE SMOOTH"
);
},
{
closed = 1;
nodes = (
"702 579 OFFCURVE",
"582 708 OFFCURVE",
"376 713 CURVE",
"307 709 OFFCURVE",
"20 571 OFFCURVE",
"20 339 CURVE SMOOTH",
"20 122 OFFCURVE",
"117 -15 OFFCURVE",
"335 -15 CURVE",
"401 -12 OFFCURVE",
"702 107 OFFCURVE",
"702 363 CURVE SMOOTH"
);
}
);
width = 722;
},
{
layerId = "4AEC2A2F-21E0-4005-B5C4-61417F12BD89";
paths = (
{
closed = 1;
nodes = (
"142 19 OFFCURVE",
"118 122 OFFCURVE",
"121 190 CURVE",
"121 381 OFFCURVE",
"277 671 OFFCURVE",
"398 671 CURVE SMOOTH",
"466 671 OFFCURVE",
"477 593 OFFCURVE",
"477 517 CURVE SMOOTH",
"477 244 OFFCURVE",
"308 24 OFFCURVE",
"192 13 CURVE"
);
},
{
closed = 1;
nodes = (
"361 6 OFFCURVE",
"587 279 OFFCURVE",
"587 502 CURVE SMOOTH",
"587 612 OFFCURVE",
"554 691 OFFCURVE",
"452 691 CURVE SMOOTH",
"238 691 OFFCURVE",
"14 406 OFFCURVE",
"14 194 CURVE SMOOTH",
"10 77 OFFCURVE",
"70 -7 OFFCURVE",
"140 -7 CURVE"
);
}
);
width = 533;
},
{
layerId = "E6F0BB9C-0782-48C1-8D27-B7622AB80911";
paths = (
{
closed = 1;
nodes = (
"156 37 OFFCURVE",
"119 121 OFFCURVE",
"119 207 CURVE",
"119 396 OFFCURVE",
"215 667 OFFCURVE",
"373 667 CURVE",
"443 667 OFFCURVE",
"476 570 OFFCURVE",
"476 484 CURVE",
"476 274 OFFCURVE",
"391 37 OFFCURVE",
"228 37 CURVE"
);
},
{
closed = 1;
nodes = (
"372 -14 OFFCURVE",
"584 268 OFFCURVE",
"584 506 CURVE",
"584 655 OFFCURVE",
"522 701 OFFCURVE",
"477 714 CURVE",
"254 722 OFFCURVE",
"10 462 OFFCURVE",
"11 198 CURVE",
"10 58 OFFCURVE",
"84 -3 OFFCURVE",
"136 -13 CURVE"
);
}
);
width = 553;
},
{
associatedMasterId = "33C692B7-ECA1-4228-A9DA-44701B454552";
layerId = "EB34AA33-F50C-4FD8-9B71-242498702479";
width = 600;
},
{
associatedMasterId = "33C692B7-ECA1-4228-A9DA-44701B454552";
layerId = "260799CA-1354-4986-AE02-6BB02FE3B1C6";
width = 600;
},
{
layerId = "6E858C87-3851-4F0D-A4B8-5C62800DDA3D";
width = 600;
},
{
associatedMasterId = "33C692B7-ECA1-4228-A9DA-44701B454552";
layerId = "D8374064-0A1B-4C7C-ABB6-28D8469F3434";
width = 600;
},
{
associatedMasterId = "33C692B7-ECA1-4228-A9DA-44701B454552";
layerId = "63A61D1F-9C45-4792-A0E0-9E10E92945A7";
width = 600;
}
);
unicode = 004F;
},
{
glyphname = Oacute;
lastChange = "2018-08-22 08:04:48 +0000";
layers = (
{
anchors = (
{
name = _top;
position = "{352, 470}";
},
{
name = top;
position = "{352, 732}";
}
);
layerId = "33C692B7-ECA1-4228-A9DA-44701B454552";
paths = (
{
closed = 1;
nodes = (
"268 29 OFFCURVE",
"114 154 OFFCURVE",
"114 380 CURVE SMOOTH",
"114 533 OFFCURVE",
"194 664 OFFCURVE",
"334 664 CURVE SMOOTH",
"482 664 OFFCURVE",
"587 549 OFFCURVE",
"587 307 CURVE SMOOTH",
"587 154 OFFCURVE",
"506 29 OFFCURVE",
"366 29 CURVE SMOOTH"
);
},
{
closed = 1;
nodes = (
"697 579 OFFCURVE",
"577 708 OFFCURVE",
"371 713 CURVE",
"302 709 OFFCURVE",
"15 571 OFFCURVE",
"15 339 CURVE SMOOTH",
"15 122 OFFCURVE",
"112 -15 OFFCURVE",
"330 -15 CURVE",
"396 -12 OFFCURVE",
"697 107 OFFCURVE",
"697 363 CURVE SMOOTH"
);
},
{
closed = 1;
nodes = (
"436 866 LINE",
"512 877 LINE",
"539 865 LINE",
"383 737 LINE",
"351 737 LINE"
);
}
);
width = 600;
},
{
components = (
{
name = O;
},
{
name = acutecomb.case;
transform = "{1, 0, 0, 1, 180, 0}";
}
);
layerId = "E6F0BB9C-0782-48C1-8D27-B7622AB80911";
width = 587;
},
{
components = (
{
name = O;
},
{
name = acutecomb.case;
transform = "{1, 0, 0, 1, 180, 0}";
}
);
layerId = "4AEC2A2F-21E0-4005-B5C4-61417F12BD89";
width = 607;
},
{
associatedMasterId = "33C692B7-ECA1-4228-A9DA-44701B454552";
layerId = "D8374064-0A1B-4C7C-ABB6-28D8469F3434";
width = 600;
},
{
associatedMasterId = "33C692B7-ECA1-4228-A9DA-44701B454552";
layerId = "63A61D1F-9C45-4792-A0E0-9E10E92945A7";
width = 600;
},
{
layerId = "6E858C87-3851-4F0D-A4B8-5C62800DDA3D";
width = 600;
}
);
unicode = 00D3;
},
{
glyphname = Ograve;
lastChange = "2018-08-22 08:04:48 +0000";
layers = (
{
components = (
{
name = gravecomb.case;
transform = "{1, 0, 0, 1, 90, 0}";
}
);
layerId = "33C692B7-ECA1-4228-A9DA-44701B454552";
paths = (
{
closed = 1;
nodes = (
"273 29 OFFCURVE",
"119 154 OFFCURVE",
"119 380 CURVE SMOOTH",
"119 533 OFFCURVE",
"199 664 OFFCURVE",
"339 664 CURVE SMOOTH",
"487 664 OFFCURVE",
"592 549 OFFCURVE",
"592 307 CURVE SMOOTH",
"592 154 OFFCURVE",
"511 29 OFFCURVE",
"371 29 CURVE SMOOTH"
);
},
{
closed = 1;
nodes = (
"702 579 OFFCURVE",
"582 708 OFFCURVE",
"376 713 CURVE",
"307 709 OFFCURVE",
"20 571 OFFCURVE",
"20 339 CURVE SMOOTH",
"20 122 OFFCURVE",
"117 -15 OFFCURVE",
"335 -15 CURVE",
"401 -12 OFFCURVE",
"702 107 OFFCURVE",
"702 363 CURVE SMOOTH"
);
}
);
width = 722;
},
{
components = (
{
name = gravecomb.case;
transform = "{1, 0, 0, 1, 190, 0}";
}
);
layerId = "E6F0BB9C-0782-48C1-8D27-B7622AB80911";
paths = (
{
closed = 1;
nodes = (
"190 44 OFFCURVE",
"135 134 OFFCURVE",
"144 227 CURVE",
"163 431 OFFCURVE",
"260 681 OFFCURVE",
"402 667 CURVE",
"472 662 OFFCURVE",
"519 561 OFFCURVE",
"513 484 CURVE",
"493 265 OFFCURVE",
"408 23 OFFCURVE",
"257 37 CURVE"
);
},
{
closed = 1;
nodes = (
"401 -14 OFFCURVE",
"623 268 OFFCURVE",
"623 506 CURVE",
"623 655 OFFCURVE",
"551 701 OFFCURVE",
"506 714 CURVE",
"283 722 OFFCURVE",
"29 462 OFFCURVE",
"30 198 CURVE",
"29 58 OFFCURVE",
"113 -3 OFFCURVE",
"165 -13 CURVE"
);
}
);
width = 592;
},
{
components = (
{
name = O;
},
{
name = gravecomb.case;
transform = "{1, 0, 0, 1, -50, 0}";
}
);
layerId = "4AEC2A2F-21E0-4005-B5C4-61417F12BD89";
width = 533;
},
{
associatedMasterId = "33C692B7-ECA1-4228-A9DA-44701B454552";
layerId = "D8374064-0A1B-4C7C-ABB6-28D8469F3434";
width = 600;
},
{
associatedMasterId = "33C692B7-ECA1-4228-A9DA-44701B454552";
layerId = "63A61D1F-9C45-4792-A0E0-9E10E92945A7";
width = 600;
},
{
layerId = "6E858C87-3851-4F0D-A4B8-5C62800DDA3D";
width = 600;
}
);
rightMetricsKey = O;
unicode = 00D2;
},
{
glyphname = Oslash;
lastChange = "2018-08-22 08:04:48 +0000";
layers = (
{
layerId = "33C692B7-ECA1-4228-A9DA-44701B454552";
paths = (
{
closed = 1;
nodes = (
"273 29 OFFCURVE",
"119 154 OFFCURVE",
"119 380 CURVE SMOOTH",
"119 533 OFFCURVE",
"199 664 OFFCURVE",
"339 664 CURVE SMOOTH",
"487 664 OFFCURVE",
"592 549 OFFCURVE",
"592 307 CURVE SMOOTH",
"592 154 OFFCURVE",
"511 29 OFFCURVE",
"371 29 CURVE SMOOTH"
);
},
{
closed = 1;
nodes = (
"702 579 OFFCURVE",
"582 708 OFFCURVE",
"376 713 CURVE",
"307 709 OFFCURVE",
"20 571 OFFCURVE",
"20 339 CURVE SMOOTH",
"20 122 OFFCURVE",
"117 -15 OFFCURVE",
"335 -15 CURVE",
"401 -12 OFFCURVE",
"702 107 OFFCURVE",
"702 363 CURVE SMOOTH"
);
},
{
closed = 1;
nodes = (
"88 -42 LINE",
"145 -42 LINE",
"606 750 LINE",
"545 750 LINE"
);
}
);
width = 722;
},
{
components = (
{
name = O;
},
{
name = slash;
}
);
layerId = "E6F0BB9C-0782-48C1-8D27-B7622AB80911";
width = 553;
},
{
components = (
{
name = O;
},
{
name = slash;
}
);
layerId = "4AEC2A2F-21E0-4005-B5C4-61417F12BD89";
width = 533;
},
{
associatedMasterId = "33C692B7-ECA1-4228-A9DA-44701B454552";
layerId = "D8374064-0A1B-4C7C-ABB6-28D8469F3434";
width = 600;
},
{
associatedMasterId = "33C692B7-ECA1-4228-A9DA-44701B454552";
layerId = "63A61D1F-9C45-4792-A0E0-9E10E92945A7";
width = 600;
},
{
layerId = "6E858C87-3851-4F0D-A4B8-5C62800DDA3D";
width = 600;
}
);
rightMetricsKey = O;
unicode = 00D8;
},
{
glyphname = OE;
lastChange = "2018-10-25 08:57:46 +0000";
layers = (
{
layerId = "33C692B7-ECA1-4228-A9DA-44701B454552";
paths = (
{
closed = 1;
nodes = (
"20 125 OFFCURVE",
"114 0 OFFCURVE",
"325 0 CURVE SMOOTH",
"774 0 LINE",
"796 185 LINE",
"788 187 LINE",
"772 154 OFFCURVE",
"705 42 OFFCURVE",
"670 19 CURVE",
"416 19 LINE",
"526 66 OFFCURVE",
"697 185 OFFCURVE",
"702 354 CURVE",
"745 258 LINE",
"751 258 LINE",
"751 470 LINE",
"745 470 LINE",
"702 373 LINE",
"699 525 OFFCURVE",
"625 637 OFFCURVE",
"496 681 CURVE",
"675 681 LINE",
"711 651 OFFCURVE",
"769 547 OFFCURVE",
"784 516 CURVE",
"790 516 LINE",
"774 703 LINE",
"749 700 LINE",
"398 700 LINE",
"376 701 LINE",
"307 697 OFFCURVE",
"20 571 OFFCURVE",
"20 339 CURVE SMOOTH"
);
},
{
closed = 1;
nodes = (
"119 517 OFFCURVE",
"183 624 OFFCURVE",
"296 648 CURVE",
"296 64 LINE",
"210 108 OFFCURVE",
"119 207 OFFCURVE",
"119 380 CURVE SMOOTH"
);
},
{
closed = 1;
nodes = (
"396 354 LINE",
"591 354 LINE",
"592 339 OFFCURVE",
"592 323 OFFCURVE",
"592 307 CURVE SMOOTH",
"592 178 OFFCURVE",
"521 59 OFFCURVE",
"396 45 CURVE"
);
},
{
closed = 1;
nodes = (
"396 646 LINE",
"500 622 OFFCURVE",
"574 529 OFFCURVE",
"589 373 CURVE",
"396 373 LINE"
);
}
);
width = 831;
},
{
layerId = "E6F0BB9C-0782-48C1-8D27-B7622AB80911";
paths = (
{
closed = 1;
nodes = (
"166 31 OFFCURVE",
"108 135 OFFCURVE",
"108 207 CURVE",
"108 396 OFFCURVE",
"215 653 OFFCURVE",
"373 653 CURVE",
"443 653 OFFCURVE",
"511 556 OFFCURVE",
"511 484 CURVE",
"511 292 OFFCURVE",
"419 53 OFFCURVE",
"279 14 CURVE",
"266 11 OFFCURVE",
"252 31 OFFCURVE",
"238 31 CURVE"
);
},
{
closed = 1;
nodes = (
"287 0 LINE",
"480 70 OFFCURVE",
"614 293 OFFCURVE",
"614 492 CURVE",
"614 641 OFFCURVE",
"522 687 OFFCURVE",
"477 700 CURVE",
"254 708 OFFCURVE",
"10 462 OFFCURVE",
"11 198 CURVE",
"10 72 OFFCURVE",
"84 11 OFFCURVE",
"136 1 CURVE"
);
},
{
closed = 1;
nodes = (
"233 32 LINE",
"136 1 LINE",
"322 0 LINE",
"448 686 LINE",
"348 673 LINE"
);
},
{
closed = 1;
nodes = (
"595 353 LINE",
"600 277 LINE",
"606 282 LINE",
"619 353 LINE"
);
},
{
closed = 1;
nodes = (
"453 681 LINE",
"747 681 LINE",
"751 700 LINE",
"465 700 LINE"
);
},
{
closed = 1;
nodes = (
"366 349 LINE",
"619 353 LINE",
"622 372 LINE",
"377 368 LINE"
);
},
{
closed = 1;
nodes = (
"293 0 LINE",
"643 0 LINE",
"646 19 LINE",
"304 19 LINE"
);
},
{
closed = 1;
nodes = (
"693 684 LINE",
"704 671 OFFCURVE",
"764 584 OFFCURVE",
"766 568 CURVE",
"775 570 LINE",
"752 700 LINE"
);
},
{
closed = 1;
nodes = (
"634 445 LINE",
"629 449 LINE",
"598 371 LINE",
"622 372 LINE"
);
},
{
closed = 1;
nodes = (
"707 131 LINE",
"699 133 LINE",
"691 117 OFFCURVE",
"606 29 OFFCURVE",
"590 16 CURVE",
"643 0 LINE"
);
}
);
width = 725;
},
{
layerId = "4AEC2A2F-21E0-4005-B5C4-61417F12BD89";
width = 0;
},
{
associatedMasterId = "33C692B7-ECA1-4228-A9DA-44701B454552";
layerId = "D8374064-0A1B-4C7C-ABB6-28D8469F3434";
width = 600;
},
{
associatedMasterId = "33C692B7-ECA1-4228-A9DA-44701B454552";
layerId = "63A61D1F-9C45-4792-A0E0-9E10E92945A7";
width = 600;
},
{
layerId = "6E858C87-3851-4F0D-A4B8-5C62800DDA3D";
width = 600;
}
);
leftMetricsKey = O;
rightMetricsKey = E;
unicode = 0152;
},
{
glyphname = P;
lastChange = "2018-08-22 08:20:32 +0000";
layers = (
{
background = {
paths = (
{
closed = 0;
nodes = (
"709 829 LINE",
"709 830 OFFCURVE",
"709 830 OFFCURVE",
"709 831 CURVE"
);
},
{
closed = 1;
nodes = (
"351 701 LINE",
"40 700 LINE",
"40 694 LINE",
"127 674 LINE",
"127 26 LINE",
"30 6 LINE",
"30 0 LINE",
"227 0 LINE",
"227 70 LINE",
"227 672 LINE",
"237 681 OFFCURVE",
"273 685 OFFCURVE",
"288 685 CURVE",
"294 685 OFFCURVE",
"300 685 OFFCURVE",
"306 685 CURVE"
);
},
{
closed = 1;
nodes = (
"104 0 LINE",
"338 0 LINE",
"338 6 LINE",
"227 26 LINE",
"104 6 LINE"
);
},
{
closed = 1;
nodes = (
"333 700 OFFCURVE",
"274 688 OFFCURVE",
"268 685 CURVE",
"365 685 OFFCURVE",
"478 682 OFFCURVE",
"478 529 CURVE",
"478 376 OFFCURVE",
"430 318 OFFCURVE",
"351 318 CURVE",
"313 318 OFFCURVE",
"239 326 OFFCURVE",
"200 344 CURVE",
"198 299 LINE",
"314 297 LINE",
"409 297 OFFCURVE",
"572 408 OFFCURVE",
"572 534 CURVE",
"572 655 OFFCURVE",
"432 704 OFFCURVE",
"340 701 CURVE"
);
},
{
closed = 1;
nodes = (
"126 0 LINE",
"226 0 LINE",
"226 700 LINE",
"126 700 LINE"
);
},
{
closed = 1;
nodes = (
"39 700 LINE",
"39 694 LINE",
"126 681 LINE",
"146 700 LINE"
);
},
{
closed = 1;
nodes = (
"126 19 LINE",
"49 6 LINE",
"49 0 LINE",
"146 0 LINE"
);
},
{
closed = 1;
nodes = (
"343 0 LINE",
"343 6 LINE",
"226 19 LINE",
"206 0 LINE"
);
},
{
closed = 1;
nodes = (
"205 681 LINE",
"566 681 LINE",
"566 700 LINE",
"213 700 LINE"
);
},
{
closed = 1;
nodes = (
"205 324 LINE",
"476 324 LINE",
"476 343 LINE",
"213 343 LINE"
);
},
{
closed = 1;
nodes = (
"476 440 LINE",
"470 440 LINE",
"427 343 LINE",
"476 334 LINE"
);
},
{
closed = 1;
nodes = (
"469 689 LINE",
"499 690 OFFCURVE",
"576 553 OFFCURVE",
"594 516 CURVE",
"600 516 LINE",
"584 703 LINE"
);
},
{
closed = 1;
nodes = (
"427 325 LINE",
"470 228 LINE",
"476 228 LINE",
"476 334 LINE"
);
}
);
};
layerId = "33C692B7-ECA1-4228-A9DA-44701B454552";
paths = (
{
closed = 1;
nodes = (
"338 0 LINE",
"338 6 LINE",
"227 26 LINE",
"227 311 LINE",
"316 312 LINE",
"354 315 OFFCURVE",
"580 333 OFFCURVE",
"579 536 CURVE",
"579 650 OFFCURVE",
"487 704 OFFCURVE",
"345 701 CURVE SMOOTH",
"40 700 LINE",
"40 694 LINE",
"127 674 LINE",
"127 26 LINE",
"30 6 LINE",
"30 0 LINE"
);
},
{
closed = 1;
nodes = (
"227 670 LINE",
"236 678 OFFCURVE",
"303 682 OFFCURVE",
"320 683 CURVE",
"436 682 OFFCURVE",
"488 606 OFFCURVE",
"488 515 CURVE SMOOTH",
"488 396 OFFCURVE",
"437 334 OFFCURVE",
"338 334 CURVE SMOOTH",
"308 334 OFFCURVE",
"267 339 OFFCURVE",
"227 350 CURVE"
);
}
);
width = 590;
},
{
layerId = "4AEC2A2F-21E0-4005-B5C4-61417F12BD89";
paths = (
{
closed = 1;
nodes = (
"340 672 LINE",
"351 680 OFFCURVE",
"380 684 OFFCURVE",
"397 685 CURVE",
"459 684 OFFCURVE",
"507 637 OFFCURVE",
"507 578 CURVE SMOOTH",
"507 468 OFFCURVE",
"436 315 OFFCURVE",
"294 315 CURVE SMOOTH",
"273 315 OFFCURVE",
"263 316 OFFCURVE",
"239 321 CURVE"
);
},
{
closed = 1;
nodes = (
"603 392 OFFCURVE",
"603 584 CURVE SMOOTH",
"603 678 OFFCURVE",
"517 701 OFFCURVE",
"427 701 CURVE SMOOTH",
"162 700 LINE",
"160 694 LINE",
"241 674 LINE",
"47 26 LINE",
"-44 11 LINE",
"-48 0 LINE",
"142 0 LINE",
"230 299 LINE",
"427 299 OFFCURVE"
);
}
);
width = 489;
},
{
layerId = "E6F0BB9C-0782-48C1-8D27-B7622AB80911";
paths = (
{
closed = 1;
nodes = (
"294 674 LINE",
"305 682 OFFCURVE",
"341 684 OFFCURVE",
"368 685 CURVE",
"445 684 OFFCURVE",
"495 631 OFFCURVE",
"495 569 CURVE",
"495 472 OFFCURVE",
"432 341 OFFCURVE",
"318 341 CURVE",
"288 341 OFFCURVE",
"266 337 OFFCURVE",
"236 339 CURVE"
);
},
{
closed = 1;
nodes = (
"421 322 OFFCURVE",
"587 390 OFFCURVE",
"587 588 CURVE",
"587 675 OFFCURVE",
"498 702 OFFCURVE",
"396 701 CURVE",
"112 700 LINE",
"111 694 LINE",
"194 674 LINE",
"80 22 LINE",
"-1 9 LINE",
"-2 0 LINE",
"260 0 LINE",
"260 9 LINE",
"178 22 LINE",
"234 322 LINE"
);
}
);
width = 545;
},
{
associatedMasterId = "33C692B7-ECA1-4228-A9DA-44701B454552";
layerId = "EB34AA33-F50C-4FD8-9B71-242498702479";
width = 600;
},
{
associatedMasterId = "33C692B7-ECA1-4228-A9DA-44701B454552";
layerId = "260799CA-1354-4986-AE02-6BB02FE3B1C6";
width = 600;
},
{
associatedMasterId = "33C692B7-ECA1-4228-A9DA-44701B454552";
layerId = "D8374064-0A1B-4C7C-ABB6-28D8469F3434";
width = 600;
},
{
associatedMasterId = "33C692B7-ECA1-4228-A9DA-44701B454552";
layerId = "63A61D1F-9C45-4792-A0E0-9E10E92945A7";
width = 600;
},
{
layerId = "6E858C87-3851-4F0D-A4B8-5C62800DDA3D";
width = 600;
}
);
leftMetricsKey = H;
unicode = 0050;
},
{
glyphname = Q;
lastChange = "2018-08-22 08:20:32 +0000";
layers = (
{
layerId = "33C692B7-ECA1-4228-A9DA-44701B454552";
paths = (
{
closed = 1;
nodes = (
"268 29 OFFCURVE",
"116 154 OFFCURVE",
"116 380 CURVE SMOOTH",
"116 533 OFFCURVE",
"194 664 OFFCURVE",
"334 664 CURVE SMOOTH",
"482 664 OFFCURVE",
"585 549 OFFCURVE",
"585 307 CURVE SMOOTH",
"585 154 OFFCURVE",
"506 29 OFFCURVE",
"366 29 CURVE SMOOTH"
);
},
{
closed = 1;
nodes = (
"697 579 OFFCURVE",
"577 708 OFFCURVE",
"371 713 CURVE",
"302 709 OFFCURVE",
"15 571 OFFCURVE",
"15 339 CURVE SMOOTH",
"15 122 OFFCURVE",
"112 -15 OFFCURVE",
"330 -15 CURVE",
"396 -12 OFFCURVE",
"697 107 OFFCURVE",
"697 363 CURVE SMOOTH"
);
},
{
closed = 1;
nodes = (
"396 -81 OFFCURVE",
"480 -113 OFFCURVE",
"611 -168 CURVE SMOOTH",
"620 -172 LINE",
"763 -74 LINE",
"756 -64 LINE",
"681 -105 LINE",
"656 -122 OFFCURVE",
"502 -5 OFFCURVE",
"375 -5 CURVE",
"282 -56 LINE"
);
},
{
closed = 1;
nodes = (
"393 -17 LINE",
"372 -3 LINE",
"275 -60 LINE",
"208 -88 LINE",
"216 -95 OFFCURVE",
"226 -98 OFFCURVE",
"237 -96 CURVE"
);
}
);
width = 708;
},
{
layerId = "4AEC2A2F-21E0-4005-B5C4-61417F12BD89";
paths = (
{
closed = 1;
nodes = (
"169 4 OFFCURVE",
"139 60 OFFCURVE",
"137 128 CURVE SMOOTH",
"133 266 OFFCURVE",
"296 640 OFFCURVE",
"418 683 CURVE SMOOTH",
"498 711 OFFCURVE",
"525 633 OFFCURVE",
"528 570 CURVE SMOOTH",
"534 443 OFFCURVE",
"364 9 OFFCURVE",
"249 -10 CURVE"
);
},
{
closed = 1;
nodes = (
"449 13 OFFCURVE",
"618 288 OFFCURVE",
"610 511 CURVE SMOOTH",
"606 621 OFFCURVE",
"582 696 OFFCURVE",
"449 700 CURVE",
"236 674 OFFCURVE",
"44 396 OFFCURVE",
"51 184 CURVE SMOOTH",
"55 67 OFFCURVE",
"89 -12 OFFCURVE",
"229 -16 CURVE"
);
},
{
closed = 1;
nodes = (
"114 -173 OFFCURVE",
"218 -205 OFFCURVE",
"349 -260 CURVE SMOOTH",
"358 -264 LINE",
"547 -128 LINE",
"540 -120 LINE",
"405 -211 LINE",
"332 -211 OFFCURVE",
"244 -97 OFFCURVE",
"117 -97 CURVE",
"0 -148 LINE"
);
},
{
closed = 1;
nodes = (
"27 -138 OFFCURVE",
"287 -12 OFFCURVE",
"359 33 CURVE",
"322 27 LINE",
"-17 -152 LINE",
"-84 -180 LINE",
"-76 -187 OFFCURVE",
"-66 -190 OFFCURVE",
"-55 -188 CURVE"
);
}
);
width = 596;
},
{
layerId = "E6F0BB9C-0782-48C1-8D27-B7622AB80911";
paths = (
{
closed = 1;
nodes = (
"169 -121 OFFCURVE",
"273 -153 OFFCURVE",
"404 -208 CURVE",
"413 -212 LINE",
"556 -114 LINE",
"549 -104 LINE",
"474 -145 LINE",
"449 -162 OFFCURVE",
"299 -45 OFFCURVE",
"172 -45 CURVE",
"55 -96 LINE"
);
},
{
closed = 1;
nodes = (
"82 -86 OFFCURVE",
"291 6 OFFCURVE",
"363 51 CURVE",
"326 45 LINE",
"38 -100 LINE",
"-29 -128 LINE",
"-21 -135 OFFCURVE",
"-11 -138 OFFCURVE",
"0 -136 CURVE"
);
},
{
closed = 1;
nodes = (
"186 37 OFFCURVE",
"149 121 OFFCURVE",
"149 207 CURVE",
"149 396 OFFCURVE",
"245 667 OFFCURVE",
"403 667 CURVE",
"473 667 OFFCURVE",
"506 570 OFFCURVE",
"506 484 CURVE",
"506 274 OFFCURVE",
"421 37 OFFCURVE",
"258 37 CURVE"
);
},
{
closed = 1;
nodes = (
"402 -14 OFFCURVE",
"614 268 OFFCURVE",
"614 506 CURVE",
"614 655 OFFCURVE",
"552 701 OFFCURVE",
"507 714 CURVE",
"284 722 OFFCURVE",
"40 462 OFFCURVE",
"41 198 CURVE",
"40 58 OFFCURVE",
"114 -3 OFFCURVE",
"166 -13 CURVE"
);
}
);
width = 598;
},
{
associatedMasterId = "33C692B7-ECA1-4228-A9DA-44701B454552";
layerId = "EB34AA33-F50C-4FD8-9B71-242498702479";
width = 600;
},
{
associatedMasterId = "33C692B7-ECA1-4228-A9DA-44701B454552";
layerId = "260799CA-1354-4986-AE02-6BB02FE3B1C6";
width = 600;
},
{
associatedMasterId = "33C692B7-ECA1-4228-A9DA-44701B454552";
layerId = "D8374064-0A1B-4C7C-ABB6-28D8469F3434";
width = 600;
},
{
associatedMasterId = "33C692B7-ECA1-4228-A9DA-44701B454552";
layerId = "63A61D1F-9C45-4792-A0E0-9E10E92945A7";
width = 600;
},
{
layerId = "6E858C87-3851-4F0D-A4B8-5C62800DDA3D";
width = 600;
}
);
unicode = 0051;
},
{
glyphname = R;
lastChange = "2018-08-22 08:20:32 +0000";
layers = (
{
layerId = "33C692B7-ECA1-4228-A9DA-44701B454552";
paths = (
{
closed = 1;
nodes = (
"338 0 LINE",
"338 6 LINE",
"227 26 LINE",
"227 322 LINE",
"318 323 LINE",
"346 316 OFFCURVE",
"447 106 OFFCURVE",
"518 0 CURVE",
"649 -1 LINE",
"718 47 LINE",
"712 56 LINE",
"651 19 LINE",
"591 19 OFFCURVE",
"458 312 OFFCURVE",
"454 312 CURVE",
"360 332 LINE",
"442 343 OFFCURVE",
"582 401 OFFCURVE",
"581 554 CURVE",
"581 658 OFFCURVE",
"487 704 OFFCURVE",
"345 701 CURVE SMOOTH",
"40 700 LINE",
"40 694 LINE",
"127 674 LINE",
"127 26 LINE",
"30 6 LINE",
"30 0 LINE"
);
},
{
closed = 1;
nodes = (
"227 672 LINE",
"236 680 OFFCURVE",
"303 684 OFFCURVE",
"320 685 CURVE",
"436 684 OFFCURVE",
"490 614 OFFCURVE",
"490 533 CURVE SMOOTH",
"490 414 OFFCURVE",
"437 347 OFFCURVE",
"338 347 CURVE SMOOTH",
"318 347 OFFCURVE",
"267 348 OFFCURVE",
"227 355 CURVE"
);
}
);
width = 678;
},
{
layerId = "4AEC2A2F-21E0-4005-B5C4-61417F12BD89";
paths = (
{
closed = 1;
nodes = (
"142 0 LINE",
"235 322 LINE",
"317 323 LINE",
"317 298 OFFCURVE",
"396 -26 OFFCURVE",
"461 -26 CURVE",
"586 54 LINE",
"581 60 LINE",
"532 30 LINE",
"487 30 OFFCURVE",
"412 304 OFFCURVE",
"412 330 CURVE",
"352 323 LINE",
"447 323 OFFCURVE",
"603 487 OFFCURVE",
"603 584 CURVE SMOOTH",
"603 678 OFFCURVE",
"517 701 OFFCURVE",
"427 701 CURVE SMOOTH",
"162 700 LINE",
"160 694 LINE",
"241 674 LINE",
"47 26 LINE",
"-44 11 LINE",
"-48 0 LINE"
);
},
{
closed = 1;
nodes = (
"340 672 LINE",
"351 680 OFFCURVE",
"380 684 OFFCURVE",
"397 685 CURVE",
"459 684 OFFCURVE",
"507 637 OFFCURVE",
"507 578 CURVE SMOOTH",
"507 468 OFFCURVE",
"441 338 OFFCURVE",
"299 338 CURVE SMOOTH",
"278 338 OFFCURVE",
"268 339 OFFCURVE",
"244 344 CURVE"
);
}
);
width = 612;
},
{
layerId = "E6F0BB9C-0782-48C1-8D27-B7622AB80911";
paths = (
{
closed = 1;
nodes = (
"168 0 LINE",
"222 322 LINE",
"313 323 LINE",
"340 316 OFFCURVE",
"394 106 OFFCURVE",
"446 0 CURVE",
"567 0 LINE",
"644 47 LINE",
"640 52 LINE",
"573 22 LINE",
"513 22 OFFCURVE",
"430 309 OFFCURVE",
"423 309 CURVE",
"357 332 LINE",
"487 349 OFFCURVE",
"576 455 OFFCURVE",
"576 590 CURVE",
"576 675 OFFCURVE",
"483 701 OFFCURVE",
"367 701 CURVE",
"112 700 LINE",
"111 694 LINE",
"184 679 LINE",
"70 20 LINE",
"1 7 LINE",
"-1 0 LINE"
);
},
{
closed = 1;
nodes = (
"284 672 LINE",
"294 680 OFFCURVE",
"322 684 OFFCURVE",
"339 685 CURVE",
"428 684 OFFCURVE",
"482 640 OFFCURVE",
"482 573 CURVE",
"482 461 OFFCURVE",
"444 347 OFFCURVE",
"328 347 CURVE",
"298 346 OFFCURVE",
"267 345 OFFCURVE",
"229 352 CURVE"
);
}
);
width = 627;
},
{
associatedMasterId = "33C692B7-ECA1-4228-A9DA-44701B454552";
layerId = "EB34AA33-F50C-4FD8-9B71-242498702479";
width = 600;
},
{
associatedMasterId = "33C692B7-ECA1-4228-A9DA-44701B454552";
layerId = "260799CA-1354-4986-AE02-6BB02FE3B1C6";
width = 600;
},
{
layerId = "6E858C87-3851-4F0D-A4B8-5C62800DDA3D";
width = 600;
},
{
associatedMasterId = "33C692B7-ECA1-4228-A9DA-44701B454552";
layerId = "D8374064-0A1B-4C7C-ABB6-28D8469F3434";
width = 600;
},
{
associatedMasterId = "33C692B7-ECA1-4228-A9DA-44701B454552";
layerId = "63A61D1F-9C45-4792-A0E0-9E10E92945A7";
width = 600;
}
);
leftMetricsKey = I;
unicode = 0052;
},
{
glyphname = S;
lastChange = "2018-08-22 08:20:32 +0000";
layers = (
{
background = {
paths = (
{
closed = 1;
nodes = (
"135 78 LINE",
"59 247 LINE",
"49 246 LINE",
"46 76 LINE"
);
},
{
closed = 1;
nodes = (
"71 51 OFFCURVE",
"187 -14 OFFCURVE",
"264 -14 CURVE",
"420 12 OFFCURVE",
"523 80 OFFCURVE",
"523 218 CURVE",
"526 371 OFFCURVE",
"134 425 OFFCURVE",
"134 599 CURVE",
"134 658 OFFCURVE",
"169 682 OFFCURVE",
"241 686 CURVE",
"311 685 OFFCURVE",
"360 655 OFFCURVE",
"401 614 CURVE",
"490 510 LINE",
"501 510 LINE",
"470 664 LINE",
"429 695 OFFCURVE",
"363 714 OFFCURVE",
"282 714 CURVE",
"138 688 OFFCURVE",
"51 620 OFFCURVE",
"51 518 CURVE",
"51 362 OFFCURVE",
"422 303 OFFCURVE",
"422 155 CURVE",
"422 51 OFFCURVE",
"364 11 OFFCURVE",
"301 11 CURVE",
"241 12 OFFCURVE",
"162 62 OFFCURVE",
"119 103 CURVE",
"46 76 LINE"
);
}
);
};
layerId = "33C692B7-ECA1-4228-A9DA-44701B454552";
paths = (
{
closed = 1;
nodes = (
"71 51 OFFCURVE",
"197 -14 OFFCURVE",
"274 -14 CURVE",
"430 12 OFFCURVE",
"524 80 OFFCURVE",
"524 218 CURVE SMOOTH",
"524 371 OFFCURVE",
"134 426 OFFCURVE",
"134 590 CURVE SMOOTH",
"134 649 OFFCURVE",
"199 687 OFFCURVE",
"241 687 CURVE SMOOTH",
"311 686 OFFCURVE",
"392 645 OFFCURVE",
"411 614 CURVE",
"488 511 LINE",
"499 511 LINE",
"470 665 LINE",
"429 686 OFFCURVE",
"313 713 OFFCURVE",
"282 713 CURVE",
"138 687 OFFCURVE",
"51 620 OFFCURVE",
"51 518 CURVE SMOOTH",
"51 352 OFFCURVE",
"422 293 OFFCURVE",
"422 155 CURVE SMOOTH",
"422 51 OFFCURVE",
"364 11 OFFCURVE",
"301 11 CURVE SMOOTH",
"228 12 OFFCURVE",
"165 45 OFFCURVE",
"135 83 CURVE",
"56 246 LINE",
"45 246 LINE",
"46 76 LINE"
);
}
);
width = 568;
},
{
layerId = "4AEC2A2F-21E0-4005-B5C4-61417F12BD89";
paths = (
{
closed = 1;
nodes = (
"-25 71 LINE",
"-24 19 OFFCURVE",
"78 -28 OFFCURVE",
"125 -17 CURVE SMOOTH",
"273 17 OFFCURVE",
"387 140 OFFCURVE",
"406 249 CURVE",
"406 346 OFFCURVE",
"206 410 OFFCURVE",
"206 583 CURVE",
"240 622 OFFCURVE",
"279 656 OFFCURVE",
"344 656 CURVE SMOOTH",
"376 656 OFFCURVE",
"435 612 OFFCURVE",
"480 575 CURVE",
"490 575 LINE",
"518 663 LINE",
"501 695 OFFCURVE",
"443 700 OFFCURVE",
"391 700 CURVE SMOOTH",
"281 700 OFFCURVE",
"147 574 OFFCURVE",
"133 469 CURVE SMOOTH",
"115 357 OFFCURVE",
"347 247 OFFCURVE",
"334 136 CURVE",
"305 96 OFFCURVE",
"247 50 OFFCURVE",
"191 50 CURVE",
"144 56 OFFCURVE",
"79 86 OFFCURVE",
"48 134 CURVE"
);
}
);
width = 433;
},
{
layerId = "E6F0BB9C-0782-48C1-8D27-B7622AB80911";
paths = (
{
closed = 1;
nodes = (
"36 46 OFFCURVE",
"142 -14 OFFCURVE",
"219 -14 CURVE",
"376 12 OFFCURVE",
"509 97 OFFCURVE",
"509 237 CURVE",
"509 365 OFFCURVE",
"176 444 OFFCURVE",
"176 564 CURVE",
"176 626 OFFCURVE",
"244 677 OFFCURVE",
"318 682 CURVE",
"371 680 OFFCURVE",
"415 657 OFFCURVE",
"449 616 CURVE",
"506 530 LINE",
"516 530 LINE",
"520 667 LINE",
"475 696 OFFCURVE",
"403 709 OFFCURVE",
"349 711 CURVE",
"216 692 OFFCURVE",
"90 593 OFFCURVE",
"90 476 CURVE",
"90 358 OFFCURVE",
"408 289 OFFCURVE",
"408 168 CURVE",
"408 93 OFFCURVE",
"339 11 OFFCURVE",
"259 11 CURVE",
"203 11 OFFCURVE",
"175 31 OFFCURVE",
"129 66 CURVE",
"76 125 OFFCURVE",
"60 192 OFFCURVE",
"60 242 CURVE",
"50 240 LINE",
"17 71 LINE",
"16 71 LINE"
);
}
);
width = 532;
},
{
associatedMasterId = "33C692B7-ECA1-4228-A9DA-44701B454552";
layerId = "EB34AA33-F50C-4FD8-9B71-242498702479";
width = 600;
},
{
associatedMasterId = "33C692B7-ECA1-4228-A9DA-44701B454552";
layerId = "260799CA-1354-4986-AE02-6BB02FE3B1C6";
width = 600;
},
{
layerId = "6E858C87-3851-4F0D-A4B8-5C62800DDA3D";
width = 600;
},
{
associatedMasterId = "33C692B7-ECA1-4228-A9DA-44701B454552";
layerId = "D8374064-0A1B-4C7C-ABB6-28D8469F3434";
width = 600;
},
{
associatedMasterId = "33C692B7-ECA1-4228-A9DA-44701B454552";
layerId = "63A61D1F-9C45-4792-A0E0-9E10E92945A7";
width = 600;
}
);
unicode = 0053;
},
{
glyphname = T;
lastChange = "2018-08-22 08:20:32 +0000";
layers = (
{
background = {
paths = (
{
closed = 1;
nodes = (
"276 0 LINE",
"276 6 LINE",
"165 26 LINE",
"165 311 LINE",
"254 312 LINE",
"292 315 OFFCURVE",
"518 333 OFFCURVE",
"517 536 CURVE",
"517 650 OFFCURVE",
"425 704 OFFCURVE",
"283 701 CURVE",
"-22 700 LINE",
"-22 694 LINE",
"65 674 LINE",
"65 26 LINE",
"-32 6 LINE",
"-32 0 LINE"
);
},
{
closed = 1;
nodes = (
"165 672 LINE",
"174 680 OFFCURVE",
"241 684 OFFCURVE",
"258 685 CURVE",
"374 684 OFFCURVE",
"426 606 OFFCURVE",
"426 515 CURVE",
"426 396 OFFCURVE",
"375 331 OFFCURVE",
"276 331 CURVE",
"246 331 OFFCURVE",
"205 337 OFFCURVE",
"165 348 CURVE"
);
}
);
};
layerId = "33C692B7-ECA1-4228-A9DA-44701B454552";
paths = (
{
closed = 1;
nodes = (
"243 0 LINE",
"343 0 LINE",
"343 700 LINE",
"243 700 LINE"
);
},
{
closed = 1;
nodes = (
"243 36 LINE",
"126 6 LINE",
"126 0 LINE",
"263 0 LINE"
);
},
{
closed = 1;
nodes = (
"460 0 LINE",
"460 6 LINE",
"343 36 LINE",
"323 0 LINE"
);
},
{
closed = 1;
nodes = (
"87 681 LINE",
"294 681 LINE",
"294 700 LINE",
"87 700 LINE"
);
},
{
closed = 1;
nodes = (
"5 515 LINE",
"11 515 LINE",
"29 552 OFFCURVE",
"113 700 OFFCURVE",
"143 699 CURVE",
"100 700 LINE SMOOTH",
"90 700 OFFCURVE",
"54 702 OFFCURVE",
"41 704 CURVE",
"28 704 LINE"
);
},
{
closed = 1;
nodes = (
"294 700 LINE",
"294 681 LINE",
"501 681 LINE",
"501 700 LINE"
);
},
{
closed = 1;
nodes = (
"547 704 LINE",
"534 702 OFFCURVE",
"498 700 OFFCURVE",
"488 700 CURVE SMOOTH",
"445 699 LINE",
"475 700 OFFCURVE",
"559 552 OFFCURVE",
"577 515 CURVE",
"583 515 LINE",
"560 704 LINE"
);
}
);
width = 588;
},
{
layerId = "4AEC2A2F-21E0-4005-B5C4-61417F12BD89";
paths = (
{
closed = 1;
nodes = (
"173 0 LINE",
"273 0 LINE",
"482 700 LINE",
"382 700 LINE"
);
},
{
closed = 1;
nodes = (
"183 36 LINE",
"57 6 LINE",
"56 0 LINE",
"193 0 LINE"
);
},
{
closed = 1;
nodes = (
"390 0 LINE",
"391 6 LINE",
"283 36 LINE",
"253 0 LINE"
);
},
{
closed = 1;
nodes = (
"260 681 LINE",
"427 681 LINE",
"433 700 LINE",
"266 700 LINE"
);
},
{
closed = 1;
nodes = (
"129 515 LINE",
"135 515 LINE",
"163 552 OFFCURVE",
"292 700 OFFCURVE",
"321 699 CURVE",
"279 700 LINE SMOOTH",
"269 700 OFFCURVE",
"234 702 OFFCURVE",
"221 704 CURVE",
"208 704 LINE"
);
},
{
closed = 1;
nodes = (
"433 700 LINE",
"427 681 LINE",
"604 681 LINE",
"610 700 LINE"
);
},
{
closed = 1;
nodes = (
"657 704 LINE",
"644 702 OFFCURVE",
"607 700 OFFCURVE",
"597 700 CURVE SMOOTH",
"553 699 LINE",
"584 700 OFFCURVE",
"623 552 OFFCURVE",
"631 515 CURVE",
"637 515 LINE",
"670 704 LINE"
);
}
);
width = 566;
},
{
layerId = "E6F0BB9C-0782-48C1-8D27-B7622AB80911";
paths = (
{
closed = 1;
nodes = (
"211 0 LINE",
"311 0 LINE",
"434 700 LINE",
"334 700 LINE"
);
},
{
closed = 1;
nodes = (
"217 36 LINE",
"95 6 LINE",
"94 0 LINE",
"231 0 LINE"
);
},
{
closed = 1;
nodes = (
"428 0 LINE",
"429 6 LINE",
"317 36 LINE",
"291 0 LINE"
);
},
{
closed = 1;
nodes = (
"195 681 LINE",
"382 681 LINE",
"385 700 LINE",
"198 700 LINE"
);
},
{
closed = 1;
nodes = (
"84 515 LINE",
"90 515 LINE",
"114 552 OFFCURVE",
"224 700 OFFCURVE",
"254 699 CURVE",
"211 700 LINE",
"201 700 OFFCURVE",
"166 702 OFFCURVE",
"153 704 CURVE",
"140 704 LINE"
);
},
{
closed = 1;
nodes = (
"385 700 LINE",
"382 681 LINE",
"569 681 LINE",
"572 700 LINE"
);
},
{
closed = 1;
nodes = (
"619 704 LINE",
"606 702 OFFCURVE",
"569 700 OFFCURVE",
"559 700 CURVE",
"516 699 LINE",
"546 700 OFFCURVE",
"604 552 OFFCURVE",
"616 515 CURVE",
"622 515 LINE",
"632 704 LINE"
);
}
);
width = 578;
},
{
associatedMasterId = "33C692B7-ECA1-4228-A9DA-44701B454552";
layerId = "EB34AA33-F50C-4FD8-9B71-242498702479";
width = 600;
},
{
associatedMasterId = "33C692B7-ECA1-4228-A9DA-44701B454552";
layerId = "260799CA-1354-4986-AE02-6BB02FE3B1C6";
width = 600;
},
{
associatedMasterId = "33C692B7-ECA1-4228-A9DA-44701B454552";
layerId = "D8374064-0A1B-4C7C-ABB6-28D8469F3434";
width = 600;
},
{
associatedMasterId = "33C692B7-ECA1-4228-A9DA-44701B454552";
layerId = "63A61D1F-9C45-4792-A0E0-9E10E92945A7";
width = 600;
},
{
layerId = "6E858C87-3851-4F0D-A4B8-5C62800DDA3D";
width = 600;
}
);
unicode = 0054;
},
{
glyphname = U;
lastChange = "2018-08-22 08:20:32 +0000";
layers = (
{
background = {
paths = (
{
closed = 1;
nodes = (
"119 0 LINE",
"219 0 LINE",
"219 700 LINE",
"119 700 LINE"
);
},
{
closed = 1;
nodes = (
"52 700 LINE",
"52 694 LINE",
"119 684 LINE",
"139 700 LINE"
);
},
{
closed = 1;
nodes = (
"219 684 LINE",
"278 694 LINE",
"278 700 LINE",
"191 700 LINE"
);
},
{
closed = 1;
nodes = (
"119 16 LINE",
"52 6 LINE",
"52 0 LINE",
"139 0 LINE"
);
},
{
closed = 1;
nodes = (
"286 0 LINE",
"286 6 LINE",
"219 16 LINE",
"199 0 LINE"
);
}
);
};
layerId = "33C692B7-ECA1-4228-A9DA-44701B454552";
paths = (
{
closed = 1;
nodes = (
"109 686 LINE",
"109 249 LINE SMOOTH",
"109 58 OFFCURVE",
"204 -12 OFFCURVE",
"328 -12 CURVE SMOOTH",
"460 -12 OFFCURVE",
"592 87 OFFCURVE",
"592 266 CURVE SMOOTH",
"592 674 LINE",
"651 694 LINE",
"651 700 LINE",
"481 700 LINE",
"481 694 LINE",
"564 674 LINE",
"564 266 LINE SMOOTH",
"564 123 OFFCURVE",
"473 27 OFFCURVE",
"358 27 CURVE SMOOTH",
"275 27 OFFCURVE",
"209 114 OFFCURVE",
"209 243 CURVE SMOOTH",
"209 686 LINE",
"268 693 LINE",
"268 700 LINE",
"50 700 LINE",
"50 695 LINE"
);
}
);
width = 664;
},
{
layerId = "4AEC2A2F-21E0-4005-B5C4-61417F12BD89";
paths = (
{
closed = 1;
nodes = (
"214 672 LINE",
"172 532 OFFCURVE",
"62 181 OFFCURVE",
"62 113 CURVE SMOOTH",
"62 47 OFFCURVE",
"110 -14 OFFCURVE",
"229 -12 CURVE",
"325 13 OFFCURVE",
"459 79 OFFCURVE",
"506 239 CURVE SMOOTH",
"636 674 LINE",
"721 694 LINE",
"723 700 LINE",
"533 700 LINE",
"531 694 LINE",
"610 674 LINE",
"483 266 LINE SMOOTH",
"437 112 OFFCURVE",
"329 36 OFFCURVE",
"264 36 CURVE SMOOTH",
"203 36 OFFCURVE",
"174 62 OFFCURVE",
"174 125 CURVE SMOOTH",
"174 212 OFFCURVE",
"270 517 OFFCURVE",
"318 675 CURVE",
"395 693 LINE",
"397 700 LINE",
"131 700 LINE",
"129 695 LINE"
);
}
);
width = 591;
},
{
layerId = "E6F0BB9C-0782-48C1-8D27-B7622AB80911";
paths = (
{
closed = 1;
nodes = (
"158 684 LINE",
"138 568 OFFCURVE",
"76 223 OFFCURVE",
"76 154 CURVE",
"76 65 OFFCURVE",
"131 -14 OFFCURVE",
"273 -12 CURVE",
"366 13 OFFCURVE",
"502 79 OFFCURVE",
"530 239 CURVE",
"606 674 LINE",
"689 694 LINE",
"690 700 LINE",
"500 700 LINE",
"499 694 LINE",
"578 674 LINE",
"506 266 LINE",
"479 112 OFFCURVE",
"399 41 OFFCURVE",
"302 41 CURVE",
"263 41 OFFCURVE",
"174 51 OFFCURVE",
"174 181 CURVE",
"174 222 OFFCURVE",
"234 557 OFFCURVE",
"257 684 CURVE",
"331 693 LINE",
"332 700 LINE",
"91 700 LINE",
"90 695 LINE"
);
}
);
width = 588;
},
{
associatedMasterId = "33C692B7-ECA1-4228-A9DA-44701B454552";
layerId = "EB34AA33-F50C-4FD8-9B71-242498702479";
width = 600;
},
{
associatedMasterId = "33C692B7-ECA1-4228-A9DA-44701B454552";
layerId = "260799CA-1354-4986-AE02-6BB02FE3B1C6";
width = 600;
},
{
layerId = "6E858C87-3851-4F0D-A4B8-5C62800DDA3D";
width = 600;
},
{
associatedMasterId = "33C692B7-ECA1-4228-A9DA-44701B454552";
layerId = "D8374064-0A1B-4C7C-ABB6-28D8469F3434";
width = 600;
},
{
associatedMasterId = "33C692B7-ECA1-4228-A9DA-44701B454552";
layerId = "63A61D1F-9C45-4792-A0E0-9E10E92945A7";
width = 600;
}
);
unicode = 0055;
},
{
glyphname = V;
lastChange = "2018-08-22 08:20:32 +0000";
layers = (
{
layerId = "33C692B7-ECA1-4228-A9DA-44701B454552";
paths = (
{
closed = 1;
nodes = (
"600 700 LINE",
"569 700 LINE",
"348 0 LINE",
"378 0 LINE"
);
},
{
closed = 1;
nodes = (
"346 0 LINE",
"378 0 LINE",
"364 51 LINE",
"361 51 LINE",
"156 700 LINE",
"45 700 LINE",
"270 -7 LINE"
);
},
{
closed = 1;
nodes = (
"591 674 LINE",
"672 694 LINE",
"672 700 LINE",
"573 700 LINE"
);
},
{
closed = 1;
nodes = (
"482 700 LINE",
"482 694 LINE",
"564 674 LINE",
"584 700 LINE"
);
},
{
closed = 1;
nodes = (
"155 677 LINE",
"232 694 LINE",
"232 700 LINE",
"135 700 LINE"
);
},
{
closed = 1;
nodes = (
"-20 700 LINE",
"-20 694 LINE",
"60 677 LINE",
"80 700 LINE"
);
}
);
width = 637;
},
{
background = {
paths = (
{
closed = 1;
nodes = (
"509 731 OFFCURVE",
"441 659 OFFCURVE",
"441 650 CURVE",
"499 658 OFFCURVE",
"575 573 OFFCURVE",
"586 532 CURVE",
"596 571 OFFCURVE",
"602 602 OFFCURVE",
"602 629 CURVE SMOOTH",
"602 699 OFFCURVE",
"549 731 OFFCURVE",
"515 731 CURVE"
);
},
{
closed = 1;
nodes = (
"84 27 OFFCURVE",
"109 -6 OFFCURVE",
"141 -17 CURVE",
"179 12 LINE",
"170 12 OFFCURVE",
"163 18 OFFCURVE",
"163 26 CURVE",
"210 213 OFFCURVE",
"324 489 OFFCURVE",
"357 677 CURVE",
"359 692 OFFCURVE",
"354 702 OFFCURVE",
"345 708 CURVE",
"254 659 LINE",
"68 73 LINE"
);
},
{
closed = 1;
nodes = (
"340 691 LINE",
"345 708 LINE",
"123 606 LINE",
"122 595 LINE"
);
},
{
closed = 1;
nodes = (
"97 -43 OFFCURVE",
"100 -46 OFFCURVE",
"105 -47 CURVE",
"293 63 OFFCURVE",
"565 351 OFFCURVE",
"591 560 CURVE SMOOTH",
"592 568 OFFCURVE",
"592 574 OFFCURVE",
"592 580 CURVE SMOOTH",
"592 596 OFFCURVE",
"589 604 OFFCURVE",
"585 604 CURVE SMOOTH",
"580 604 OFFCURVE",
"573 592 OFFCURVE",
"571 566 CURVE",
"550 346 OFFCURVE",
"288 77 OFFCURVE",
"97 -38 CURVE"
);
}
);
};
layerId = "4AEC2A2F-21E0-4005-B5C4-61417F12BD89";
paths = (
{
closed = 1;
nodes = (
"509 731 OFFCURVE",
"441 659 OFFCURVE",
"441 650 CURVE",
"499 658 OFFCURVE",
"575 573 OFFCURVE",
"586 532 CURVE",
"596 571 OFFCURVE",
"602 602 OFFCURVE",
"602 629 CURVE SMOOTH",
"602 699 OFFCURVE",
"549 731 OFFCURVE",
"515 731 CURVE SMOOTH"
);
},
{
closed = 1;
nodes = (
"84 27 OFFCURVE",
"109 -6 OFFCURVE",
"141 -17 CURVE",
"179 12 LINE",
"170 12 OFFCURVE",
"163 18 OFFCURVE",
"163 26 CURVE",
"210 213 OFFCURVE",
"324 489 OFFCURVE",
"357 677 CURVE",
"359 692 OFFCURVE",
"354 702 OFFCURVE",
"345 708 CURVE",
"254 659 LINE",
"68 73 LINE"
);
},
{
closed = 1;
nodes = (
"97 -43 OFFCURVE",
"100 -46 OFFCURVE",
"105 -47 CURVE",
"293 63 OFFCURVE",
"565 351 OFFCURVE",
"591 560 CURVE SMOOTH",
"592 568 OFFCURVE",
"592 574 OFFCURVE",
"592 580 CURVE SMOOTH",
"592 596 OFFCURVE",
"589 604 OFFCURVE",
"585 604 CURVE SMOOTH",
"580 604 OFFCURVE",
"565 601 OFFCURVE",
"563 575 CURVE SMOOTH",
"542 355 OFFCURVE",
"288 77 OFFCURVE",
"97 -38 CURVE"
);
},
{
closed = 1;
nodes = (
"123 606 LINE",
"128 593 LINE",
"355 693 LINE",
"345 707 LINE"
);
}
);
width = 527;
},
{
layerId = "E6F0BB9C-0782-48C1-8D27-B7622AB80911";
paths = (
{
closed = 1;
nodes = (
"42 700 LINE",
"41 694 LINE",
"148 684 LINE",
"172 700 LINE"
);
},
{
closed = 1;
nodes = (
"271 0 LINE",
"303 0 LINE",
"298 51 LINE",
"295 51 LINE",
"245 700 LINE",
"134 700 LINE",
"194 -7 LINE"
);
},
{
closed = 1;
nodes = (
"649 700 LINE",
"620 700 LINE",
"275 0 LINE",
"303 0 LINE"
);
},
{
closed = 1;
nodes = (
"451 700 LINE",
"450 694 LINE",
"522 694 OFFCURVE",
"539 618 OFFCURVE",
"539 535 CURVE",
"633 700 LINE"
);
}
);
width = 562;
},
{
associatedMasterId = "33C692B7-ECA1-4228-A9DA-44701B454552";
layerId = "EB34AA33-F50C-4FD8-9B71-242498702479";
width = 600;
},
{
associatedMasterId = "33C692B7-ECA1-4228-A9DA-44701B454552";
layerId = "260799CA-1354-4986-AE02-6BB02FE3B1C6";
width = 600;
},
{
associatedMasterId = "33C692B7-ECA1-4228-A9DA-44701B454552";
layerId = "D8374064-0A1B-4C7C-ABB6-28D8469F3434";
width = 600;
},
{
associatedMasterId = "33C692B7-ECA1-4228-A9DA-44701B454552";
layerId = "63A61D1F-9C45-4792-A0E0-9E10E92945A7";
width = 600;
},
{
layerId = "6E858C87-3851-4F0D-A4B8-5C62800DDA3D";
width = 600;
}
);
unicode = 0056;
},
{
glyphname = W;
lastChange = "2018-08-22 08:20:32 +0000";
layers = (
{
layerId = "33C692B7-ECA1-4228-A9DA-44701B454552";
paths = (
{
closed = 1;
nodes = (
"587 700 LINE",
"556 700 LINE",
"335 0 LINE",
"365 0 LINE"
);
},
{
closed = 1;
nodes = (
"155 677 LINE",
"232 694 LINE",
"232 700 LINE",
"135 700 LINE"
);
},
{
closed = 1;
nodes = (
"-20 700 LINE",
"-20 694 LINE",
"60 677 LINE",
"80 700 LINE"
);
},
{
closed = 1;
nodes = (
"333 0 LINE",
"365 0 LINE",
"351 51 LINE",
"348 51 LINE",
"153 700 LINE",
"42 700 LINE",
"257 -7 LINE"
);
},
{
closed = 1;
nodes = (
"1027 700 LINE",
"996 700 LINE",
"785 0 LINE",
"815 0 LINE"
);
},
{
closed = 1;
nodes = (
"783 0 LINE",
"815 0 LINE",
"801 51 LINE",
"798 51 LINE",
"593 700 LINE",
"482 700 LINE",
"707 -7 LINE"
);
},
{
closed = 1;
nodes = (
"1018 674 LINE",
"1099 694 LINE",
"1099 700 LINE",
"1000 700 LINE"
);
},
{
closed = 1;
nodes = (
"909 700 LINE",
"909 694 LINE",
"991 674 LINE",
"1011 700 LINE"
);
}
);
width = 1064;
},
{
layerId = "4AEC2A2F-21E0-4005-B5C4-61417F12BD89";
paths = (
{
closed = 1;
nodes = (
"84 27 OFFCURVE",
"109 -6 OFFCURVE",
"141 -17 CURVE",
"179 12 LINE",
"170 12 OFFCURVE",
"163 18 OFFCURVE",
"163 26 CURVE",
"210 213 OFFCURVE",
"324 489 OFFCURVE",
"357 677 CURVE",
"359 692 OFFCURVE",
"354 702 OFFCURVE",
"345 708 CURVE",
"254 659 LINE",
"68 73 LINE"
);
},
{
closed = 1;
nodes = (
"340 691 LINE",
"345 708 LINE",
"123 606 LINE",
"122 595 LINE"
);
},
{
closed = 1;
nodes = (
"97 -43 OFFCURVE",
"100 -46 OFFCURVE",
"105 -47 CURVE",
"293 63 OFFCURVE",
"547 351 OFFCURVE",
"571 560 CURVE SMOOTH",
"577 617 OFFCURVE",
"556 619 OFFCURVE",
"551 566 CURVE SMOOTH",
"530 346 OFFCURVE",
"288 77 OFFCURVE",
"97 -38 CURVE"
);
},
{
closed = 1;
nodes = (
"404 27 OFFCURVE",
"429 -6 OFFCURVE",
"461 -17 CURVE",
"499 12 LINE",
"490 12 OFFCURVE",
"483 18 OFFCURVE",
"483 26 CURVE",
"530 213 OFFCURVE",
"624 489 OFFCURVE",
"657 677 CURVE",
"656 688 OFFCURVE",
"654 702 OFFCURVE",
"645 708 CURVE",
"544 659 LINE",
"544 517 OFFCURVE",
"403 73 OFFCURVE",
"388 73 CURVE"
);
},
{
closed = 1;
nodes = (
"417 -43 OFFCURVE",
"420 -46 OFFCURVE",
"425 -47 CURVE",
"613 63 OFFCURVE",
"865 351 OFFCURVE",
"891 560 CURVE SMOOTH",
"898 617 OFFCURVE",
"885 697 OFFCURVE",
"798 712 CURVE",
"795 707 LINE",
"879 684 OFFCURVE",
"876 619 OFFCURVE",
"871 566 CURVE SMOOTH",
"850 346 OFFCURVE",
"608 77 OFFCURVE",
"417 -38 CURVE"
);
},
{
closed = 1;
nodes = (
"778 697 OFFCURVE",
"741 660 OFFCURVE",
"724 631 CURVE",
"782 639 OFFCURVE",
"859 554 OFFCURVE",
"870 513 CURVE",
"876 649 LINE",
"859 680 OFFCURVE",
"836 701 OFFCURVE",
"806 709 CURVE",
"798 712 LINE"
);
}
);
width = 827;
},
{
layerId = "E6F0BB9C-0782-48C1-8D27-B7622AB80911";
paths = (
{
closed = 1;
nodes = (
"626 700 LINE",
"600 700 LINE",
"243 0 LINE",
"273 0 LINE"
);
},
{
closed = 1;
nodes = (
"42 700 LINE",
"41 694 LINE",
"148 684 LINE",
"172 700 LINE"
);
},
{
closed = 1;
nodes = (
"241 0 LINE",
"273 0 LINE",
"268 51 LINE",
"265 51 LINE",
"245 700 LINE",
"134 700 LINE",
"164 -7 LINE"
);
},
{
closed = 1;
nodes = (
"1049 700 LINE",
"1022 700 LINE",
"653 0 LINE",
"683 0 LINE"
);
},
{
closed = 1;
nodes = (
"651 0 LINE",
"683 0 LINE",
"673 38 LINE",
"675 51 LINE",
"624 709 LINE",
"517 682 LINE",
"574 -7 LINE"
);
},
{
closed = 1;
nodes = (
"831 700 LINE",
"830 694 LINE",
"902 694 OFFCURVE",
"937 618 OFFCURVE",
"937 535 CURVE",
"1033 700 LINE"
);
}
);
width = 962;
},
{
associatedMasterId = "33C692B7-ECA1-4228-A9DA-44701B454552";
layerId = "EB34AA33-F50C-4FD8-9B71-242498702479";
width = 600;
},
{
associatedMasterId = "33C692B7-ECA1-4228-A9DA-44701B454552";
layerId = "260799CA-1354-4986-AE02-6BB02FE3B1C6";
width = 600;
},
{
associatedMasterId = "33C692B7-ECA1-4228-A9DA-44701B454552";
layerId = "D8374064-0A1B-4C7C-ABB6-28D8469F3434";
width = 600;
},
{
associatedMasterId = "33C692B7-ECA1-4228-A9DA-44701B454552";
layerId = "63A61D1F-9C45-4792-A0E0-9E10E92945A7";
width = 600;
},
{
layerId = "6E858C87-3851-4F0D-A4B8-5C62800DDA3D";
width = 600;
}
);
leftMetricsKey = V;
rightMetricsKey = V;
unicode = 0057;
},
{
glyphname = X;
lastChange = "2018-08-22 08:20:32 +0000";
layers = (
{
background = {
paths = (
{
closed = 1;
nodes = (
"56 684 LINE",
"287 313 LINE",
"86 16 LINE",
"-16 10 LINE",
"-16 0 LINE",
"210 0 LINE",
"210 10 LINE",
"104 16 LINE",
"295 300 LINE",
"473 16 LINE",
"396 10 LINE",
"396 0 LINE",
"664 0 LINE",
"664 10 LINE",
"600 16 LINE",
"370 382 LINE",
"569 684 LINE",
"667 690 LINE",
"667 700 LINE",
"445 700 LINE",
"445 690 LINE",
"551 684 LINE",
"362 396 LINE",
"182 684 LINE",
"256 690 LINE",
"256 700 LINE",
"-9 700 LINE",
"-9 691 LINE"
);
}
);
};
layerId = "33C692B7-ECA1-4228-A9DA-44701B454552";
paths = (
{
closed = 1;
nodes = (
"592 0 LINE",
"189 700 LINE",
"84 700 LINE",
"485 0 LINE"
);
},
{
closed = 1;
nodes = (
"326 366 LINE",
"301 366 LINE",
"83 -2 LINE",
"119 0 LINE"
);
},
{
closed = 1;
nodes = (
"543 702 LINE",
"516 702 LINE",
"311 386 LINE",
"336 388 LINE"
);
},
{
closed = 1;
nodes = (
"506 680 LINE",
"522 680 LINE",
"606 696 LINE",
"606 702 LINE",
"442 702 LINE",
"442 696 LINE"
);
},
{
closed = 1;
nodes = (
"189 683 LINE",
"251 696 LINE",
"251 700 LINE",
"175 700 LINE"
);
},
{
closed = 1;
nodes = (
"37 700 LINE",
"37 696 LINE",
"99 683 LINE",
"110 700 LINE"
);
},
{
closed = 1;
nodes = (
"133 20 LINE",
"99 20 LINE",
"19 4 LINE",
"19 -2 LINE",
"201 -2 LINE",
"201 4 LINE"
);
},
{
closed = 1;
nodes = (
"488 17 LINE",
"426 4 LINE",
"426 0 LINE",
"502 0 LINE"
);
},
{
closed = 1;
nodes = (
"640 0 LINE",
"640 4 LINE",
"578 17 LINE",
"567 0 LINE"
);
}
);
width = 635;
},
{
layerId = "4AEC2A2F-21E0-4005-B5C4-61417F12BD89";
paths = (
{
closed = 1;
nodes = (
"455 0 LINE",
"282 700 LINE",
"177 700 LINE",
"348 0 LINE"
);
},
{
closed = 1;
nodes = (
"298 366 LINE",
"272 366 LINE",
"-28 -2 LINE",
"10 0 LINE"
);
},
{
closed = 1;
nodes = (
"609 702 LINE",
"580 702 LINE",
"288 386 LINE",
"315 388 LINE"
);
},
{
closed = 1;
nodes = (
"566 680 LINE",
"584 680 LINE",
"671 696 LINE",
"673 702 LINE",
"509 702 LINE",
"507 696 LINE"
);
},
{
closed = 1;
nodes = (
"277 683 LINE",
"342 696 LINE",
"344 700 LINE",
"268 700 LINE"
);
},
{
closed = 1;
nodes = (
"130 700 LINE",
"128 696 LINE",
"187 683 LINE",
"203 700 LINE"
);
},
{
closed = 1;
nodes = (
"26 20 LINE",
"-6 20 LINE",
"-91 4 LINE",
"-92 -2 LINE",
"90 -2 LINE",
"91 4 LINE"
);
},
{
closed = 1;
nodes = (
"356 17 LINE",
"290 4 LINE",
"289 0 LINE",
"365 0 LINE"
);
},
{
closed = 1;
nodes = (
"503 0 LINE",
"504 4 LINE",
"446 17 LINE",
"430 0 LINE"
);
}
);
width = 557;
},
{
layerId = "E6F0BB9C-0782-48C1-8D27-B7622AB80911";
paths = (
{
closed = 1;
nodes = (
"518 0 LINE",
"249 700 LINE",
"144 700 LINE",
"411 0 LINE"
);
},
{
closed = 1;
nodes = (
"326 366 LINE",
"297 366 LINE",
"10 -2 LINE",
"45 0 LINE"
);
},
{
closed = 1;
nodes = (
"587 702 LINE",
"560 702 LINE",
"304 387 LINE",
"333 388 LINE"
);
},
{
closed = 1;
nodes = (
"546 680 LINE",
"562 680 LINE",
"649 696 LINE",
"650 702 LINE",
"486 702 LINE",
"485 696 LINE"
);
},
{
closed = 1;
nodes = (
"246 683 LINE",
"310 696 LINE",
"311 700 LINE",
"235 700 LINE"
);
},
{
closed = 1;
nodes = (
"97 700 LINE",
"96 696 LINE",
"156 683 LINE",
"170 700 LINE"
);
},
{
closed = 1;
nodes = (
"64 20 LINE",
"32 20 LINE",
"-51 4 LINE",
"-52 -2 LINE",
"130 -2 LINE",
"131 4 LINE"
);
},
{
closed = 1;
nodes = (
"417 17 LINE",
"353 4 LINE",
"352 0 LINE",
"428 0 LINE"
);
},
{
closed = 1;
nodes = (
"566 0 LINE",
"567 4 LINE",
"507 17 LINE",
"493 0 LINE"
);
}
);
width = 594;
},
{
associatedMasterId = "33C692B7-ECA1-4228-A9DA-44701B454552";
layerId = "EB34AA33-F50C-4FD8-9B71-242498702479";
width = 600;
},
{
associatedMasterId = "33C692B7-ECA1-4228-A9DA-44701B454552";
layerId = "260799CA-1354-4986-AE02-6BB02FE3B1C6";
width = 600;
},
{
associatedMasterId = "33C692B7-ECA1-4228-A9DA-44701B454552";
layerId = "D8374064-0A1B-4C7C-ABB6-28D8469F3434";
width = 600;
},
{
associatedMasterId = "33C692B7-ECA1-4228-A9DA-44701B454552";
layerId = "63A61D1F-9C45-4792-A0E0-9E10E92945A7";
width = 600;
},
{
layerId = "6E858C87-3851-4F0D-A4B8-5C62800DDA3D";
width = 600;
}
);
unicode = 0058;
},
{
glyphname = Y;
lastChange = "2018-08-22 08:20:32 +0000";
layers = (
{
layerId = "33C692B7-ECA1-4228-A9DA-44701B454552";
paths = (
{
closed = 1;
nodes = (
"227 0 LINE",
"327 0 LINE",
"327 323 LINE",
"227 332 LINE"
);
},
{
closed = 1;
nodes = (
"227 16 LINE",
"160 6 LINE",
"160 0 LINE",
"247 0 LINE"
);
},
{
closed = 1;
nodes = (
"394 0 LINE",
"394 6 LINE",
"327 16 LINE",
"307 0 LINE"
);
},
{
closed = 1;
nodes = (
"511 700 LINE",
"488 700 LINE",
"304 321 LINE",
"326 321 LINE"
);
},
{
closed = 1;
nodes = (
"143 683 LINE",
"205 696 LINE",
"205 700 LINE",
"129 700 LINE"
);
},
{
closed = 1;
nodes = (
"-20 700 LINE",
"-20 696 LINE",
"46 683 LINE",
"53 700 LINE"
);
},
{
closed = 1;
nodes = (
"302 321 LINE",
"318 321 LINE",
"313 350 LINE",
"139 700 LINE",
"35 700 LINE",
"228 316 LINE"
);
},
{
closed = 1;
nodes = (
"478 678 LINE",
"500 677 LINE",
"578 694 LINE",
"578 700 LINE",
"414 700 LINE",
"414 694 LINE"
);
}
);
width = 518;
},
{
layerId = "4AEC2A2F-21E0-4005-B5C4-61417F12BD89";
paths = (
{
closed = 1;
nodes = (
"159 0 LINE",
"259 0 LINE",
"353 314 LINE",
"258 328 LINE"
);
},
{
closed = 1;
nodes = (
"164 16 LINE",
"93 6 LINE",
"92 0 LINE",
"179 0 LINE"
);
},
{
closed = 1;
nodes = (
"326 0 LINE",
"327 6 LINE",
"264 16 LINE",
"239 0 LINE"
);
},
{
closed = 1;
nodes = (
"641 700 LINE",
"612 700 LINE",
"331 316 LINE",
"353 314 LINE"
);
},
{
closed = 1;
nodes = (
"292 683 LINE",
"358 696 LINE",
"359 700 LINE",
"283 700 LINE"
);
},
{
closed = 1;
nodes = (
"152 700 LINE",
"151 696 LINE",
"209 683 LINE",
"225 700 LINE"
);
},
{
closed = 1;
nodes = (
"330 317 LINE",
"337 317 LINE",
"340 343 LINE",
"293 700 LINE",
"207 700 LINE",
"256 321 LINE"
);
},
{
closed = 1;
nodes = (
"597 678 LINE",
"619 677 LINE",
"702 694 LINE",
"704 700 LINE",
"540 700 LINE",
"538 694 LINE"
);
}
);
width = 432;
},
{
layerId = "E6F0BB9C-0782-48C1-8D27-B7622AB80911";
paths = (
{
closed = 1;
nodes = (
"145 0 LINE",
"245 0 LINE",
"302 323 LINE",
"204 332 LINE"
);
},
{
closed = 1;
nodes = (
"148 16 LINE",
"79 6 LINE",
"78 0 LINE",
"165 0 LINE"
);
},
{
closed = 1;
nodes = (
"312 0 LINE",
"313 6 LINE",
"248 16 LINE",
"225 0 LINE"
);
},
{
closed = 1;
nodes = (
"533 700 LINE",
"510 700 LINE",
"277 321 LINE",
"301 321 LINE"
);
},
{
closed = 1;
nodes = (
"194 683 LINE",
"258 696 LINE",
"259 700 LINE",
"183 700 LINE"
);
},
{
closed = 1;
nodes = (
"42 700 LINE",
"41 696 LINE",
"101 683 LINE",
"115 700 LINE"
);
},
{
closed = 1;
nodes = (
"277 321 LINE",
"298 321 LINE",
"293 350 LINE",
"193 700 LINE",
"97 700 LINE",
"202 316 LINE"
);
},
{
closed = 1;
nodes = (
"500 678 LINE",
"519 677 LINE",
"596 694 LINE",
"597 700 LINE",
"440 700 LINE",
"439 694 LINE"
);
}
);
width = 455;
},
{
associatedMasterId = "33C692B7-ECA1-4228-A9DA-44701B454552";
layerId = "EB34AA33-F50C-4FD8-9B71-242498702479";
width = 600;
},
{
associatedMasterId = "33C692B7-ECA1-4228-A9DA-44701B454552";
layerId = "260799CA-1354-4986-AE02-6BB02FE3B1C6";
width = 600;
},
{
associatedMasterId = "33C692B7-ECA1-4228-A9DA-44701B454552";
layerId = "D8374064-0A1B-4C7C-ABB6-28D8469F3434";
width = 600;
},
{
associatedMasterId = "33C692B7-ECA1-4228-A9DA-44701B454552";
layerId = "63A61D1F-9C45-4792-A0E0-9E10E92945A7";
width = 600;
},
{
layerId = "6E858C87-3851-4F0D-A4B8-5C62800DDA3D";
width = 600;
}
);
leftMetricsKey = V;
unicode = 0059;
},
{
glyphname = Z;
lastChange = "2018-08-22 08:20:32 +0000";
layers = (
{
background = {
paths = (
{
closed = 1;
nodes = (
"502 -1 LINE",
"498 165 LINE",
"158 702 LINE",
"64 699 LINE",
"45 699 LINE",
"58 660 LINE",
"474 -1 LINE"
);
},
{
closed = 1;
nodes = (
"28 -1 LINE",
"59 -1 LINE",
"58 699 LINE",
"32 699 LINE"
);
},
{
closed = 1;
nodes = (
"-56 699 LINE",
"-56 686 LINE",
"36 672 LINE",
"49 699 LINE"
);
},
{
closed = 1;
nodes = (
"-64 -1 LINE",
"160 -1 LINE",
"160 5 LINE",
"59 23 LINE",
"29 22 LINE",
"-64 5 LINE"
);
},
{
closed = 1;
nodes = (
"524 -1 LINE",
"525 699 LINE",
"494 699 LINE",
"498 -1 LINE"
);
},
{
closed = 1;
nodes = (
"495 676 LINE",
"525 675 LINE",
"626 693 LINE",
"626 699 LINE",
"382 699 LINE",
"382 693 LINE"
);
}
);
};
layerId = "33C692B7-ECA1-4228-A9DA-44701B454552";
paths = (
{
closed = 1;
nodes = (
"543 688 LINE",
"535 700 LINE",
"437 700 LINE",
"25 14 LINE",
"37 0 LINE",
"145 0 LINE"
);
},
{
closed = 1;
nodes = (
"60 685 LINE",
"429 684 LINE",
"439 700 LINE",
"60 700 LINE"
);
},
{
closed = 1;
nodes = (
"129 0 LINE",
"503 0 LINE",
"503 15 LINE",
"129 15 LINE"
);
},
{
closed = 1;
nodes = (
"515 203 LINE",
"506 205 LINE",
"410 14 LINE",
"503 0 LINE"
);
},
{
closed = 1;
nodes = (
"56 517 LINE",
"65 515 LINE",
"158 685 LINE",
"60 694 LINE"
);
}
);
width = 568;
},
{
layerId = "4AEC2A2F-21E0-4005-B5C4-61417F12BD89";
paths = (
{
closed = 1;
nodes = (
"108 466 LINE",
"276 700 LINE",
"178 725 LINE",
"85 466 LINE"
);
},
{
closed = 1;
nodes = (
"329 -28 LINE",
"334 -31 LINE",
"414 17 LINE",
"582 127 LINE",
"574 142 LINE",
"396 32 LINE",
"265 32 OFFCURVE",
"275 138 OFFCURVE",
"120 138 CURVE",
"50 59 LINE"
);
},
{
closed = 1;
nodes = (
"-24 -6 OFFCURVE",
"-3 -6 OFFCURVE",
"11 -3 CURVE",
"114 120 OFFCURVE",
"136 156 OFFCURVE",
"222 240 CURVE",
"305 240 OFFCURVE",
"644 546 OFFCURVE",
"644 708 CURVE",
"641 711 OFFCURVE",
"594 748 OFFCURVE",
"588 749 CURVE",
"518 666 LINE",
"178 725 LINE",
"180 693 LINE",
"281 702 OFFCURVE",
"477 653 OFFCURVE",
"498 648 CURVE",
"498 584 OFFCURVE",
"242 289 OFFCURVE",
"39 65 CURVE",
"18 40 OFFCURVE",
"-12 14 OFFCURVE",
"-37 -4 CURVE"
);
}
);
width = 600;
},
{
layerId = "E6F0BB9C-0782-48C1-8D27-B7622AB80911";
paths = (
{
closed = 1;
nodes = (
"612 688 LINE",
"606 700 LINE",
"498 700 LINE",
"-17 14 LINE",
"-7 0 LINE",
"103 0 LINE"
);
},
{
closed = 1;
nodes = (
"138 684 LINE",
"500 683 LINE",
"503 700 LINE",
"141 700 LINE"
);
},
{
closed = 1;
nodes = (
"87 0 LINE",
"441 0 LINE",
"444 16 LINE",
"102 19 LINE"
);
},
{
closed = 1;
nodes = (
"488 203 LINE",
"480 205 LINE",
"357 18 LINE",
"441 0 LINE"
);
},
{
closed = 1;
nodes = (
"105 517 LINE",
"113 515 LINE",
"236 684 LINE",
"140 694 LINE"
);
}
);
width = 600;
},
{
associatedMasterId = "33C692B7-ECA1-4228-A9DA-44701B454552";
layerId = "EB34AA33-F50C-4FD8-9B71-242498702479";
width = 600;
},
{
associatedMasterId = "33C692B7-ECA1-4228-A9DA-44701B454552";
layerId = "260799CA-1354-4986-AE02-6BB02FE3B1C6";
width = 600;
},
{
associatedMasterId = "33C692B7-ECA1-4228-A9DA-44701B454552";
layerId = "D8374064-0A1B-4C7C-ABB6-28D8469F3434";
width = 600;
},
{
associatedMasterId = "33C692B7-ECA1-4228-A9DA-44701B454552";
layerId = "63A61D1F-9C45-4792-A0E0-9E10E92945A7";
width = 600;
},
{
layerId = "6E858C87-3851-4F0D-A4B8-5C62800DDA3D";
width = 600;
}
);
unicode = 005A;
},
{
glyphname = A.001;
lastChange = "2018-10-25 08:57:41 +0000";
layers = (
{
layerId = "33C692B7-ECA1-4228-A9DA-44701B454552";
paths = (
{
closed = 1;
nodes = (
"59 0 LINE",
"90 0 LINE",
"335 700 LINE",
"309 700 LINE"
);
},
{
closed = 1;
nodes = (
"162 246 LINE",
"514 246 LINE",
"514 265 LINE",
"170 265 LINE"
);
},
{
closed = 1;
nodes = (
"68 22 LINE",
"-15 6 LINE",
"-15 0 LINE",
"60 0 LINE"
);
},
{
closed = 1;
nodes = (
"525 18 LINE",
"448 6 LINE",
"448 0 LINE",
"545 0 LINE"
);
},
{
closed = 1;
nodes = (
"700 0 LINE",
"700 6 LINE",
"624 18 LINE",
"600 0 LINE"
);
},
{
closed = 1;
nodes = (
"337 700 LINE",
"302 700 LINE",
"319 653 LINE",
"321 643 LINE",
"520 0 LINE",
"629 0 LINE",
"404 705 LINE"
);
},
{
closed = 1;
nodes = (
"227 700 LINE",
"227 694 LINE",
"304 680 LINE",
"317 700 LINE"
);
},
{
closed = 1;
nodes = (
"185 0 LINE",
"185 6 LINE",
"94 22 LINE",
"90 0 LINE"
);
}
);
width = 660;
},
{
layerId = "E6F0BB9C-0782-48C1-8D27-B7622AB80911";
paths = (
{
closed = 1;
nodes = (
"-9 0 LINE",
"22 0 LINE",
"390 700 LINE",
"364 700 LINE"
);
},
{
closed = 1;
nodes = (
"137 246 LINE",
"489 246 LINE",
"493 265 LINE",
"149 265 LINE"
);
},
{
closed = 1;
nodes = (
"430 16 LINE",
"361 6 LINE",
"360 0 LINE",
"447 0 LINE"
);
},
{
closed = 1;
nodes = (
"592 0 LINE",
"593 6 LINE",
"529 16 LINE",
"502 0 LINE"
);
},
{
closed = 1;
nodes = (
"392 700 LINE",
"357 700 LINE",
"363 653 LINE",
"366 643 LINE",
"422 0 LINE",
"531 0 LINE",
"450 705 LINE"
);
},
{
closed = 1;
nodes = (
"282 700 LINE",
"281 694 LINE",
"356 680 LINE",
"372 700 LINE"
);
},
{
closed = 1;
nodes = (
"5 19 LINE",
"-80 6 LINE",
"-80 0 LINE",
"-3 0 LINE"
);
},
{
closed = 1;
nodes = (
"114 0 LINE",
"114 6 LINE",
"29 19 LINE",
"17 0 LINE"
);
}
);
width = 601;
},
{
layerId = "4AEC2A2F-21E0-4005-B5C4-61417F12BD89";
paths = (
{
closed = 1;
nodes = (
"724 702 LINE",
"563 702 OFFCURVE",
"186 642 OFFCURVE",
"178 574 CURVE SMOOTH",
"171 523 OFFCURVE",
"240 476 OFFCURVE",
"273 475 CURVE",
"273 481 LINE",
"242 484 OFFCURVE",
"212 537 OFFCURVE",
"216 573 CURVE",
"227 647 OFFCURVE",
"620 690 OFFCURVE",
"665 690 CURVE"
);
},
{
closed = 1;
nodes = (
"257 251 OFFCURVE",
"215 296 OFFCURVE",
"215 300 CURVE",
"214 300 LINE",
"129 264 LINE",
"129 262 OFFCURVE",
"152 235 OFFCURVE",
"251 235 CURVE SMOOTH",
"539 228 LINE",
"564 244 LINE",
"327 251 LINE SMOOTH"
);
},
{
closed = 1;
nodes = (
"651 38 LINE",
"647 46 LINE",
"548 17 LINE",
"548 -3 LINE"
);
},
{
closed = 1;
nodes = (
"-86 -101 OFFCURVE",
"-49 -108 OFFCURVE",
"-22 -108 CURVE SMOOTH",
"6 -108 OFFCURVE",
"614 626 OFFCURVE",
"635 651 CURVE",
"463 31 LINE",
"478 8 OFFCURVE",
"482 -3 OFFCURVE",
"510 -19 CURVE",
"555 0 LINE",
"734 689 LINE",
"724 702 LINE",
"639 693 LINE",
"84 23 LINE SMOOTH",
"57 -11 OFFCURVE",
"9 -5 OFFCURVE",
"-26 -5 CURVE",
"-102 -87 LINE"
);
}
);
width = 715;
},
{
associatedMasterId = "33C692B7-ECA1-4228-A9DA-44701B454552";
layerId = "EB34AA33-F50C-4FD8-9B71-242498702479";
width = 600;
},
{
associatedMasterId = "33C692B7-ECA1-4228-A9DA-44701B454552";
layerId = "260799CA-1354-4986-AE02-6BB02FE3B1C6";
width = 600;
},
{
associatedMasterId = "33C692B7-ECA1-4228-A9DA-44701B454552";
layerId = "D8374064-0A1B-4C7C-ABB6-28D8469F3434";
width = 600;
},
{
associatedMasterId = "33C692B7-ECA1-4228-A9DA-44701B454552";
layerId = "63A61D1F-9C45-4792-A0E0-9E10E92945A7";
width = 600;
},
{
layerId = "6E858C87-3851-4F0D-A4B8-5C62800DDA3D";
width = 600;
}
);
leftMetricsKey = A;
rightMetricsKey = A;
},
{
glyphname = F.001;
lastChange = "2018-10-25 08:57:41 +0000";
layers = (
{
layerId = "33C692B7-ECA1-4228-A9DA-44701B454552";
paths = (
{
closed = 1;
nodes = (
"96 0 LINE",
"196 0 LINE",
"196 700 LINE",
"96 700 LINE"
);
},
{
closed = 1;
nodes = (
"9 700 LINE",
"9 694 LINE",
"96 681 LINE",
"116 700 LINE"
);
},
{
closed = 1;
nodes = (
"96 19 LINE",
"19 6 LINE",
"19 0 LINE",
"116 0 LINE"
);
},
{
closed = 1;
nodes = (
"313 0 LINE",
"313 6 LINE",
"196 19 LINE",
"176 0 LINE"
);
},
{
closed = 1;
nodes = (
"175 681 LINE",
"536 681 LINE",
"536 700 LINE",
"183 700 LINE"
);
},
{
closed = 1;
nodes = (
"175 322 LINE",
"446 322 LINE",
"446 341 LINE",
"183 341 LINE"
);
},
{
closed = 1;
nodes = (
"446 438 LINE",
"440 438 LINE",
"397 341 LINE",
"446 332 LINE"
);
},
{
closed = 1;
nodes = (
"439 689 LINE",
"469 690 OFFCURVE",
"546 553 OFFCURVE",
"564 516 CURVE",
"570 516 LINE",
"554 703 LINE"
);
},
{
closed = 1;
nodes = (
"397 323 LINE",
"440 226 LINE",
"446 226 LINE",
"446 332 LINE"
);
}
);
width = 581;
},
{
background = {
paths = (
{
closed = 1;
nodes = (
"76 0 LINE",
"176 0 LINE",
"385 700 LINE",
"285 700 LINE"
);
},
{
closed = 1;
nodes = (
"198 700 LINE",
"196 694 LINE",
"279 681 LINE",
"305 700 LINE"
);
},
{
closed = 1;
nodes = (
"81 19 LINE",
"0 6 LINE",
"-1 0 LINE",
"96 0 LINE"
);
},
{
closed = 1;
nodes = (
"293 0 LINE",
"294 6 LINE",
"181 19 LINE",
"156 0 LINE"
);
},
{
closed = 1;
nodes = (
"358 681 LINE",
"654 681 LINE",
"660 700 LINE",
"372 700 LINE"
);
},
{
closed = 1;
nodes = (
"251 324 LINE",
"497 324 LINE",
"504 343 LINE",
"266 343 LINE"
);
},
{
closed = 1;
nodes = (
"533 440 LINE",
"527 440 LINE",
"455 343 LINE",
"501 334 LINE"
);
},
{
closed = 1;
nodes = (
"560 689 LINE",
"590 690 OFFCURVE",
"627 553 OFFCURVE",
"633 516 CURVE",
"639 516 LINE",
"679 703 LINE"
);
},
{
closed = 1;
nodes = (
"449 325 LINE",
"463 228 LINE",
"469 228 LINE",
"501 334 LINE"
);
}
);
};
layerId = "4AEC2A2F-21E0-4005-B5C4-61417F12BD89";
paths = (
{
closed = 1;
nodes = (
"16 531 OFFCURVE",
"96 498 OFFCURVE",
"129 504 CURVE",
"128 510 LINE",
"97 506 OFFCURVE",
"53 552 OFFCURVE",
"53 588 CURVE SMOOTH",
"53 664 OFFCURVE",
"211 690 OFFCURVE",
"282 689 CURVE",
"44 -70 LINE",
"70 -70 OFFCURVE",
"163 -23 OFFCURVE",
"171 0 CURVE",
"270 324 LINE",
"450 324 LINE",
"464 228 LINE",
"470 228 LINE",
"499 324 LINE",
"505 343 LINE",
"535 440 LINE",
"529 440 LINE",
"456 343 LINE",
"276 343 LINE",
"379 681 LINE",
"568 681 LINE",
"593 651 OFFCURVE",
"613 547 OFFCURVE",
"619 516 CURVE",
"625 516 LINE",
"684 703 LINE",
"656 700 LINE",
"305 700 LINE",
"248 702 OFFCURVE",
"13 677 OFFCURVE",
"15 582 CURVE SMOOTH"
);
}
);
width = 556;
},
{
layerId = "E6F0BB9C-0782-48C1-8D27-B7622AB80911";
paths = (
{
closed = 1;
nodes = (
"82 0 LINE",
"182 0 LINE",
"305 700 LINE",
"205 700 LINE"
);
},
{
closed = 1;
nodes = (
"118 700 LINE",
"117 694 LINE",
"202 681 LINE",
"225 700 LINE"
);
},
{
closed = 1;
nodes = (
"85 19 LINE",
"6 6 LINE",
"5 0 LINE",
"102 0 LINE"
);
},
{
closed = 1;
nodes = (
"299 0 LINE",
"300 6 LINE",
"185 19 LINE",
"162 0 LINE"
);
},
{
closed = 1;
nodes = (
"281 681 LINE",
"582 681 LINE",
"585 700 LINE",
"292 700 LINE"
);
},
{
closed = 1;
nodes = (
"218 324 LINE",
"469 324 LINE",
"473 343 LINE",
"230 343 LINE"
);
},
{
closed = 1;
nodes = (
"490 440 LINE",
"484 440 LINE",
"424 343 LINE",
"471 334 LINE"
);
},
{
closed = 1;
nodes = (
"487 689 LINE",
"517 690 OFFCURVE",
"570 553 OFFCURVE",
"581 516 CURVE",
"587 516 LINE",
"604 703 LINE"
);
},
{
closed = 1;
nodes = (
"420 325 LINE",
"446 228 LINE",
"452 228 LINE",
"471 334 LINE"
);
}
);
width = 552;
},
{
associatedMasterId = "33C692B7-ECA1-4228-A9DA-44701B454552";
layerId = "EB34AA33-F50C-4FD8-9B71-242498702479";
width = 600;
},
{
associatedMasterId = "33C692B7-ECA1-4228-A9DA-44701B454552";
layerId = "260799CA-1354-4986-AE02-6BB02FE3B1C6";
width = 600;
},
{
associatedMasterId = "33C692B7-ECA1-4228-A9DA-44701B454552";
layerId = "D8374064-0A1B-4C7C-ABB6-28D8469F3434";
width = 600;
},
{
associatedMasterId = "33C692B7-ECA1-4228-A9DA-44701B454552";
layerId = "63A61D1F-9C45-4792-A0E0-9E10E92945A7";
width = 600;
},
{
layerId = "6E858C87-3851-4F0D-A4B8-5C62800DDA3D";
width = 600;
}
);
rightMetricsKey = F;
},
{
glyphname = J.001;
lastChange = "2018-10-25 08:57:41 +0000";
layers = (
{
layerId = "33C692B7-ECA1-4228-A9DA-44701B454552";
paths = (
{
closed = 1;
nodes = (
"192 699 LINE",
"187 -176 LINE",
"184 -202 OFFCURVE",
"165 -216 OFFCURVE",
"132 -216 CURVE SMOOTH",
"107 -216 OFFCURVE",
"73 -197 OFFCURVE",
"41 -172 CURVE",
"-20 -233 LINE",
"5 -254 OFFCURVE",
"50 -271 OFFCURVE",
"96 -274 CURVE",
"163 -271 OFFCURVE",
"292 -96 OFFCURVE",
"292 -12 CURVE SMOOTH",
"292 699 LINE"
);
},
{
closed = 1;
nodes = (
"273 669 LINE",
"398 691 LINE",
"398 700 LINE",
"250 699 LINE"
);
},
{
closed = 1;
nodes = (
"92 700 LINE",
"92 691 LINE",
"227 669 LINE",
"250 699 LINE"
);
}
);
width = 401;
},
{
background = {
paths = (
{
closed = 1;
nodes = (
"412 662 LINE",
"427 635 OFFCURVE",
"415 584 OFFCURVE",
"407 557 CURVE",
"326 292 OFFCURVE",
"261 88 OFFCURVE",
"180 -178 CURVE",
"169 -204 OFFCURVE",
"146 -216 OFFCURVE",
"113 -216 CURVE",
"88 -216 OFFCURVE",
"60 -197 OFFCURVE",
"35 -172 CURVE",
"-45 -233 LINE",
"-25 -254 OFFCURVE",
"15 -271 OFFCURVE",
"59 -274 CURVE",
"128 -271 OFFCURVE",
"309 -96 OFFCURVE",
"334 -12 CURVE",
"326 11 OFFCURVE",
"477 446 OFFCURVE",
"524 611 CURVE",
"533 643 OFFCURVE",
"512 685 OFFCURVE",
"500 700 CURVE"
);
},
{
closed = 1;
nodes = (
"260 597 LINE",
"265 592 LINE",
"505 693 LINE",
"495 707 LINE"
);
}
);
};
layerId = "4AEC2A2F-21E0-4005-B5C4-61417F12BD89";
paths = (
{
closed = 1;
nodes = (
"514 668 OFFCURVE",
"476 700 OFFCURVE",
"447 700 CURVE",
"180 -178 LINE",
"169 -204 OFFCURVE",
"146 -216 OFFCURVE",
"113 -216 CURVE SMOOTH",
"88 -216 OFFCURVE",
"60 -197 OFFCURVE",
"35 -172 CURVE",
"-45 -233 LINE",
"-25 -254 OFFCURVE",
"15 -271 OFFCURVE",
"59 -274 CURVE",
"128 -271 OFFCURVE",
"309 -96 OFFCURVE",
"334 -12 CURVE",
"334 15 OFFCURVE",
"531 602 OFFCURVE",
"531 643 CURVE"
);
},
{
closed = 1;
nodes = (
"160 531 OFFCURVE",
"240 498 OFFCURVE",
"273 504 CURVE",
"272 510 LINE",
"241 506 OFFCURVE",
"197 552 OFFCURVE",
"197 588 CURVE SMOOTH",
"197 678 OFFCURVE",
"419 698 OFFCURVE",
"456 685 CURVE",
"449 700 LINE",
"392 702 OFFCURVE",
"157 677 OFFCURVE",
"159 582 CURVE SMOOTH"
);
}
);
width = 441;
},
{
layerId = "E6F0BB9C-0782-48C1-8D27-B7622AB80911";
paths = (
{
closed = 1;
nodes = (
"244 699 LINE",
"85 -178 LINE",
"77 -204 OFFCURVE",
"55 -216 OFFCURVE",
"22 -216 CURVE",
"-3 -216 OFFCURVE",
"-33 -197 OFFCURVE",
"-61 -172 CURVE",
"-133 -233 LINE",
"-111 -254 OFFCURVE",
"-69 -271 OFFCURVE",
"-24 -274 CURVE",
"44 -271 OFFCURVE",
"204 -96 OFFCURVE",
"218 -12 CURVE",
"344 699 LINE"
);
},
{
closed = 1;
nodes = (
"144 700 LINE",
"142 691 LINE",
"274 669 LINE",
"302 699 LINE"
);
}
);
width = 332;
},
{
associatedMasterId = "33C692B7-ECA1-4228-A9DA-44701B454552";
layerId = "EB34AA33-F50C-4FD8-9B71-242498702479";
width = 600;
},
{
associatedMasterId = "33C692B7-ECA1-4228-A9DA-44701B454552";
layerId = "260799CA-1354-4986-AE02-6BB02FE3B1C6";
width = 600;
},
{
associatedMasterId = "33C692B7-ECA1-4228-A9DA-44701B454552";
layerId = "D8374064-0A1B-4C7C-ABB6-28D8469F3434";
width = 600;
},
{
associatedMasterId = "33C692B7-ECA1-4228-A9DA-44701B454552";
layerId = "63A61D1F-9C45-4792-A0E0-9E10E92945A7";
width = 600;
},
{
layerId = "6E858C87-3851-4F0D-A4B8-5C62800DDA3D";
width = 600;
}
);
rightMetricsKey = J;
},
{
glyphname = K.001;
lastChange = "2018-10-25 08:57:41 +0000";
layers = (
{
layerId = "33C692B7-ECA1-4228-A9DA-44701B454552";
paths = (
{
closed = 1;
nodes = (
"92 16 LINE",
"30 5 LINE",
"30 0 LINE",
"252 0 LINE",
"252 5 LINE",
"190 16 LINE"
);
},
{
closed = 1;
nodes = (
"186 279 LINE",
"544 700 LINE",
"515 700 LINE",
"180 303 LINE"
);
},
{
closed = 1;
nodes = (
"479 16 LINE",
"591 14 LINE",
"322 452 LINE",
"249 382 LINE"
);
},
{
closed = 1;
nodes = (
"191 7 LINE",
"186 303 LINE",
"174 303 LINE",
"198 699 LINE",
"30 700 LINE",
"30 694 LINE",
"97 682 LINE",
"91 7 LINE"
);
},
{
closed = 1;
nodes = (
"479 16 LINE",
"486 0 LINE",
"658 0 LINE",
"658 5 LINE",
"592 16 LINE"
);
},
{
closed = 1;
nodes = (
"188 682 LINE",
"263 691 LINE",
"263 700 LINE",
"165 699 LINE"
);
},
{
closed = 1;
nodes = (
"521 674 LINE",
"602 694 LINE",
"602 700 LINE",
"503 700 LINE"
);
},
{
closed = 1;
nodes = (
"412 700 LINE",
"412 694 LINE",
"505 674 LINE",
"525 700 LINE"
);
}
);
width = 645;
},
{
layerId = "4AEC2A2F-21E0-4005-B5C4-61417F12BD89";
paths = (
{
closed = 1;
nodes = (
"103 0 LINE",
"113 23 LINE",
"97 23 LINE",
"372 742 LINE",
"369 747 OFFCURVE",
"365 754 OFFCURVE",
"359 758 CURVE",
"156 680 LINE",
"159 672 LINE",
"262 708 LINE",
"-9 -3 LINE"
);
},
{
closed = 1;
nodes = (
"110 16 LINE",
"285 400 OFFCURVE",
"523 687 OFFCURVE",
"546 687 CURVE",
"704 713 LINE",
"704 740 LINE SMOOTH",
"704 760 OFFCURVE",
"662 781 OFFCURVE",
"620 780 CURVE",
"574 771 OFFCURVE",
"264 440 OFFCURVE",
"100 16 CURVE"
);
},
{
closed = 1;
nodes = (
"244 313 LINE",
"245 303 LINE",
"247 293 OFFCURVE",
"251 291 OFFCURVE",
"251 279 CURVE SMOOTH",
"251 199 OFFCURVE",
"412 -296 OFFCURVE",
"704 -296 CURVE SMOOTH",
"746 -296 OFFCURVE",
"848 -178 OFFCURVE",
"848 -64 CURVE SMOOTH",
"848 -48 OFFCURVE",
"787 10 OFFCURVE",
"772 10 CURVE",
"748 -7 OFFCURVE",
"723 -33 OFFCURVE",
"699 -61 CURVE",
"757 -61 OFFCURVE",
"798 -249 OFFCURVE",
"746 -249 CURVE SMOOTH",
"545 -249 OFFCURVE",
"337 166 OFFCURVE",
"337 329 CURVE"
);
}
);
width = 476;
},
{
layerId = "E6F0BB9C-0782-48C1-8D27-B7622AB80911";
paths = (
{
closed = 1;
nodes = (
"574 680 LINE",
"596 680 LINE",
"662 694 LINE",
"663 700 LINE",
"510 700 LINE",
"509 694 LINE"
);
},
{
closed = 1;
nodes = (
"201 257 LINE",
"281 311 LINE",
"602 686 LINE",
"578 686 LINE",
"270 330 LINE",
"198 272 LINE"
);
},
{
closed = 1;
nodes = (
"441 0 LINE",
"535 0 LINE",
"609 51 LINE",
"606 56 LINE",
"547 26 LINE",
"517 26 OFFCURVE",
"369 289 OFFCURVE",
"369 313 CURVE",
"275 330 LINE",
"260 300 LINE"
);
},
{
closed = 1;
nodes = (
"147 1 LINE",
"204 272 LINE",
"192 272 LINE",
"272 699 LINE",
"112 700 LINE",
"111 694 LINE",
"176 682 LINE",
"62 19 LINE",
"-9 7 LINE",
"-10 1 LINE"
);
},
{
closed = 1;
nodes = (
"259 682 LINE",
"336 691 LINE",
"337 700 LINE",
"239 699 LINE"
);
}
);
width = 601;
},
{
associatedMasterId = "33C692B7-ECA1-4228-A9DA-44701B454552";
layerId = "EB34AA33-F50C-4FD8-9B71-242498702479";
width = 600;
},
{
associatedMasterId = "33C692B7-ECA1-4228-A9DA-44701B454552";
layerId = "260799CA-1354-4986-AE02-6BB02FE3B1C6";
width = 600;
},
{
associatedMasterId = "33C692B7-ECA1-4228-A9DA-44701B454552";
layerId = "D8374064-0A1B-4C7C-ABB6-28D8469F3434";
width = 600;
},
{
associatedMasterId = "33C692B7-ECA1-4228-A9DA-44701B454552";
layerId = "63A61D1F-9C45-4792-A0E0-9E10E92945A7";
width = 600;
},
{
layerId = "6E858C87-3851-4F0D-A4B8-5C62800DDA3D";
width = 600;
}
);
leftMetricsKey = H;
},
{
glyphname = N.001;
lastChange = "2018-10-25 08:57:41 +0000";
layers = (
{
background = {
paths = (
{
closed = 1;
nodes = (
"-6 0 LINE",
"25 0 LINE",
"270 700 LINE",
"244 700 LINE"
);
},
{
closed = 1;
nodes = (
"97 246 LINE",
"449 246 LINE",
"449 265 LINE",
"105 265 LINE"
);
},
{
closed = 1;
nodes = (
"3 22 LINE",
"-80 6 LINE",
"-80 0 LINE",
"-5 0 LINE"
);
},
{
closed = 1;
nodes = (
"460 18 LINE",
"383 6 LINE",
"383 0 LINE",
"480 0 LINE"
);
},
{
closed = 1;
nodes = (
"635 0 LINE",
"635 6 LINE",
"559 18 LINE",
"535 0 LINE"
);
},
{
closed = 1;
nodes = (
"272 700 LINE",
"237 700 LINE",
"254 653 LINE",
"256 643 LINE",
"455 0 LINE",
"564 0 LINE",
"339 705 LINE"
);
},
{
closed = 1;
nodes = (
"162 700 LINE",
"162 694 LINE",
"239 680 LINE",
"252 700 LINE"
);
},
{
closed = 1;
nodes = (
"120 0 LINE",
"120 6 LINE",
"29 22 LINE",
"25 0 LINE"
);
}
);
};
layerId = "33C692B7-ECA1-4228-A9DA-44701B454552";
paths = (
{
closed = 1;
nodes = (
"506 0 LINE",
"502 166 LINE",
"162 703 LINE",
"68 700 LINE",
"49 700 LINE",
"62 661 LINE",
"478 0 LINE"
);
},
{
closed = 1;
nodes = (
"32 0 LINE",
"63 0 LINE",
"62 700 LINE",
"36 700 LINE"
);
},
{
closed = 1;
nodes = (
"-52 700 LINE",
"-52 687 LINE",
"40 673 LINE",
"53 700 LINE"
);
},
{
closed = 1;
nodes = (
"-60 0 LINE",
"164 0 LINE",
"164 6 LINE",
"63 24 LINE",
"33 23 LINE",
"-60 6 LINE"
);
},
{
closed = 1;
nodes = (
"528 0 LINE",
"529 700 LINE",
"498 700 LINE",
"502 0 LINE"
);
},
{
closed = 1;
nodes = (
"499 677 LINE",
"529 676 LINE",
"630 694 LINE",
"630 700 LINE",
"386 700 LINE",
"386 694 LINE"
);
}
);
width = 655;
},
{
layerId = "4AEC2A2F-21E0-4005-B5C4-61417F12BD89";
paths = (
{
closed = 1;
nodes = (
"442 0 LINE",
"465 155 LINE",
"358 703 LINE",
"292 700 LINE",
"273 700 LINE",
"272 661 LINE",
"403 0 LINE"
);
},
{
closed = 1;
nodes = (
"172 700 LINE",
"168 687 LINE",
"256 673 LINE",
"277 700 LINE"
);
},
{
closed = 1;
nodes = (
"453 0 LINE",
"498 157 OFFCURVE",
"669 529 OFFCURVE",
"669 649 CURVE SMOOTH",
"669 673 OFFCURVE",
"648 742 OFFCURVE",
"608 754 CURVE",
"590 747 OFFCURVE",
"514 705 OFFCURVE",
"495 688 CURVE",
"532 681 OFFCURVE",
"651 624 OFFCURVE",
"628 539 CURVE SMOOTH",
"587 377 OFFCURVE",
"483 201 OFFCURVE",
"427 0 CURVE"
);
},
{
closed = 1;
nodes = (
"41 0 LINE",
"7 -80 OFFCURVE",
"-90 -89 OFFCURVE",
"-124 -72 CURVE",
"-119 -97 OFFCURVE",
"-115 -177 OFFCURVE",
"-106 -194 CURVE",
"-66 -208 OFFCURVE",
"-8 -167 OFFCURVE",
"8 -148 CURVE SMOOTH",
"82 -55 OFFCURVE",
"243 546 OFFCURVE",
"288 698 CURVE",
"263 698 LINE"
);
}
);
width = 615;
},
{
layerId = "E6F0BB9C-0782-48C1-8D27-B7622AB80911";
paths = (
{
closed = 1;
nodes = (
"455 0 LINE",
"480 166 LINE",
"235 703 LINE",
"140 700 LINE",
"121 700 LINE",
"128 661 LINE",
"427 0 LINE"
);
},
{
closed = 1;
nodes = (
"-19 0 LINE",
"12 0 LINE",
"134 700 LINE",
"108 700 LINE"
);
},
{
closed = 1;
nodes = (
"20 700 LINE",
"18 687 LINE",
"108 673 LINE",
"125 700 LINE"
);
},
{
closed = 1;
nodes = (
"-111 0 LINE",
"113 0 LINE",
"114 6 LINE",
"16 24 LINE",
"-14 23 LINE",
"-110 6 LINE"
);
},
{
closed = 1;
nodes = (
"477 0 LINE",
"601 700 LINE",
"570 700 LINE",
"451 0 LINE"
);
},
{
closed = 1;
nodes = (
"567 677 LINE",
"597 676 LINE",
"701 694 LINE",
"702 700 LINE",
"458 700 LINE",
"457 694 LINE"
);
}
);
width = 579;
},
{
associatedMasterId = "33C692B7-ECA1-4228-A9DA-44701B454552";
layerId = "EB34AA33-F50C-4FD8-9B71-242498702479";
width = 600;
},
{
associatedMasterId = "33C692B7-ECA1-4228-A9DA-44701B454552";
layerId = "260799CA-1354-4986-AE02-6BB02FE3B1C6";
width = 600;
},
{
associatedMasterId = "33C692B7-ECA1-4228-A9DA-44701B454552";
layerId = "D8374064-0A1B-4C7C-ABB6-28D8469F3434";
width = 600;
},
{
associatedMasterId = "33C692B7-ECA1-4228-A9DA-44701B454552";
layerId = "63A61D1F-9C45-4792-A0E0-9E10E92945A7";
width = 600;
},
{
layerId = "6E858C87-3851-4F0D-A4B8-5C62800DDA3D";
width = 600;
}
);
leftMetricsKey = J;
},
{
glyphname = O.001;
lastChange = "2018-10-25 08:57:41 +0000";
layers = (
{
background = {
paths = (
{
closed = 1;
nodes = (
"332 -2 LINE",
"371 120 LINE",
"367 153 LINE",
"134 703 LINE",
"40 700 LINE",
"21 700 LINE",
"315 -2 LINE"
);
},
{
closed = 1;
nodes = (
"4 0 LINE",
"35 0 LINE",
"34 700 LINE",
"8 700 LINE"
);
},
{
closed = 1;
nodes = (
"313 20 LINE",
"332 -2 LINE",
"624 700 LINE",
"598 700 LINE"
);
},
{
closed = 1;
nodes = (
"708 0 LINE",
"699 700 LINE",
"644 700 LINE",
"598 702 LINE",
"608 0 LINE"
);
},
{
closed = 1;
nodes = (
"-80 700 LINE",
"-80 687 LINE",
"12 673 LINE",
"25 700 LINE"
);
},
{
closed = 1;
nodes = (
"687 673 LINE",
"779 687 LINE",
"779 700 LINE",
"674 700 LINE"
);
},
{
closed = 1;
nodes = (
"611 18 LINE",
"532 6 LINE",
"532 0 LINE",
"631 0 LINE"
);
},
{
closed = 1;
nodes = (
"786 0 LINE",
"786 6 LINE",
"710 18 LINE",
"686 0 LINE"
);
},
{
closed = 1;
nodes = (
"-88 0 LINE",
"136 0 LINE",
"136 6 LINE",
"35 24 LINE",
"5 23 LINE",
"-88 6 LINE"
);
}
);
};
layerId = "33C692B7-ECA1-4228-A9DA-44701B454552";
paths = (
{
closed = 1;
nodes = (
"268 29 OFFCURVE",
"112 154 OFFCURVE",
"112 380 CURVE SMOOTH",
"112 533 OFFCURVE",
"188 664 OFFCURVE",
"328 664 CURVE SMOOTH",
"476 664 OFFCURVE",
"583 549 OFFCURVE",
"583 307 CURVE SMOOTH",
"583 154 OFFCURVE",
"506 29 OFFCURVE",
"366 29 CURVE SMOOTH"
);
},
{
closed = 1;
nodes = (
"693 577 OFFCURVE",
"572 708 OFFCURVE",
"368 713 CURVE",
"299 709 OFFCURVE",
"13 571 OFFCURVE",
"13 339 CURVE SMOOTH",
"13 124 OFFCURVE",
"111 -15 OFFCURVE",
"327 -15 CURVE",
"393 -12 OFFCURVE",
"693 107 OFFCURVE",
"693 363 CURVE SMOOTH"
);
}
);
width = 717;
},
{
layerId = "4AEC2A2F-21E0-4005-B5C4-61417F12BD89";
paths = (
{
closed = 1;
nodes = (
"189 15 OFFCURVE",
"148 60 OFFCURVE",
"146 128 CURVE SMOOTH",
"142 266 OFFCURVE",
"305 640 OFFCURVE",
"427 683 CURVE SMOOTH",
"507 711 OFFCURVE",
"534 633 OFFCURVE",
"537 570 CURVE SMOOTH",
"543 443 OFFCURVE",
"384 20 OFFCURVE",
"269 1 CURVE"
);
},
{
closed = 1;
nodes = (
"458 13 OFFCURVE",
"627 288 OFFCURVE",
"619 511 CURVE SMOOTH",
"615 621 OFFCURVE",
"591 696 OFFCURVE",
"458 700 CURVE",
"245 674 OFFCURVE",
"53 396 OFFCURVE",
"60 184 CURVE SMOOTH",
"64 67 OFFCURVE",
"98 -12 OFFCURVE",
"238 -16 CURVE"
);
}
);
width = 600;
},
{
layerId = "E6F0BB9C-0782-48C1-8D27-B7622AB80911";
paths = (
{
closed = 1;
nodes = (
"516 34 OFFCURVE",
"647 168 OFFCURVE",
"647 436 CURVE",
"647 554 OFFCURVE",
"589 708 OFFCURVE",
"414 708 CURVE",
"199 659 OFFCURVE",
"40 505 OFFCURVE",
"40 263 CURVE",
"40 131 OFFCURVE",
"95 -14 OFFCURVE",
"287 -14 CURVE"
);
},
{
closed = 1;
nodes = (
"210 8 OFFCURVE",
"162 152 OFFCURVE",
"162 278 CURVE",
"162 463 OFFCURVE",
"250 661 OFFCURVE",
"389 683 CURVE",
"471 683 OFFCURVE",
"532 551 OFFCURVE",
"532 428 CURVE",
"532 241 OFFCURVE",
"469 40 OFFCURVE",
"317 8 CURVE"
);
}
);
width = 651;
},
{
associatedMasterId = "33C692B7-ECA1-4228-A9DA-44701B454552";
layerId = "EB34AA33-F50C-4FD8-9B71-242498702479";
width = 600;
},
{
associatedMasterId = "33C692B7-ECA1-4228-A9DA-44701B454552";
layerId = "260799CA-1354-4986-AE02-6BB02FE3B1C6";
width = 600;
},
{
associatedMasterId = "33C692B7-ECA1-4228-A9DA-44701B454552";
layerId = "D8374064-0A1B-4C7C-ABB6-28D8469F3434";
width = 600;
},
{
associatedMasterId = "33C692B7-ECA1-4228-A9DA-44701B454552";
layerId = "63A61D1F-9C45-4792-A0E0-9E10E92945A7";
width = 600;
},
{
layerId = "6E858C87-3851-4F0D-A4B8-5C62800DDA3D";
width = 600;
}
);
},
{
glyphname = R.001;
lastChange = "2018-10-25 08:57:41 +0000";
layers = (
{
layerId = "33C692B7-ECA1-4228-A9DA-44701B454552";
paths = (
{
closed = 1;
nodes = (
"338 0 LINE",
"338 6 LINE",
"227 26 LINE",
"227 322 LINE",
"318 323 LINE",
"346 316 OFFCURVE",
"447 106 OFFCURVE",
"518 0 CURVE",
"649 -1 LINE",
"718 47 LINE",
"712 56 LINE",
"651 19 LINE",
"591 19 OFFCURVE",
"458 312 OFFCURVE",
"454 312 CURVE",
"360 332 LINE",
"442 343 OFFCURVE",
"582 401 OFFCURVE",
"581 554 CURVE",
"581 658 OFFCURVE",
"487 704 OFFCURVE",
"345 701 CURVE SMOOTH",
"40 700 LINE",
"40 694 LINE",
"127 674 LINE",
"127 26 LINE",
"30 6 LINE",
"30 0 LINE"
);
},
{
closed = 1;
nodes = (
"227 672 LINE",
"236 680 OFFCURVE",
"303 684 OFFCURVE",
"320 685 CURVE",
"436 684 OFFCURVE",
"490 614 OFFCURVE",
"490 533 CURVE SMOOTH",
"490 414 OFFCURVE",
"437 347 OFFCURVE",
"338 347 CURVE SMOOTH",
"318 347 OFFCURVE",
"267 348 OFFCURVE",
"227 355 CURVE"
);
}
);
width = 678;
},
{
layerId = "4AEC2A2F-21E0-4005-B5C4-61417F12BD89";
paths = (
{
closed = 1;
nodes = (
"340 672 LINE",
"351 680 OFFCURVE",
"380 684 OFFCURVE",
"397 685 CURVE",
"459 684 OFFCURVE",
"507 637 OFFCURVE",
"507 578 CURVE SMOOTH",
"507 468 OFFCURVE",
"441 338 OFFCURVE",
"299 338 CURVE SMOOTH",
"278 338 OFFCURVE",
"268 339 OFFCURVE",
"244 344 CURVE"
);
},
{
closed = 1;
nodes = (
"142 0 LINE",
"235 322 LINE",
"317 323 LINE",
"340 165 OFFCURVE",
"415 -296 OFFCURVE",
"739 -296 CURVE SMOOTH",
"781 -296 OFFCURVE",
"924 -167 OFFCURVE",
"923 -53 CURVE",
"923 -18 OFFCURVE",
"905 15 OFFCURVE",
"872 43 CURVE",
"848 26 OFFCURVE",
"823 0 OFFCURVE",
"799 -28 CURVE",
"857 -28 OFFCURVE",
"833 -258 OFFCURVE",
"781 -258 CURVE SMOOTH",
"580 -258 OFFCURVE",
"412 167 OFFCURVE",
"412 330 CURVE",
"373.688 325.53 LINE",
"468.937 346.579 OFFCURVE",
"603 494.078 OFFCURVE",
"603 584 CURVE SMOOTH",
"603 678 OFFCURVE",
"517 701 OFFCURVE",
"427 701 CURVE SMOOTH",
"162 700 LINE",
"160 694 LINE",
"241 674 LINE",
"47 26 LINE",
"-44 11 LINE",
"-48 0 LINE"
);
}
);
width = 572;
},
{
layerId = "E6F0BB9C-0782-48C1-8D27-B7622AB80911";
paths = (
{
closed = 1;
nodes = (
"168 0 LINE",
"222 322 LINE",
"313 323 LINE",
"313 284 OFFCURVE",
"475 -175 OFFCURVE",
"599 -175 CURVE",
"671 -123 LINE",
"673 -118 LINE",
"590 -118 OFFCURVE",
"421 263 OFFCURVE",
"421 318 CURVE",
"357 332 LINE",
"487 349 OFFCURVE",
"576 455 OFFCURVE",
"576 590 CURVE",
"576 675 OFFCURVE",
"483 701 OFFCURVE",
"367 701 CURVE",
"112 700 LINE",
"111 694 LINE",
"184 679 LINE",
"70 20 LINE",
"1 7 LINE",
"-1 0 LINE"
);
},
{
closed = 1;
nodes = (
"284 672 LINE",
"294 680 OFFCURVE",
"322 684 OFFCURVE",
"339 685 CURVE",
"428 684 OFFCURVE",
"482 640 OFFCURVE",
"482 573 CURVE",
"482 461 OFFCURVE",
"444 347 OFFCURVE",
"328 347 CURVE",
"298 346 OFFCURVE",
"267 345 OFFCURVE",
"229 352 CURVE"
);
}
);
width = 579;
},
{
associatedMasterId = "33C692B7-ECA1-4228-A9DA-44701B454552";
layerId = "EB34AA33-F50C-4FD8-9B71-242498702479";
width = 600;
},
{
associatedMasterId = "33C692B7-ECA1-4228-A9DA-44701B454552";
layerId = "260799CA-1354-4986-AE02-6BB02FE3B1C6";
width = 600;
},
{
associatedMasterId = "33C692B7-ECA1-4228-A9DA-44701B454552";
layerId = "D8374064-0A1B-4C7C-ABB6-28D8469F3434";
width = 600;
},
{
associatedMasterId = "33C692B7-ECA1-4228-A9DA-44701B454552";
layerId = "63A61D1F-9C45-4792-A0E0-9E10E92945A7";
width = 600;
},
{
layerId = "6E858C87-3851-4F0D-A4B8-5C62800DDA3D";
width = 600;
}
);
leftMetricsKey = I;
},
{
glyphname = X.001;
lastChange = "2018-10-25 08:57:41 +0000";
layers = (
{
background = {
paths = (
{
closed = 1;
nodes = (
"32 684 LINE",
"263 313 LINE",
"62 16 LINE",
"-40 10 LINE",
"-40 0 LINE",
"186 0 LINE",
"186 10 LINE",
"80 16 LINE",
"271 300 LINE",
"449 16 LINE",
"372 10 LINE",
"372 0 LINE",
"640 0 LINE",
"640 10 LINE",
"576 16 LINE",
"346 382 LINE",
"545 684 LINE",
"643 690 LINE",
"643 700 LINE",
"421 700 LINE",
"421 690 LINE",
"527 684 LINE",
"338 396 LINE",
"158 684 LINE",
"232 690 LINE",
"232 700 LINE",
"-33 700 LINE",
"-33 691 LINE"
);
}
);
};
layerId = "33C692B7-ECA1-4228-A9DA-44701B454552";
paths = (
{
closed = 1;
nodes = (
"568 0 LINE",
"165 700 LINE",
"60 700 LINE",
"461 0 LINE"
);
},
{
closed = 1;
nodes = (
"298 366 LINE",
"275 366 LINE",
"35 -2 LINE",
"68 0 LINE"
);
},
{
closed = 1;
nodes = (
"518 702 LINE",
"496 702 LINE",
"289 386 LINE",
"312 388 LINE"
);
},
{
closed = 1;
nodes = (
"486 680 LINE",
"502 680 LINE",
"586 696 LINE",
"586 702 LINE",
"422 702 LINE",
"422 696 LINE"
);
},
{
closed = 1;
nodes = (
"165 683 LINE",
"227 696 LINE",
"227 700 LINE",
"151 700 LINE"
);
},
{
closed = 1;
nodes = (
"13 700 LINE",
"13 696 LINE",
"75 683 LINE",
"86 700 LINE"
);
},
{
closed = 1;
nodes = (
"83 20 LINE",
"51 20 LINE",
"-29 4 LINE",
"-29 -2 LINE",
"153 -2 LINE",
"153 4 LINE"
);
},
{
closed = 1;
nodes = (
"464 17 LINE",
"402 4 LINE",
"402 0 LINE",
"478 0 LINE"
);
},
{
closed = 1;
nodes = (
"616 0 LINE",
"616 4 LINE",
"554 17 LINE",
"543 0 LINE"
);
}
);
width = 650;
},
{
layerId = "4AEC2A2F-21E0-4005-B5C4-61417F12BD89";
paths = (
{
closed = 1;
nodes = (
"498 0 LINE",
"325 730 LINE",
"220 700 LINE",
"391 0 LINE"
);
},
{
closed = 1;
nodes = (
"338 366 LINE",
"315 366 LINE",
"15 -2 LINE",
"58 0 LINE"
);
},
{
closed = 1;
nodes = (
"648 702 LINE",
"616 702 LINE",
"334 386 LINE",
"358 388 LINE"
);
},
{
closed = 1;
nodes = (
"97 665 LINE",
"101 657 LINE",
"234 687 LINE",
"220 700 LINE"
);
},
{
closed = 1;
nodes = (
"560 0 LINE",
"561 4 LINE",
"492 24 LINE",
"473 0 LINE"
);
},
{
closed = 1;
nodes = (
"557 604 LINE",
"594 643 OFFCURVE",
"677 692 OFFCURVE",
"677 757 CURVE SMOOTH",
"677 764 OFFCURVE",
"676 771 OFFCURVE",
"674 779 CURVE",
"591 766 LINE",
"594 709 OFFCURVE",
"574 667 OFFCURVE",
"534 609 CURVE"
);
},
{
closed = 1;
nodes = (
"40 39 OFFCURVE",
"-15 -29 OFFCURVE",
"-15 -69 CURVE SMOOTH",
"-15 -95 OFFCURVE",
"-9 -125 OFFCURVE",
"62 -124 CURVE",
"63 -121 LINE",
"61 -121 OFFCURVE",
"60 -118 OFFCURVE",
"60 -113 CURVE SMOOTH",
"60 -76 OFFCURVE",
"127 96 OFFCURVE",
"143 111 CURVE",
"96 89 LINE"
);
}
);
width = 600;
},
{
layerId = "E6F0BB9C-0782-48C1-8D27-B7622AB80911";
paths = (
{
closed = 1;
nodes = (
"524 0 LINE",
"255 700 LINE",
"150 700 LINE",
"417 0 LINE"
);
},
{
closed = 1;
nodes = (
"319 366 LINE",
"296 366 LINE",
"11 -2 LINE",
"44 0 LINE"
);
},
{
closed = 1;
nodes = (
"588 702 LINE",
"566 702 LINE",
"313 386 LINE",
"337 388 LINE"
);
},
{
closed = 1;
nodes = (
"552 680 LINE",
"568 680 LINE",
"655 696 LINE",
"656 702 LINE",
"492 702 LINE",
"491 696 LINE"
);
},
{
closed = 1;
nodes = (
"252 683 LINE",
"316 696 LINE",
"317 700 LINE",
"241 700 LINE"
);
},
{
closed = 1;
nodes = (
"103 700 LINE",
"102 696 LINE",
"162 683 LINE",
"176 700 LINE"
);
},
{
closed = 1;
nodes = (
"63 20 LINE",
"31 20 LINE",
"-52 4 LINE",
"-53 -2 LINE",
"129 -2 LINE",
"130 4 LINE"
);
},
{
closed = 1;
nodes = (
"423 17 LINE",
"359 4 LINE",
"358 0 LINE",
"434 0 LINE"
);
},
{
closed = 1;
nodes = (
"572 0 LINE",
"573 4 LINE",
"513 17 LINE",
"499 0 LINE"
);
}
);
width = 600;
},
{
associatedMasterId = "33C692B7-ECA1-4228-A9DA-44701B454552";
layerId = "EB34AA33-F50C-4FD8-9B71-242498702479";
width = 600;
},
{
associatedMasterId = "33C692B7-ECA1-4228-A9DA-44701B454552";
layerId = "260799CA-1354-4986-AE02-6BB02FE3B1C6";
width = 600;
},
{
associatedMasterId = "33C692B7-ECA1-4228-A9DA-44701B454552";
layerId = "D8374064-0A1B-4C7C-ABB6-28D8469F3434";
width = 600;
},
{
associatedMasterId = "33C692B7-ECA1-4228-A9DA-44701B454552";
layerId = "63A61D1F-9C45-4792-A0E0-9E10E92945A7";
width = 600;
},
{
layerId = "6E858C87-3851-4F0D-A4B8-5C62800DDA3D";
width = 600;
}
);
},
{
glyphname = R.002;
lastChange = "2018-10-25 08:57:41 +0000";
layers = (
{
layerId = "33C692B7-ECA1-4228-A9DA-44701B454552";
paths = (
{
closed = 1;
nodes = (
"338 0 LINE",
"338 6 LINE",
"227 26 LINE",
"227 322 LINE",
"318 323 LINE",
"346 316 OFFCURVE",
"447 106 OFFCURVE",
"518 0 CURVE",
"649 -1 LINE",
"718 47 LINE",
"712 56 LINE",
"651 19 LINE",
"591 19 OFFCURVE",
"458 312 OFFCURVE",
"454 312 CURVE",
"360 332 LINE",
"442 343 OFFCURVE",
"582 401 OFFCURVE",
"581 554 CURVE",
"581 658 OFFCURVE",
"487 704 OFFCURVE",
"345 701 CURVE SMOOTH",
"40 700 LINE",
"40 694 LINE",
"127 674 LINE",
"127 26 LINE",
"30 6 LINE",
"30 0 LINE"
);
},
{
closed = 1;
nodes = (
"227 672 LINE",
"236 680 OFFCURVE",
"303 684 OFFCURVE",
"320 685 CURVE",
"436 684 OFFCURVE",
"490 614 OFFCURVE",
"490 533 CURVE SMOOTH",
"490 414 OFFCURVE",
"437 347 OFFCURVE",
"338 347 CURVE SMOOTH",
"318 347 OFFCURVE",
"267 348 OFFCURVE",
"227 355 CURVE"
);
}
);
width = 678;
},
{
layerId = "4AEC2A2F-21E0-4005-B5C4-61417F12BD89";
paths = (
{
closed = 1;
nodes = (
"502 672 LINE",
"513 680 OFFCURVE",
"542 684 OFFCURVE",
"559 685 CURVE",
"621 684 OFFCURVE",
"669 637 OFFCURVE",
"669 578 CURVE SMOOTH",
"669 468 OFFCURVE",
"603 338 OFFCURVE",
"461 338 CURVE SMOOTH",
"440 338 OFFCURVE",
"430 339 OFFCURVE",
"406 344 CURVE"
);
},
{
closed = 1;
nodes = (
"304 0 LINE",
"397 322 LINE",
"479 323 LINE",
"502 165 OFFCURVE",
"577 -296 OFFCURVE",
"901 -296 CURVE SMOOTH",
"943 -296 OFFCURVE",
"1086 -167 OFFCURVE",
"1085 -53 CURVE",
"1085 -18 OFFCURVE",
"1067 15 OFFCURVE",
"1034 43 CURVE",
"1010 26 OFFCURVE",
"985 0 OFFCURVE",
"961 -28 CURVE",
"1019 -28 OFFCURVE",
"988 -258 OFFCURVE",
"936 -258 CURVE SMOOTH",
"735 -258 OFFCURVE",
"574 127 OFFCURVE",
"574 330 CURVE",
"536 326 LINE",
"631 347 OFFCURVE",
"765 494 OFFCURVE",
"765 584 CURVE SMOOTH",
"765 678 OFFCURVE",
"679 701 OFFCURVE",
"589 701 CURVE SMOOTH",
"417 700 LINE",
"403 674 LINE",
"209 26 LINE",
"118 11 LINE",
"114 0 LINE"
);
},
{
closed = 1;
nodes = (
"130 531 OFFCURVE",
"210 498 OFFCURVE",
"243 504 CURVE",
"242 510 LINE",
"211 506 OFFCURVE",
"173 552 OFFCURVE",
"173 588 CURVE SMOOTH",
"173 678 OFFCURVE",
"389 698 OFFCURVE",
"426 685 CURVE",
"419 700 LINE",
"362 702 OFFCURVE",
"127 677 OFFCURVE",
"129 582 CURVE SMOOTH"
);
}
);
width = 734;
},
{
layerId = "E6F0BB9C-0782-48C1-8D27-B7622AB80911";
paths = (
{
closed = 1;
nodes = (
"168 0 LINE",
"222 322 LINE",
"313 323 LINE",
"313 264 OFFCURVE",
"463 -155 OFFCURVE",
"597 -155 CURVE",
"712 -35 LINE",
"702 -35 LINE",
"655 -75 LINE",
"581 -86 OFFCURVE",
"421 264 OFFCURVE",
"421 318 CURVE",
"357 332 LINE",
"487 349 OFFCURVE",
"576 455 OFFCURVE",
"576 590 CURVE",
"576 675 OFFCURVE",
"483 701 OFFCURVE",
"367 701 CURVE",
"112 700 LINE",
"111 694 LINE",
"184 679 LINE",
"70 20 LINE",
"1 7 LINE",
"-1 0 LINE"
);
},
{
closed = 1;
nodes = (
"284 672 LINE",
"294 680 OFFCURVE",
"322 684 OFFCURVE",
"339 685 CURVE",
"428 684 OFFCURVE",
"482 640 OFFCURVE",
"482 573 CURVE",
"482 461 OFFCURVE",
"444 347 OFFCURVE",
"328 347 CURVE",
"298 346 OFFCURVE",
"267 345 OFFCURVE",
"229 352 CURVE"
);
}
);
width = 579;
},
{
associatedMasterId = "33C692B7-ECA1-4228-A9DA-44701B454552";
layerId = "EB34AA33-F50C-4FD8-9B71-242498702479";
width = 600;
},
{
associatedMasterId = "33C692B7-ECA1-4228-A9DA-44701B454552";
layerId = "260799CA-1354-4986-AE02-6BB02FE3B1C6";
width = 600;
},
{
associatedMasterId = "33C692B7-ECA1-4228-A9DA-44701B454552";
layerId = "D8374064-0A1B-4C7C-ABB6-28D8469F3434";
width = 600;
},
{
associatedMasterId = "33C692B7-ECA1-4228-A9DA-44701B454552";
layerId = "63A61D1F-9C45-4792-A0E0-9E10E92945A7";
width = 600;
},
{
layerId = "6E858C87-3851-4F0D-A4B8-5C62800DDA3D";
width = 600;
}
);
leftMetricsKey = I;
},
{
glyphname = T.002;
lastChange = "2018-10-25 08:57:41 +0000";
layers = (
{
background = {
paths = (
{
closed = 1;
nodes = (
"276 0 LINE",
"276 6 LINE",
"165 26 LINE",
"165 311 LINE",
"254 312 LINE",
"292 315 OFFCURVE",
"518 333 OFFCURVE",
"517 536 CURVE",
"517 650 OFFCURVE",
"425 704 OFFCURVE",
"283 701 CURVE",
"-22 700 LINE",
"-22 694 LINE",
"65 674 LINE",
"65 26 LINE",
"-32 6 LINE",
"-32 0 LINE"
);
},
{
closed = 1;
nodes = (
"165 672 LINE",
"174 680 OFFCURVE",
"241 684 OFFCURVE",
"258 685 CURVE",
"374 684 OFFCURVE",
"426 606 OFFCURVE",
"426 515 CURVE",
"426 396 OFFCURVE",
"375 331 OFFCURVE",
"276 331 CURVE",
"246 331 OFFCURVE",
"205 337 OFFCURVE",
"165 348 CURVE"
);
}
);
};
layerId = "33C692B7-ECA1-4228-A9DA-44701B454552";
paths = (
{
closed = 1;
nodes = (
"243 0 LINE",
"343 0 LINE",
"343 700 LINE",
"243 700 LINE"
);
},
{
closed = 1;
nodes = (
"243 36 LINE",
"126 6 LINE",
"126 0 LINE",
"263 0 LINE"
);
},
{
closed = 1;
nodes = (
"460 0 LINE",
"460 6 LINE",
"343 36 LINE",
"323 0 LINE"
);
},
{
closed = 1;
nodes = (
"87 681 LINE",
"294 681 LINE",
"294 700 LINE",
"87 700 LINE"
);
},
{
closed = 1;
nodes = (
"5 515 LINE",
"11 515 LINE",
"29 552 OFFCURVE",
"113 700 OFFCURVE",
"143 699 CURVE",
"100 700 LINE SMOOTH",
"90 700 OFFCURVE",
"54 702 OFFCURVE",
"41 704 CURVE",
"28 704 LINE"
);
},
{
closed = 1;
nodes = (
"294 700 LINE",
"294 681 LINE",
"501 681 LINE",
"501 700 LINE"
);
},
{
closed = 1;
nodes = (
"547 704 LINE",
"534 702 OFFCURVE",
"498 700 OFFCURVE",
"488 700 CURVE SMOOTH",
"445 699 LINE",
"475 700 OFFCURVE",
"559 552 OFFCURVE",
"577 515 CURVE",
"583 515 LINE",
"560 704 LINE"
);
}
);
width = 603;
},
{
layerId = "4AEC2A2F-21E0-4005-B5C4-61417F12BD89";
paths = (
{
closed = 1;
nodes = (
"247 0 LINE",
"347 0 LINE",
"556 700 LINE",
"456 700 LINE"
);
},
{
closed = 1;
nodes = (
"257 36 LINE",
"131 6 LINE",
"130 0 LINE",
"267 0 LINE"
);
},
{
closed = 1;
nodes = (
"464 0 LINE",
"465 6 LINE",
"357 36 LINE",
"327 0 LINE"
);
},
{
closed = 1;
nodes = (
"810 746 LINE",
"742 700 OFFCURVE",
"707 700 OFFCURVE",
"649 700 CURVE SMOOTH",
"507 700 LINE",
"501 681 LINE",
"551 681 LINE",
"629 678 OFFCURVE",
"685 653 OFFCURVE",
"744 642 CURVE",
"824 745 LINE"
);
},
{
closed = 1;
nodes = (
"141 506 OFFCURVE",
"152 488 OFFCURVE",
"164 488 CURVE",
"243 568 LINE",
"223 568 OFFCURVE",
"209 599 OFFCURVE",
"209 646 CURVE SMOOTH",
"209 674 OFFCURVE",
"381 681 OFFCURVE",
"454 681 CURVE SMOOTH",
"501 681 LINE",
"507 700 LINE",
"272 700 LINE SMOOTH",
"213 700 OFFCURVE",
"141 616 OFFCURVE",
"141 532 CURVE SMOOTH"
);
}
);
width = 548;
},
{
layerId = "E6F0BB9C-0782-48C1-8D27-B7622AB80911";
paths = (
{
closed = 1;
nodes = (
"211 0 LINE",
"311 0 LINE",
"434 700 LINE",
"334 700 LINE"
);
},
{
closed = 1;
nodes = (
"217 36 LINE",
"95 6 LINE",
"94 0 LINE",
"231 0 LINE"
);
},
{
closed = 1;
nodes = (
"428 0 LINE",
"429 6 LINE",
"317 36 LINE",
"291 0 LINE"
);
},
{
closed = 1;
nodes = (
"195 681 LINE",
"382 681 LINE",
"385 700 LINE",
"198 700 LINE"
);
},
{
closed = 1;
nodes = (
"84 515 LINE",
"90 515 LINE",
"114 552 OFFCURVE",
"224 700 OFFCURVE",
"254 699 CURVE",
"211 700 LINE",
"201 700 OFFCURVE",
"166 702 OFFCURVE",
"153 704 CURVE",
"140 704 LINE"
);
},
{
closed = 1;
nodes = (
"385 700 LINE",
"382 681 LINE",
"569 681 LINE",
"572 700 LINE"
);
},
{
closed = 1;
nodes = (
"619 704 LINE",
"606 702 OFFCURVE",
"569 700 OFFCURVE",
"559 700 CURVE",
"516 699 LINE",
"546 700 OFFCURVE",
"604 552 OFFCURVE",
"616 515 CURVE",
"622 515 LINE",
"632 704 LINE"
);
}
);
width = 573;
},
{
associatedMasterId = "33C692B7-ECA1-4228-A9DA-44701B454552";
layerId = "EB34AA33-F50C-4FD8-9B71-242498702479";
width = 600;
},
{
associatedMasterId = "33C692B7-ECA1-4228-A9DA-44701B454552";
layerId = "260799CA-1354-4986-AE02-6BB02FE3B1C6";
width = 600;
},
{
associatedMasterId = "33C692B7-ECA1-4228-A9DA-44701B454552";
layerId = "D8374064-0A1B-4C7C-ABB6-28D8469F3434";
width = 600;
},
{
associatedMasterId = "33C692B7-ECA1-4228-A9DA-44701B454552";
layerId = "63A61D1F-9C45-4792-A0E0-9E10E92945A7";
width = 600;
},
{
layerId = "6E858C87-3851-4F0D-A4B8-5C62800DDA3D";
width = 600;
}
);
leftMetricsKey = T;
},
{
glyphname = R.003;
lastChange = "2018-10-25 08:57:41 +0000";
layers = (
{
layerId = "33C692B7-ECA1-4228-A9DA-44701B454552";
paths = (
{
closed = 1;
nodes = (
"338 0 LINE",
"338 6 LINE",
"227 26 LINE",
"227 322 LINE",
"318 323 LINE",
"346 316 OFFCURVE",
"447 106 OFFCURVE",
"518 0 CURVE",
"649 -1 LINE",
"718 47 LINE",
"712 56 LINE",
"651 19 LINE",
"591 19 OFFCURVE",
"458 312 OFFCURVE",
"454 312 CURVE",
"360 332 LINE",
"442 343 OFFCURVE",
"582 401 OFFCURVE",
"581 554 CURVE",
"581 658 OFFCURVE",
"487 704 OFFCURVE",
"345 701 CURVE SMOOTH",
"40 700 LINE",
"40 694 LINE",
"127 674 LINE",
"127 26 LINE",
"30 6 LINE",
"30 0 LINE"
);
},
{
closed = 1;
nodes = (
"227 672 LINE",
"236 680 OFFCURVE",
"303 684 OFFCURVE",
"320 685 CURVE",
"436 684 OFFCURVE",
"490 614 OFFCURVE",
"490 533 CURVE SMOOTH",
"490 414 OFFCURVE",
"437 347 OFFCURVE",
"338 347 CURVE SMOOTH",
"318 347 OFFCURVE",
"267 348 OFFCURVE",
"227 355 CURVE"
);
}
);
width = 678;
},
{
layerId = "4AEC2A2F-21E0-4005-B5C4-61417F12BD89";
paths = (
{
closed = 1;
nodes = (
"460 672 LINE",
"471 680 OFFCURVE",
"500 684 OFFCURVE",
"517 685 CURVE",
"579 684 OFFCURVE",
"627 637 OFFCURVE",
"627 578 CURVE SMOOTH",
"627 468 OFFCURVE",
"561 338 OFFCURVE",
"419 338 CURVE SMOOTH",
"398 338 OFFCURVE",
"388 339 OFFCURVE",
"364 344 CURVE"
);
},
{
closed = 1;
nodes = (
"262 0 LINE",
"355 322 LINE",
"437 323 LINE",
"437 298 OFFCURVE",
"516 -26 OFFCURVE",
"581 -26 CURVE",
"706 54 LINE",
"701 60 LINE",
"652 30 LINE",
"607 30 OFFCURVE",
"532 304 OFFCURVE",
"532 330 CURVE",
"493.688 325.53 LINE",
"588.937 346.579 OFFCURVE",
"723 494.078 OFFCURVE",
"723 584 CURVE SMOOTH",
"723 678 OFFCURVE",
"637 701 OFFCURVE",
"547 701 CURVE SMOOTH",
"419 700 LINE",
"362 702 OFFCURVE",
"127 677 OFFCURVE",
"129 582 CURVE SMOOTH",
"130 531 OFFCURVE",
"210 498 OFFCURVE",
"243 504 CURVE",
"242 510 LINE",
"211 506 OFFCURVE",
"175 552 OFFCURVE",
"175 588 CURVE SMOOTH",
"175 656 OFFCURVE",
"295.868 683.94 OFFCURVE",
"372.141 688.056 CURVE",
"368 687 LINE",
"167 26 LINE",
"76 11 LINE",
"72 0 LINE"
);
}
);
width = 734;
},
{
layerId = "E6F0BB9C-0782-48C1-8D27-B7622AB80911";
paths = (
{
closed = 1;
nodes = (
"168 0 LINE",
"222 322 LINE",
"313 323 LINE",
"313 284 OFFCURVE",
"475 -175 OFFCURVE",
"599 -175 CURVE",
"671 -123 LINE",
"673 -118 LINE",
"590 -118 OFFCURVE",
"421 263 OFFCURVE",
"421 318 CURVE",
"357 332 LINE",
"487 349 OFFCURVE",
"576 455 OFFCURVE",
"576 590 CURVE",
"576 675 OFFCURVE",
"483 701 OFFCURVE",
"367 701 CURVE",
"112 700 LINE",
"111 694 LINE",
"184 679 LINE",
"70 20 LINE",
"1 7 LINE",
"-1 0 LINE"
);
},
{
closed = 1;
nodes = (
"284 672 LINE",
"294 680 OFFCURVE",
"322 684 OFFCURVE",
"339 685 CURVE",
"428 684 OFFCURVE",
"482 640 OFFCURVE",
"482 573 CURVE",
"482 461 OFFCURVE",
"444 347 OFFCURVE",
"328 347 CURVE",
"298 346 OFFCURVE",
"267 345 OFFCURVE",
"229 352 CURVE"
);
}
);
width = 579;
},
{
associatedMasterId = "33C692B7-ECA1-4228-A9DA-44701B454552";
layerId = "EB34AA33-F50C-4FD8-9B71-242498702479";
width = 600;
},
{
associatedMasterId = "33C692B7-ECA1-4228-A9DA-44701B454552";
layerId = "260799CA-1354-4986-AE02-6BB02FE3B1C6";
width = 600;
},
{
associatedMasterId = "33C692B7-ECA1-4228-A9DA-44701B454552";
layerId = "D8374064-0A1B-4C7C-ABB6-28D8469F3434";
width = 600;
},
{
associatedMasterId = "33C692B7-ECA1-4228-A9DA-44701B454552";
layerId = "63A61D1F-9C45-4792-A0E0-9E10E92945A7";
width = 600;
},
{
layerId = "6E858C87-3851-4F0D-A4B8-5C62800DDA3D";
width = 600;
}
);
leftMetricsKey = I;
},
{
glyphname = T.003;
lastChange = "2018-10-25 08:57:41 +0000";
layers = (
{
background = {
paths = (
{
closed = 1;
nodes = (
"276 0 LINE",
"276 6 LINE",
"165 26 LINE",
"165 311 LINE",
"254 312 LINE",
"292 315 OFFCURVE",
"518 333 OFFCURVE",
"517 536 CURVE",
"517 650 OFFCURVE",
"425 704 OFFCURVE",
"283 701 CURVE",
"-22 700 LINE",
"-22 694 LINE",
"65 674 LINE",
"65 26 LINE",
"-32 6 LINE",
"-32 0 LINE"
);
},
{
closed = 1;
nodes = (
"165 672 LINE",
"174 680 OFFCURVE",
"241 684 OFFCURVE",
"258 685 CURVE",
"374 684 OFFCURVE",
"426 606 OFFCURVE",
"426 515 CURVE",
"426 396 OFFCURVE",
"375 331 OFFCURVE",
"276 331 CURVE",
"246 331 OFFCURVE",
"205 337 OFFCURVE",
"165 348 CURVE"
);
}
);
};
layerId = "33C692B7-ECA1-4228-A9DA-44701B454552";
paths = (
{
closed = 1;
nodes = (
"243 0 LINE",
"343 0 LINE",
"343 700 LINE",
"243 700 LINE"
);
},
{
closed = 1;
nodes = (
"243 36 LINE",
"126 6 LINE",
"126 0 LINE",
"263 0 LINE"
);
},
{
closed = 1;
nodes = (
"460 0 LINE",
"460 6 LINE",
"343 36 LINE",
"323 0 LINE"
);
},
{
closed = 1;
nodes = (
"87 681 LINE",
"294 681 LINE",
"294 700 LINE",
"87 700 LINE"
);
},
{
closed = 1;
nodes = (
"5 515 LINE",
"11 515 LINE",
"29 552 OFFCURVE",
"113 700 OFFCURVE",
"143 699 CURVE",
"100 700 LINE SMOOTH",
"90 700 OFFCURVE",
"54 702 OFFCURVE",
"41 704 CURVE",
"28 704 LINE"
);
},
{
closed = 1;
nodes = (
"294 700 LINE",
"294 681 LINE",
"501 681 LINE",
"501 700 LINE"
);
},
{
closed = 1;
nodes = (
"547 704 LINE",
"534 702 OFFCURVE",
"498 700 OFFCURVE",
"488 700 CURVE SMOOTH",
"445 699 LINE",
"475 700 OFFCURVE",
"559 552 OFFCURVE",
"577 515 CURVE",
"583 515 LINE",
"560 704 LINE"
);
}
);
width = 588;
},
{
layerId = "4AEC2A2F-21E0-4005-B5C4-61417F12BD89";
paths = (
{
closed = 1;
nodes = (
"193 0 LINE",
"293 0 LINE",
"502 700 LINE",
"402 700 LINE"
);
},
{
closed = 1;
nodes = (
"203 36 LINE",
"77 6 LINE",
"76 0 LINE",
"213 0 LINE"
);
},
{
closed = 1;
nodes = (
"410 0 LINE",
"411 6 LINE",
"303 36 LINE",
"273 0 LINE"
);
},
{
closed = 1;
nodes = (
"280 681 LINE",
"447 681 LINE",
"453 700 LINE",
"286 700 LINE"
);
},
{
closed = 1;
nodes = (
"129 515 LINE",
"135 515 LINE",
"163 552 OFFCURVE",
"292 700 OFFCURVE",
"321 699 CURVE",
"279 700 LINE SMOOTH",
"269 700 OFFCURVE",
"234 702 OFFCURVE",
"221 704 CURVE",
"208 704 LINE"
);
},
{
closed = 1;
nodes = (
"453 700 LINE",
"447 681 LINE",
"624 681 LINE",
"630 700 LINE"
);
},
{
closed = 1;
nodes = (
"763 829 OFFCURVE",
"752 847 OFFCURVE",
"740 847 CURVE",
"662 778 LINE",
"662 777 LINE",
"681 766 OFFCURVE",
"695 745 OFFCURVE",
"695 725 CURVE SMOOTH",
"695 697 OFFCURVE",
"523 700 OFFCURVE",
"450 700 CURVE SMOOTH",
"403 700 LINE",
"397 681 LINE",
"632 681 LINE SMOOTH",
"696 681 OFFCURVE",
"763 719 OFFCURVE",
"763 803 CURVE SMOOTH"
);
}
);
width = 611;
},
{
layerId = "E6F0BB9C-0782-48C1-8D27-B7622AB80911";
paths = (
{
closed = 1;
nodes = (
"211 0 LINE",
"311 0 LINE",
"434 700 LINE",
"334 700 LINE"
);
},
{
closed = 1;
nodes = (
"217 36 LINE",
"95 6 LINE",
"94 0 LINE",
"231 0 LINE"
);
},
{
closed = 1;
nodes = (
"428 0 LINE",
"429 6 LINE",
"317 36 LINE",
"291 0 LINE"
);
},
{
closed = 1;
nodes = (
"195 681 LINE",
"382 681 LINE",
"385 700 LINE",
"198 700 LINE"
);
},
{
closed = 1;
nodes = (
"84 515 LINE",
"90 515 LINE",
"114 552 OFFCURVE",
"224 700 OFFCURVE",
"254 699 CURVE",
"211 700 LINE",
"201 700 OFFCURVE",
"166 702 OFFCURVE",
"153 704 CURVE",
"140 704 LINE"
);
},
{
closed = 1;
nodes = (
"385 700 LINE",
"382 681 LINE",
"569 681 LINE",
"572 700 LINE"
);
},
{
closed = 1;
nodes = (
"619 704 LINE",
"606 702 OFFCURVE",
"569 700 OFFCURVE",
"559 700 CURVE",
"516 699 LINE",
"546 700 OFFCURVE",
"604 552 OFFCURVE",
"616 515 CURVE",
"622 515 LINE",
"632 704 LINE"
);
}
);
width = 578;
},
{
associatedMasterId = "33C692B7-ECA1-4228-A9DA-44701B454552";
layerId = "EB34AA33-F50C-4FD8-9B71-242498702479";
width = 600;
},
{
associatedMasterId = "33C692B7-ECA1-4228-A9DA-44701B454552";
layerId = "260799CA-1354-4986-AE02-6BB02FE3B1C6";
width = 600;
},
{
associatedMasterId = "33C692B7-ECA1-4228-A9DA-44701B454552";
layerId = "D8374064-0A1B-4C7C-ABB6-28D8469F3434";
width = 600;
},
{
associatedMasterId = "33C692B7-ECA1-4228-A9DA-44701B454552";
layerId = "63A61D1F-9C45-4792-A0E0-9E10E92945A7";
width = 600;
},
{
layerId = "6E858C87-3851-4F0D-A4B8-5C62800DDA3D";
width = 600;
}
);
leftMetricsKey = T;
rightMetricsKey = T;
},
{
glyphname = T.004;
lastChange = "2018-10-25 08:57:41 +0000";
layers = (
{
background = {
paths = (
{
closed = 1;
nodes = (
"276 0 LINE",
"276 6 LINE",
"165 26 LINE",
"165 311 LINE",
"254 312 LINE",
"292 315 OFFCURVE",
"518 333 OFFCURVE",
"517 536 CURVE",
"517 650 OFFCURVE",
"425 704 OFFCURVE",
"283 701 CURVE",
"-22 700 LINE",
"-22 694 LINE",
"65 674 LINE",
"65 26 LINE",
"-32 6 LINE",
"-32 0 LINE"
);
},
{
closed = 1;
nodes = (
"165 672 LINE",
"174 680 OFFCURVE",
"241 684 OFFCURVE",
"258 685 CURVE",
"374 684 OFFCURVE",
"426 606 OFFCURVE",
"426 515 CURVE",
"426 396 OFFCURVE",
"375 331 OFFCURVE",
"276 331 CURVE",
"246 331 OFFCURVE",
"205 337 OFFCURVE",
"165 348 CURVE"
);
}
);
};
layerId = "33C692B7-ECA1-4228-A9DA-44701B454552";
paths = (
{
closed = 1;
nodes = (
"243 0 LINE",
"343 0 LINE",
"343 700 LINE",
"243 700 LINE"
);
},
{
closed = 1;
nodes = (
"243 36 LINE",
"126 6 LINE",
"126 0 LINE",
"263 0 LINE"
);
},
{
closed = 1;
nodes = (
"460 0 LINE",
"460 6 LINE",
"343 36 LINE",
"323 0 LINE"
);
},
{
closed = 1;
nodes = (
"87 681 LINE",
"294 681 LINE",
"294 700 LINE",
"87 700 LINE"
);
},
{
closed = 1;
nodes = (
"5 515 LINE",
"11 515 LINE",
"29 552 OFFCURVE",
"113 700 OFFCURVE",
"143 699 CURVE",
"100 700 LINE SMOOTH",
"90 700 OFFCURVE",
"54 702 OFFCURVE",
"41 704 CURVE",
"28 704 LINE"
);
},
{
closed = 1;
nodes = (
"294 700 LINE",
"294 681 LINE",
"501 681 LINE",
"501 700 LINE"
);
},
{
closed = 1;
nodes = (
"547 704 LINE",
"534 702 OFFCURVE",
"498 700 OFFCURVE",
"488 700 CURVE SMOOTH",
"445 699 LINE",
"475 700 OFFCURVE",
"559 552 OFFCURVE",
"577 515 CURVE",
"583 515 LINE",
"560 704 LINE"
);
}
);
width = 583;
},
{
layerId = "4AEC2A2F-21E0-4005-B5C4-61417F12BD89";
paths = (
{
closed = 1;
nodes = (
"260 681 LINE",
"427 681 LINE",
"433 700 LINE",
"266 700 LINE"
);
},
{
closed = 1;
nodes = (
"433 700 LINE",
"427 681 LINE",
"604 681 LINE",
"624 700 LINE"
);
},
{
closed = 1;
nodes = (
"141 506 OFFCURVE",
"152 488 OFFCURVE",
"164 488 CURVE",
"242 567 LINE",
"242 568 LINE",
"223 569 OFFCURVE",
"209 600 OFFCURVE",
"209 646 CURVE SMOOTH",
"209 674 OFFCURVE",
"381 681 OFFCURVE",
"454 681 CURVE SMOOTH",
"501 681 LINE",
"507 700 LINE",
"272 700 LINE SMOOTH",
"213 700 OFFCURVE",
"141 616 OFFCURVE",
"141 532 CURVE SMOOTH"
);
},
{
closed = 1;
nodes = (
"247 0 LINE",
"347 0 LINE",
"556 700 LINE",
"456 700 LINE"
);
},
{
closed = 1;
nodes = (
"257 36 LINE",
"131 6 LINE",
"130 0 LINE",
"267 0 LINE"
);
},
{
closed = 1;
nodes = (
"464 0 LINE",
"465 6 LINE",
"357 36 LINE",
"327 0 LINE"
);
},
{
closed = 1;
nodes = (
"857 829 OFFCURVE",
"846 847 OFFCURVE",
"834 847 CURVE",
"756 778 LINE",
"756 777 LINE",
"775 766 OFFCURVE",
"789 745 OFFCURVE",
"789 725 CURVE SMOOTH",
"789 697 OFFCURVE",
"617 700 OFFCURVE",
"544 700 CURVE SMOOTH",
"497 700 LINE",
"491 681 LINE",
"726 681 LINE SMOOTH",
"790 681 OFFCURVE",
"857 719 OFFCURVE",
"857 803 CURVE SMOOTH"
);
}
);
width = 570;
},
{
layerId = "E6F0BB9C-0782-48C1-8D27-B7622AB80911";
paths = (
{
closed = 1;
nodes = (
"211 0 LINE",
"311 0 LINE",
"434 700 LINE",
"334 700 LINE"
);
},
{
closed = 1;
nodes = (
"217 36 LINE",
"95 6 LINE",
"94 0 LINE",
"231 0 LINE"
);
},
{
closed = 1;
nodes = (
"428 0 LINE",
"429 6 LINE",
"317 36 LINE",
"291 0 LINE"
);
},
{
closed = 1;
nodes = (
"195 681 LINE",
"382 681 LINE",
"385 700 LINE",
"198 700 LINE"
);
},
{
closed = 1;
nodes = (
"84 515 LINE",
"90 515 LINE",
"114 552 OFFCURVE",
"224 700 OFFCURVE",
"254 699 CURVE",
"211 700 LINE",
"201 700 OFFCURVE",
"166 702 OFFCURVE",
"153 704 CURVE",
"140 704 LINE"
);
},
{
closed = 1;
nodes = (
"385 700 LINE",
"382 681 LINE",
"569 681 LINE",
"572 700 LINE"
);
},
{
closed = 1;
nodes = (
"619 704 LINE",
"606 702 OFFCURVE",
"569 700 OFFCURVE",
"559 700 CURVE",
"516 699 LINE",
"546 700 OFFCURVE",
"604 552 OFFCURVE",
"616 515 CURVE",
"622 515 LINE",
"632 704 LINE"
);
}
);
width = 573;
},
{
associatedMasterId = "33C692B7-ECA1-4228-A9DA-44701B454552";
layerId = "EB34AA33-F50C-4FD8-9B71-242498702479";
width = 600;
},
{
associatedMasterId = "33C692B7-ECA1-4228-A9DA-44701B454552";
layerId = "260799CA-1354-4986-AE02-6BB02FE3B1C6";
width = 600;
},
{
associatedMasterId = "33C692B7-ECA1-4228-A9DA-44701B454552";
layerId = "D8374064-0A1B-4C7C-ABB6-28D8469F3434";
width = 600;
},
{
associatedMasterId = "33C692B7-ECA1-4228-A9DA-44701B454552";
layerId = "63A61D1F-9C45-4792-A0E0-9E10E92945A7";
width = 600;
},
{
layerId = "6E858C87-3851-4F0D-A4B8-5C62800DDA3D";
width = 600;
}
);
leftMetricsKey = T;
},
{
glyphname = a;
lastChange = "2018-08-22 08:20:32 +0000";
layers = (
{
layerId = "33C692B7-ECA1-4228-A9DA-44701B454552";
paths = (
{
closed = 1;
nodes = (
"10 64 OFFCURVE",
"85 -13 OFFCURVE",
"189 -13 CURVE",
"231 4 OFFCURVE",
"294 70 OFFCURVE",
"339 125 CURVE",
"344 125 LINE",
"342 0 LINE",
"491 0 LINE",
"491 5 LINE",
"424 16 LINE",
"425 436 LINE",
"400 458 OFFCURVE",
"346 482 OFFCURVE",
"250 482 CURVE",
"183 461 OFFCURVE",
"10 378 OFFCURVE",
"10 222 CURVE SMOOTH"
);
},
{
closed = 1;
nodes = (
"95 383 OFFCURVE",
"133 440 OFFCURVE",
"227 440 CURVE SMOOTH",
"270 440 OFFCURVE",
"305 417 OFFCURVE",
"335 380 CURVE",
"333 131 LINE",
"297 90 OFFCURVE",
"255 59 OFFCURVE",
"219 59 CURVE SMOOTH",
"161 59 OFFCURVE",
"95 135 OFFCURVE",
"95 258 CURVE SMOOTH"
);
}
);
width = 499;
},
{
layerId = "E6F0BB9C-0782-48C1-8D27-B7622AB80911";
paths = (
{
closed = 1;
nodes = (
"160 51 OFFCURVE",
"270 148 OFFCURVE",
"303 206 CURVE",
"285 209 LINE",
"257 156 OFFCURVE",
"151 61 OFFCURVE",
"139 61 CURVE",
"108 64 OFFCURVE",
"95 91 OFFCURVE",
"95 125 CURVE SMOOTH",
"95 264 OFFCURVE",
"182 448 OFFCURVE",
"298 448 CURVE",
"336 448 OFFCURVE",
"369 430 OFFCURVE",
"394 385 CURVE",
"435 470 LINE",
"421 477 OFFCURVE",
"343 486 OFFCURVE",
"325 486 CURVE",
"177 458 OFFCURVE",
"-5 278 OFFCURVE",
"-5 123 CURVE SMOOTH",
"-5 52 OFFCURVE",
"30 -4 OFFCURVE",
"84 -9 CURVE"
);
},
{
closed = 1;
nodes = (
"427 0 LINE",
"428 5 LINE",
"363 16 LINE",
"435 470 LINE",
"382 470 LINE",
"375 453 LINE",
"370 453 LINE",
"284 206 LINE",
"307 206 LINE",
"274 0 LINE"
);
}
);
width = 464;
},
{
layerId = "4AEC2A2F-21E0-4005-B5C4-61417F12BD89";
paths = (
{
closed = 1;
nodes = (
"-20 70 OFFCURVE",
"15 3 OFFCURVE",
"72 -7 CURVE",
"117 53 OFFCURVE",
"290 318 OFFCURVE",
"321 396 CURVE",
"324 396 LINE",
"203 3 LINE",
"205 -3 OFFCURVE",
"214 -11 OFFCURVE",
"219 -15 CURVE",
"409 69 LINE",
"409 77 LINE",
"308 35 LINE",
"432 448 LINE",
"398 465 OFFCURVE",
"329 490 OFFCURVE",
"291 485 CURVE",
"219 481 OFFCURVE",
"-20 285 OFFCURVE",
"-20 122 CURVE SMOOTH"
);
},
{
closed = 1;
nodes = (
"77 219 OFFCURVE",
"178 442 OFFCURVE",
"226 442 CURVE",
"262.114 445.925 OFFCURVE",
"294.529 433.209 OFFCURVE",
"322.279 417.401 CURVE",
"311 396 LINE",
"282 323 OFFCURVE",
"113 76 OFFCURVE",
"105 73 CURVE",
"85 76 OFFCURVE",
"77 100 OFFCURVE",
"77 134 CURVE SMOOTH"
);
}
);
width = 441;
},
{
associatedMasterId = "33C692B7-ECA1-4228-A9DA-44701B454552";
layerId = "EB34AA33-F50C-4FD8-9B71-242498702479";
width = 600;
},
{
associatedMasterId = "33C692B7-ECA1-4228-A9DA-44701B454552";
layerId = "260799CA-1354-4986-AE02-6BB02FE3B1C6";
width = 600;
},
{
background = {
paths = (
{
closed = 1;
nodes = (
"6 721 LINE",
"6 24 LINE",
"-61 13 LINE",
"-61 0 LINE",
"241 0 LINE",
"241 13 LINE",
"184 24 LINE",
"184 380 LINE",
"198 396 OFFCURVE",
"231 416 OFFCURVE",
"253 416 CURVE SMOOTH",
"307 416 OFFCURVE",
"334 354 OFFCURVE",
"334 262 CURVE SMOOTH",
"334 24 LINE",
"266 13 LINE",
"266 0 LINE",
"579 0 LINE",
"579 13 LINE",
"512 24 LINE",
"512 298 LINE SMOOTH",
"512 412 OFFCURVE",
"450 502 OFFCURVE",
"326 508 CURVE",
"307 507 OFFCURVE",
"193 417 OFFCURVE",
"176 396 CURVE",
"172 396 LINE",
"181 749 LINE",
"169 751 LINE",
"-62 751 LINE",
"-62 738 LINE"
);
}
);
};
layerId = "6E858C87-3851-4F0D-A4B8-5C62800DDA3D";
paths = (
{
closed = 1;
nodes = (
"-7 77 OFFCURVE",
"87 -13 OFFCURVE",
"229 -13 CURVE",
"271 42 OFFCURVE",
"325 105 OFFCURVE",
"342 125 CURVE",
"347 125 LINE",
"345 0 LINE",
"578 0 LINE",
"578 13 LINE",
"511 24 LINE",
"512 466 LINE",
"487 488 OFFCURVE",
"386 518 OFFCURVE",
"290 518 CURVE",
"223 502 OFFCURVE",
"-7 367 OFFCURVE",
"-7 211 CURVE SMOOTH"
);
},
{
closed = 1;
nodes = (
"173 383 OFFCURVE",
"218 450 OFFCURVE",
"267 450 CURVE SMOOTH",
"310 450 OFFCURVE",
"331 403 OFFCURVE",
"338 380 CURVE",
"336 161 LINE",
"336 146 OFFCURVE",
"275 70 OFFCURVE",
"259 70 CURVE SMOOTH",
"216 70 OFFCURVE",
"173 135 OFFCURVE",
"173 258 CURVE SMOOTH"
);
}
);
width = 578;
}
);
rightMetricsKey = i;
unicode = 0061;
},
{
glyphname = aacute;
lastChange = "2018-08-22 08:20:32 +0000";
layers = (
{
components = (
{
name = acutecomb;
}
);
layerId = "33C692B7-ECA1-4228-A9DA-44701B454552";
paths = (
{
closed = 1;
nodes = (
"244 7 OFFCURVE",
"323 113 OFFCURVE",
"367 171 CURVE",
"359 174 LINE",
"319 121 OFFCURVE",
"267 59 OFFCURVE",
"224 59 CURVE SMOOTH",
"166 59 OFFCURVE",
"100 135 OFFCURVE",
"100 258 CURVE SMOOTH",
"100 383 OFFCURVE",
"138 440 OFFCURVE",
"232 440 CURVE SMOOTH",
"276 440 OFFCURVE",
"312 416 OFFCURVE",
"342 377 CURVE",
"430 436 LINE",
"405 458 OFFCURVE",
"351 482 OFFCURVE",
"255 482 CURVE",
"188 461 OFFCURVE",
"15 378 OFFCURVE",
"15 222 CURVE SMOOTH",
"15 64 OFFCURVE",
"90 -13 OFFCURVE",
"194 -13 CURVE"
);
},
{
closed = 1;
nodes = (
"496 0 LINE",
"496 5 LINE",
"429 16 LINE",
"430 436 LINE",
"367 444 LINE",
"340 380 LINE",
"338 142 LINE",
"349 142 LINE",
"340 0 LINE"
);
}
);
width = 600;
},
{
layerId = "E6F0BB9C-0782-48C1-8D27-B7622AB80911";
paths = (
{
closed = 1;
nodes = (
"168 51 OFFCURVE",
"278 148 OFFCURVE",
"311 206 CURVE",
"293 209 LINE",
"265 156 OFFCURVE",
"159 61 OFFCURVE",
"147 61 CURVE",
"116 64 OFFCURVE",
"103 91 OFFCURVE",
"103 125 CURVE SMOOTH",
"103 264 OFFCURVE",
"190 448 OFFCURVE",
"306 448 CURVE",
"344 448 OFFCURVE",
"377 430 OFFCURVE",
"402 385 CURVE",
"443 470 LINE",
"429 477 OFFCURVE",
"351 486 OFFCURVE",
"333 486 CURVE",
"185 458 OFFCURVE",
"3 278 OFFCURVE",
"3 123 CURVE SMOOTH",
"3 52 OFFCURVE",
"38 -4 OFFCURVE",
"92 -9 CURVE"
);
},
{
closed = 1;
nodes = (
"435 0 LINE",
"436 5 LINE",
"371 16 LINE",
"443 470 LINE",
"390 470 LINE",
"383 453 LINE",
"378 453 LINE",
"292 206 LINE",
"315 206 LINE",
"282 0 LINE"
);
},
{
closed = 1;
nodes = (
"354 574 OFFCURVE",
"450 711 OFFCURVE",
"450 722 CURVE",
"519 732 LINE",
"518 732 OFFCURVE",
"544 722 OFFCURVE",
"545 722 CURVE",
"545 721 LINE",
"358 541 LINE",
"330 543 LINE"
);
}
);
width = 600;
},
{
layerId = "4AEC2A2F-21E0-4005-B5C4-61417F12BD89";
paths = (
{
closed = 1;
nodes = (
"137 53 OFFCURVE",
"310 318 OFFCURVE",
"341 396 CURVE",
"331 396 LINE",
"302 323 OFFCURVE",
"133 76 OFFCURVE",
"125 73 CURVE",
"105 76 OFFCURVE",
"97 100 OFFCURVE",
"97 134 CURVE SMOOTH",
"97 219 OFFCURVE",
"198 442 OFFCURVE",
"246 442 CURVE",
"292 447 OFFCURVE",
"332 425 OFFCURVE",
"364 404 CURVE",
"452 448 LINE",
"418 465 OFFCURVE",
"349 490 OFFCURVE",
"311 485 CURVE",
"239 481 OFFCURVE",
"0 285 OFFCURVE",
"0 122 CURVE SMOOTH",
"0 70 OFFCURVE",
"35 3 OFFCURVE",
"92 -7 CURVE"
);
},
{
closed = 1;
nodes = (
"370 470 LINE",
"331 396 LINE",
"344 396 LINE",
"223 3 LINE",
"225 -3 OFFCURVE",
"234 -11 OFFCURVE",
"239 -15 CURVE",
"429 69 LINE",
"429 77 LINE",
"328 35 LINE",
"452 448 LINE"
);
},
{
closed = 1;
nodes = (
"354 588 OFFCURVE",
"459 711 OFFCURVE",
"459 722 CURVE",
"528 732 LINE",
"527 732 OFFCURVE",
"553 722 OFFCURVE",
"554 722 CURVE",
"554 721 LINE",
"342 541 LINE",
"330 557 LINE"
);
}
);
width = 600;
},
{
associatedMasterId = "33C692B7-ECA1-4228-A9DA-44701B454552";
layerId = "D8374064-0A1B-4C7C-ABB6-28D8469F3434";
width = 600;
},
{
associatedMasterId = "33C692B7-ECA1-4228-A9DA-44701B454552";
layerId = "63A61D1F-9C45-4792-A0E0-9E10E92945A7";
width = 600;
},
{
layerId = "6E858C87-3851-4F0D-A4B8-5C62800DDA3D";
width = 600;
}
);
unicode = 00E1;
},
{
glyphname = acircumflex;
lastChange = "2018-08-22 08:20:25 +0000";
layers = (
{
components = (
{
name = circumflexcomb;
transform = "{1, 0, 0, 1, -94, 0}";
}
);
layerId = "33C692B7-ECA1-4228-A9DA-44701B454552";
paths = (
{
closed = 1;
nodes = (
"249 7 OFFCURVE",
"328 113 OFFCURVE",
"372 171 CURVE",
"364 174 LINE",
"324 121 OFFCURVE",
"272 59 OFFCURVE",
"229 59 CURVE SMOOTH",
"171 59 OFFCURVE",
"105 135 OFFCURVE",
"105 258 CURVE SMOOTH",
"105 383 OFFCURVE",
"143 440 OFFCURVE",
"237 440 CURVE SMOOTH",
"281 440 OFFCURVE",
"317 416 OFFCURVE",
"347 377 CURVE",
"435 436 LINE",
"410 458 OFFCURVE",
"356 482 OFFCURVE",
"260 482 CURVE",
"193 461 OFFCURVE",
"20 378 OFFCURVE",
"20 222 CURVE SMOOTH",
"20 64 OFFCURVE",
"95 -13 OFFCURVE",
"199 -13 CURVE"
);
},
{
closed = 1;
nodes = (
"501 0 LINE",
"501 5 LINE",
"434 16 LINE",
"435 436 LINE",
"372 444 LINE",
"345 380 LINE",
"343 142 LINE",
"354 142 LINE",
"352 0 LINE"
);
}
);
width = 509;
},
{
components = (
{
name = circumflexcomb;
},
{
name = a;
}
);
layerId = "E6F0BB9C-0782-48C1-8D27-B7622AB80911";
width = 464;
},
{
components = (
{
name = a;
},
{
name = circumflexcomb;
}
);
layerId = "4AEC2A2F-21E0-4005-B5C4-61417F12BD89";
width = 441;
},
{
associatedMasterId = "33C692B7-ECA1-4228-A9DA-44701B454552";
layerId = "D8374064-0A1B-4C7C-ABB6-28D8469F3434";
width = 600;
},
{
associatedMasterId = "33C692B7-ECA1-4228-A9DA-44701B454552";
layerId = "63A61D1F-9C45-4792-A0E0-9E10E92945A7";
width = 600;
},
{
layerId = "6E858C87-3851-4F0D-A4B8-5C62800DDA3D";
width = 600;
}
);
rightMetricsKey = a;
unicode = 00E2;
},
{
glyphname = agrave;
lastChange = "2018-08-22 08:20:32 +0000";
layers = (
{
components = (
{
name = gravecomb;
transform = "{1, 0, 0, 1, -150, 0}";
}
);
layerId = "33C692B7-ECA1-4228-A9DA-44701B454552";
paths = (
{
closed = 1;
nodes = (
"244 7 OFFCURVE",
"323 113 OFFCURVE",
"367 171 CURVE",
"359 174 LINE",
"319 121 OFFCURVE",
"267 59 OFFCURVE",
"224 59 CURVE SMOOTH",
"166 59 OFFCURVE",
"100 135 OFFCURVE",
"100 258 CURVE SMOOTH",
"100 383 OFFCURVE",
"138 440 OFFCURVE",
"232 440 CURVE SMOOTH",
"276 440 OFFCURVE",
"312 416 OFFCURVE",
"342 377 CURVE",
"429 436 LINE",
"404 458 OFFCURVE",
"351 482 OFFCURVE",
"255 482 CURVE",
"188 461 OFFCURVE",
"15 378 OFFCURVE",
"15 222 CURVE SMOOTH",
"15 64 OFFCURVE",
"90 -13 OFFCURVE",
"194 -13 CURVE"
);
},
{
closed = 1;
nodes = (
"496 0 LINE",
"496 5 LINE",
"429 16 LINE",
"430 436 LINE",
"367 444 LINE",
"340 380 LINE",
"338 142 LINE",
"349 142 LINE",
"340 0 LINE"
);
}
);
width = 600;
},
{
layerId = "E6F0BB9C-0782-48C1-8D27-B7622AB80911";
paths = (
{
closed = 1;
nodes = (
"168 51 OFFCURVE",
"278 148 OFFCURVE",
"311 206 CURVE",
"293 209 LINE",
"265 156 OFFCURVE",
"159 61 OFFCURVE",
"147 61 CURVE",
"116 64 OFFCURVE",
"103 91 OFFCURVE",
"103 125 CURVE SMOOTH",
"103 264 OFFCURVE",
"190 448 OFFCURVE",
"306 448 CURVE",
"344 448 OFFCURVE",
"377 430 OFFCURVE",
"402 385 CURVE",
"443 470 LINE",
"429 477 OFFCURVE",
"351 486 OFFCURVE",
"333 486 CURVE",
"185 458 OFFCURVE",
"3 278 OFFCURVE",
"3 123 CURVE SMOOTH",
"3 52 OFFCURVE",
"38 -4 OFFCURVE",
"92 -9 CURVE"
);
},
{
closed = 1;
nodes = (
"435 0 LINE",
"436 5 LINE",
"371 16 LINE",
"443 470 LINE",
"390 470 LINE",
"383 453 LINE",
"378 453 LINE",
"292 206 LINE",
"315 206 LINE",
"282 0 LINE"
);
},
{
closed = 1;
nodes = (
"309 541 LINE",
"132 721 LINE",
"132 722 LINE",
"133 722 OFFCURVE",
"159 732 OFFCURVE",
"158 732 CURVE",
"227 722 LINE",
"227 711 OFFCURVE",
"313 574 OFFCURVE",
"337 543 CURVE"
);
}
);
width = 600;
},
{
layerId = "4AEC2A2F-21E0-4005-B5C4-61417F12BD89";
paths = (
{
closed = 1;
nodes = (
"122 53 OFFCURVE",
"295 318 OFFCURVE",
"326 396 CURVE",
"316 396 LINE",
"287 323 OFFCURVE",
"118 76 OFFCURVE",
"110 73 CURVE",
"90 76 OFFCURVE",
"82 100 OFFCURVE",
"82 134 CURVE SMOOTH",
"82 219 OFFCURVE",
"183 442 OFFCURVE",
"231 442 CURVE",
"277 447 OFFCURVE",
"317 425 OFFCURVE",
"349 404 CURVE",
"437 448 LINE",
"403 465 OFFCURVE",
"334 490 OFFCURVE",
"296 485 CURVE",
"224 481 OFFCURVE",
"-15 285 OFFCURVE",
"-15 122 CURVE SMOOTH",
"-15 70 OFFCURVE",
"20 3 OFFCURVE",
"77 -7 CURVE"
);
},
{
closed = 1;
nodes = (
"355 470 LINE",
"316 396 LINE",
"329 396 LINE",
"208 3 LINE",
"210 -3 OFFCURVE",
"219 -11 OFFCURVE",
"224 -15 CURVE",
"414 69 LINE",
"414 77 LINE",
"313 35 LINE",
"437 448 LINE"
);
},
{
closed = 1;
nodes = (
"334 541 LINE",
"152 721 LINE",
"152 722 LINE",
"153 722 OFFCURVE",
"179 732 OFFCURVE",
"178 732 CURVE",
"247 722 LINE",
"247 711 OFFCURVE",
"345 551 OFFCURVE",
"345 551 CURVE"
);
}
);
width = 600;
},
{
associatedMasterId = "33C692B7-ECA1-4228-A9DA-44701B454552";
layerId = "D8374064-0A1B-4C7C-ABB6-28D8469F3434";
width = 600;
},
{
associatedMasterId = "33C692B7-ECA1-4228-A9DA-44701B454552";
layerId = "63A61D1F-9C45-4792-A0E0-9E10E92945A7";
width = 600;
},
{
layerId = "6E858C87-3851-4F0D-A4B8-5C62800DDA3D";
width = 600;
}
);
unicode = 00E0;
},
{
glyphname = ae;
lastChange = "2018-10-25 08:58:01 +0000";
layers = (
{
layerId = "33C692B7-ECA1-4228-A9DA-44701B454552";
paths = (
{
closed = 1;
nodes = (
"11 64 OFFCURVE",
"86 -13 OFFCURVE",
"190 -13 CURVE",
"232 4 OFFCURVE",
"303 78 OFFCURVE",
"348 137 CURVE",
"354 137 LINE",
"380 49 OFFCURVE",
"448.836 -9 OFFCURVE",
"543 -9 CURVE SMOOTH",
"561 -9 OFFCURVE",
"576 -8 OFFCURVE",
"594 -3 CURVE",
"654 27 OFFCURVE",
"706 62 OFFCURVE",
"749 105 CURVE",
"738 115 LINE",
"713 87 OFFCURVE",
"666 51 OFFCURVE",
"609 51 CURVE SMOOTH",
"495.307 51 OFFCURVE",
"431.882 137.175 OFFCURVE",
"425.529 248.289 CURVE",
"425.58 261.063 LINE",
"744 263 LINE",
"742 415 OFFCURVE",
"700 486 OFFCURVE",
"559 482 CURVE",
"506.424 470.676 OFFCURVE",
"461.209 448.066 OFFCURVE",
"426 416.552 CURVE",
"398 442 OFFCURVE",
"347 482 OFFCURVE",
"251 482 CURVE",
"184 461 OFFCURVE",
"11 378 OFFCURVE",
"11 222 CURVE SMOOTH"
);
},
{
closed = 1;
nodes = (
"96 383 OFFCURVE",
"134 440 OFFCURVE",
"228 440 CURVE SMOOTH",
"271 440 OFFCURVE",
"306 417 OFFCURVE",
"336 380 CURVE",
"334 147 LINE",
"298 102 OFFCURVE",
"256 59 OFFCURVE",
"220 59 CURVE SMOOTH",
"162 59 OFFCURVE",
"96 135 OFFCURVE",
"96 258 CURVE SMOOTH"
);
},
{
closed = 1;
nodes = (
"425.75 303.448 LINE",
"429.944 395.772 OFFCURVE",
"453.366 451.334 OFFCURVE",
"536 454 CURVE SMOOTH",
"600 456 OFFCURVE",
"652 400 OFFCURVE",
"652 295 CURVE SMOOTH",
"652 290.905 OFFCURVE",
"649.93 285.361 OFFCURVE",
"647.673 279.875 CURVE",
"425.618 270.41 LINE"
);
}
);
width = 764;
},
{
layerId = "E6F0BB9C-0782-48C1-8D27-B7622AB80911";
paths = (
{
closed = 1;
nodes = (
"386 255 LINE",
"639 262 LINE",
"644 273 LINE",
"403 265 LINE",
"388 263 LINE"
);
},
{
closed = 1;
nodes = (
"299 332 OFFCURVE",
"294 157 CURVE",
"294 41 OFFCURVE",
"330 -12 OFFCURVE",
"445 -13 CURVE",
"512 10 OFFCURVE",
"614 106 OFFCURVE",
"634 130 CURVE",
"624 140 LINE",
"604 116 OFFCURVE",
"550 49 OFFCURVE",
"495 49 CURVE",
"406 49 OFFCURVE",
"391 91 OFFCURVE",
"391 170 CURVE",
"403 294 OFFCURVE",
"432 462 OFFCURVE",
"523 456 CURVE",
"567 453 OFFCURVE",
"584 422 OFFCURVE",
"584 379 CURVE SMOOTH",
"584 344 OFFCURVE",
"572 301 OFFCURVE",
"553 260 CURVE",
"653 261 LINE",
"667 293 OFFCURVE",
"677 331 OFFCURVE",
"677 365 CURVE SMOOTH",
"677 423 OFFCURVE",
"650 474 OFFCURVE",
"578 482 CURVE",
"429 470 OFFCURVE"
);
},
{
closed = 1;
nodes = (
"-2 52 OFFCURVE",
"33 -4 OFFCURVE",
"87 -9 CURVE",
"163 51 OFFCURVE",
"273 148 OFFCURVE",
"306 206 CURVE",
"310 206 LINE",
"307 89 LINE",
"370 43 LINE",
"438 430 LINE",
"438 446 OFFCURVE",
"417 486 OFFCURVE",
"328 486 CURVE",
"180 458 OFFCURVE",
"-2 278 OFFCURVE",
"-2 123 CURVE SMOOTH"
);
},
{
closed = 1;
nodes = (
"98 264 OFFCURVE",
"185 448 OFFCURVE",
"301 448 CURVE SMOOTH",
"323.948 448 OFFCURVE",
"345.072 441.436 OFFCURVE",
"363.712 426.325 CURVE",
"288.042 208.993 LINE",
"260 156 OFFCURVE",
"154 61 OFFCURVE",
"142 61 CURVE",
"111 64 OFFCURVE",
"98 91 OFFCURVE",
"98 125 CURVE SMOOTH"
);
}
);
width = 672;
},
{
layerId = "4AEC2A2F-21E0-4005-B5C4-61417F12BD89";
paths = (
{
closed = 1;
nodes = (
"-20 70 OFFCURVE",
"15 3 OFFCURVE",
"72 -7 CURVE",
"117 53 OFFCURVE",
"291 273 OFFCURVE",
"342 351 CURVE",
"345 351 LINE",
"298 266 OFFCURVE",
"263 209 OFFCURVE",
"263 140 CURVE SMOOTH",
"261 68 OFFCURVE",
"308 5 OFFCURVE",
"394 -7 CURVE",
"439 11 OFFCURVE",
"526 70 OFFCURVE",
"556 88 CURVE",
"552 100 LINE",
"521 80 OFFCURVE",
"478 53 OFFCURVE",
"433 27 CURVE",
"383 33 OFFCURVE",
"364 74 OFFCURVE",
"364 153 CURVE SMOOTH",
"364 164 OFFCURVE",
"364 176 OFFCURVE",
"365 189 CURVE",
"383 189 OFFCURVE",
"519 265 OFFCURVE",
"549 286 CURVE SMOOTH",
"592 315 OFFCURVE",
"644 377 OFFCURVE",
"644 413 CURVE SMOOTH",
"644 447 OFFCURVE",
"602 474 OFFCURVE",
"591 474 CURVE",
"536.428 478.227 OFFCURVE",
"476.096 455.131 OFFCURVE",
"422.207 415.383 CURVE",
"407 441 OFFCURVE",
"374 485 OFFCURVE",
"291 485 CURVE",
"219 481 OFFCURVE",
"-20 285 OFFCURVE",
"-20 122 CURVE SMOOTH"
);
},
{
closed = 1;
nodes = (
"77 219 OFFCURVE",
"178 442 OFFCURVE",
"226 442 CURVE",
"262 446 OFFCURVE",
"325 412 OFFCURVE",
"352 396 CURVE",
"326 334 OFFCURVE",
"125 81 OFFCURVE",
"105 73 CURVE",
"85 76 OFFCURVE",
"77 100 OFFCURVE",
"77 134 CURVE SMOOTH"
);
},
{
closed = 1;
nodes = (
"366.624 218.485 OFFCURVE",
"369.491 236.872 OFFCURVE",
"374.189 255.453 CURVE",
"382.68 283.731 LINE",
"414.265 374.837 OFFCURVE",
"484.812 462 OFFCURVE",
"546 462 CURVE SMOOTH",
"558 462 OFFCURVE",
"563 453 OFFCURVE",
"563 438 CURVE SMOOTH",
"563 373 OFFCURVE",
"411 201 OFFCURVE",
"366 201 CURVE"
);
}
);
width = 602;
},
{
associatedMasterId = "33C692B7-ECA1-4228-A9DA-44701B454552";
layerId = "D8374064-0A1B-4C7C-ABB6-28D8469F3434";
width = 600;
},
{
associatedMasterId = "33C692B7-ECA1-4228-A9DA-44701B454552";
layerId = "63A61D1F-9C45-4792-A0E0-9E10E92945A7";
width = 600;
},
{
layerId = "6E858C87-3851-4F0D-A4B8-5C62800DDA3D";
width = 875;
}
);
rightMetricsKey = e;
unicode = 00E6;
},
